if (_typeface_js && _typeface_js.loadFace) _typeface_js.loadFace({"glyphs":{"0":{"ha":853,"x_min":69,"x_max":783,"o":"m 204 450 q 283 158 204 242 q 344 115 310 131 q 426 100 378 100 q 509 115 475 100 q 569 158 543 131 q 649 450 649 242 q 569 742 649 658 q 509 785 543 769 q 426 800 475 800 q 344 785 378 800 q 283 742 310 769 q 204 450 204 658 m 69 450 q 88 626 69 543 q 150 776 106 710 q 263 882 194 843 q 426 921 331 921 q 590 882 522 921 q 703 776 658 843 q 765 626 747 710 q 783 450 783 543 q 765 274 783 357 q 703 124 747 190 q 590 18 658 57 q 426 -21 522 -21 q 263 18 331 -21 q 150 124 194 57 q 88 274 106 190 q 69 450 69 357 z "},"1":{"ha":490,"x_min":35,"x_max":386,"o":"m 253 0 l 253 635 l 35 635 l 35 731 q 190 780 129 733 q 267 900 251 826 l 386 900 l 386 0 l 253 0 z "},"2":{"ha":735,"x_min":49,"x_max":679,"o":"m 60 593 q 58 612 58 603 q 58 629 58 621 q 79 740 58 688 q 140 833 100 793 q 238 897 179 874 q 369 921 296 921 q 499 899 442 921 q 594 839 556 876 q 653 751 633 801 q 674 644 674 700 q 628 485 674 556 q 504 367 582 415 l 326 253 q 257 198 288 228 q 217 126 226 168 l 679 126 l 679 0 l 49 0 q 62 104 50 56 q 99 197 74 153 q 165 281 125 242 q 263 358 206 321 l 413 456 q 506 543 476 496 q 536 643 536 590 q 526 702 536 674 q 494 753 515 731 q 442 788 474 775 q 367 801 410 801 q 290 787 322 801 q 235 747 257 772 q 203 689 214 722 q 193 617 193 656 q 194 597 193 607 q 196 576 194 588 l 60 593 z "},"3":{"ha":768,"x_min":51,"x_max":713,"o":"m 246 531 l 511 775 l 81 775 l 81 900 l 692 900 l 692 778 l 435 540 q 534 524 485 540 q 623 473 583 507 q 688 388 663 439 q 713 267 713 336 q 691 158 713 210 q 628 65 669 106 q 526 1 586 25 q 386 -22 465 -22 q 247 1 308 -22 q 144 65 186 25 q 78 155 101 104 q 51 261 54 206 l 185 292 q 203 211 186 247 q 247 150 219 175 q 309 111 274 125 q 385 97 344 97 q 467 110 431 97 q 526 147 503 124 q 563 200 550 169 q 575 264 575 231 q 559 340 575 308 q 517 392 543 372 q 458 422 490 413 q 392 432 425 432 q 313 418 351 432 l 246 531 z "},"4":{"ha":797,"x_min":49,"x_max":776,"o":"m 49 360 l 435 900 l 622 900 l 622 329 l 776 329 l 776 203 l 622 203 l 622 0 l 490 0 l 490 203 l 49 203 l 49 360 m 490 769 l 174 329 l 490 329 l 490 769 z "},"5":{"ha":761,"x_min":49,"x_max":713,"o":"m 179 283 q 242 149 186 200 q 382 97 297 97 q 458 110 422 97 q 519 147 493 122 q 560 204 544 171 q 575 279 575 238 q 559 360 575 325 q 517 419 543 396 q 455 453 490 442 q 381 465 419 465 q 289 448 332 465 q 217 400 246 431 q 149 427 181 414 q 83 453 118 440 l 200 900 l 675 900 l 675 775 l 290 775 l 224 517 q 304 567 254 550 q 407 583 354 583 q 529 563 474 583 q 626 503 585 542 q 690 410 667 465 q 713 285 713 354 q 689 165 713 221 q 622 68 665 110 q 518 2 579 26 q 382 -22 457 -22 q 251 -1 310 -22 q 148 58 192 21 q 78 143 104 94 q 49 244 53 192 l 179 283 z "},"6":{"ha":806,"x_min":71,"x_max":756,"o":"m 688 760 q 620 787 663 775 q 526 799 578 799 q 399 774 456 799 q 302 707 343 750 q 238 605 261 664 q 210 476 214 546 q 297 557 238 521 q 447 593 357 593 q 570 573 514 593 q 668 513 626 553 q 733 417 710 474 q 756 286 756 360 q 728 157 756 214 q 656 60 701 100 q 549 0 610 21 q 422 -21 489 -21 q 294 3 357 -21 q 182 76 232 26 q 101 206 132 126 q 71 396 71 285 q 106 619 71 521 q 204 784 142 717 q 351 886 267 851 q 535 921 436 921 q 647 907 597 921 q 729 871 697 893 l 688 760 m 229 286 q 246 207 229 242 q 290 148 263 172 q 351 110 317 124 q 424 97 386 97 q 498 110 463 97 q 560 147 533 122 q 603 206 588 171 q 618 286 618 242 q 602 367 618 332 q 560 427 586 403 q 498 464 533 451 q 424 476 463 476 q 349 464 385 476 q 288 427 314 451 q 245 367 261 403 q 229 286 229 332 z "},"7":{"ha":671,"x_min":7,"x_max":664,"o":"m 664 769 q 575 688 632 744 q 458 538 518 632 q 349 312 399 444 q 283 0 300 179 l 143 0 q 170 183 150 97 q 217 341 190 268 q 277 474 244 414 q 343 583 310 535 q 514 775 419 696 l 7 775 l 7 900 l 664 900 l 664 769 z "},"8":{"ha":778,"x_min":63,"x_max":715,"o":"m 389 517 q 508 558 461 518 q 556 664 556 597 q 510 767 556 725 q 389 808 465 808 q 267 767 313 808 q 222 664 222 725 q 269 558 222 597 q 389 517 317 518 m 389 97 q 529 141 481 97 q 578 249 578 185 q 528 358 578 314 q 389 403 479 403 q 249 358 299 403 q 200 249 200 314 q 249 141 200 185 q 389 97 297 97 m 389 -21 q 251 -1 311 -21 q 149 54 190 19 q 85 136 107 89 q 63 238 63 183 q 112 378 63 321 q 233 460 161 436 q 176 492 203 471 q 129 540 149 513 q 98 600 110 567 q 86 671 86 633 q 109 772 86 726 q 173 851 132 818 q 269 903 214 885 q 389 921 324 921 q 508 903 453 921 q 605 851 564 885 q 669 772 646 818 q 692 671 692 726 q 649 540 692 597 q 544 460 607 483 q 666 378 617 436 q 715 238 715 321 q 693 136 715 183 q 629 54 671 89 q 527 -1 588 19 q 389 -21 467 -21 z "},"9":{"ha":807,"x_min":56,"x_max":738,"o":"m 124 144 q 198 114 153 126 q 288 101 243 101 q 428 126 369 101 q 524 195 486 151 q 579 297 561 239 q 600 421 597 354 q 517 341 576 376 q 367 306 458 306 q 252 325 308 306 q 152 383 196 344 q 82 478 108 422 q 56 610 56 535 q 83 737 56 679 q 156 835 110 794 q 261 899 201 876 q 388 921 321 921 q 517 897 454 921 q 628 822 579 872 q 708 693 678 771 q 738 507 738 615 q 710 285 738 383 q 626 119 682 188 q 485 15 569 51 q 288 -21 401 -21 q 232 -17 261 -21 q 174 -6 203 -12 q 121 11 146 1 q 79 32 96 21 l 124 144 m 582 613 q 565 691 582 656 q 522 751 549 726 q 460 788 494 775 q 388 801 425 801 q 315 788 350 801 q 252 751 279 775 q 209 692 225 726 q 193 613 193 657 q 209 531 193 567 q 252 472 225 496 q 314 435 279 447 q 388 422 349 422 q 460 435 425 422 q 522 473 494 449 q 565 533 549 497 q 582 613 582 568 z "}," ":{"ha":347,"x_min":0,"x_max":0,"o":""},"!":{"ha":432,"x_min":125,"x_max":307,"o":"m 263 282 l 169 282 l 133 985 l 297 985 l 263 282 m 125 83 q 151 148 125 121 q 215 175 178 175 q 280 148 253 175 q 307 83 307 121 q 280 19 307 46 q 215 -7 253 -7 q 151 19 178 -7 q 125 83 125 46 z "},"\"":{"ha":519,"x_min":56,"x_max":464,"o":"m 56 832 q 79 893 56 869 q 140 917 103 917 q 200 893 176 917 q 224 832 224 869 q 221 807 224 821 l 163 546 l 115 546 l 58 806 q 56 832 56 819 m 296 832 q 319 893 296 869 q 381 917 343 917 q 440 893 417 917 q 464 832 464 869 q 461 807 464 821 l 403 546 l 356 546 l 299 806 q 296 832 296 819 z "},"#":{"ha":1025,"x_min":69,"x_max":956,"o":"m 138 668 l 338 668 l 388 900 l 504 900 l 454 668 l 651 668 l 701 900 l 818 900 l 768 668 l 956 668 l 956 563 l 746 563 l 699 340 l 888 340 l 888 235 l 675 235 l 625 0 l 508 0 l 558 235 l 361 235 l 311 0 l 194 0 l 244 235 l 69 235 l 69 340 l 268 340 l 315 563 l 138 563 l 138 668 m 385 340 l 582 340 l 629 563 l 432 563 l 385 340 z "},"$":{"ha":826,"x_min":69,"x_max":749,"o":"m 372 -162 l 372 -18 q 246 16 300 -11 q 154 81 192 43 q 96 165 117 119 q 69 257 75 211 l 201 299 q 216 233 204 265 q 249 175 228 201 q 300 130 269 149 q 372 104 331 111 l 372 394 l 338 401 q 169 488 231 424 q 107 654 107 551 q 126 749 107 704 q 181 828 146 793 q 265 888 217 864 q 372 918 314 911 l 372 1064 l 481 1064 l 481 917 q 590 885 544 908 q 667 829 636 861 q 715 760 697 797 q 740 690 732 724 l 615 644 q 603 686 613 664 q 576 729 593 708 q 536 767 560 750 q 481 793 513 785 l 481 508 l 501 504 q 683 410 618 481 q 749 246 749 340 q 731 156 749 200 q 681 75 714 111 q 597 15 647 39 q 481 -18 547 -10 l 481 -162 l 372 -162 m 613 239 q 581 320 613 283 q 481 372 549 357 l 481 104 q 581 153 549 117 q 613 239 613 190 m 244 660 q 273 581 244 615 q 372 533 301 547 l 372 797 q 278 749 311 786 q 244 660 244 711 z "},"%":{"ha":1135,"x_min":76,"x_max":1072,"o":"m 192 692 q 223 613 192 643 q 299 582 254 582 q 375 613 344 582 q 406 692 406 643 q 375 769 406 739 q 299 800 344 800 q 223 769 254 800 q 192 692 192 739 m 76 692 q 94 777 76 738 q 143 847 113 817 q 214 893 174 876 q 299 910 254 910 q 384 893 343 910 q 456 847 425 876 q 504 777 486 817 q 522 692 522 738 q 504 606 522 646 q 456 535 486 565 q 384 489 425 506 q 299 472 343 472 q 214 489 254 472 q 143 535 174 506 q 94 606 113 565 q 76 692 76 646 m 742 208 q 773 129 742 160 q 849 99 804 99 q 925 129 894 99 q 956 208 956 160 q 925 286 956 256 q 849 317 894 317 q 773 286 804 317 q 742 208 742 256 m 626 208 q 644 294 626 254 q 693 363 663 333 q 764 410 724 393 q 849 426 804 426 q 934 410 893 426 q 1006 363 975 393 q 1054 294 1036 333 q 1072 208 1072 254 q 1054 122 1072 163 q 1006 52 1036 82 q 934 6 975 22 q 849 -11 893 -11 q 764 6 804 -11 q 693 52 724 22 q 644 122 663 82 q 626 208 626 163 m 188 0 l 835 900 l 960 900 l 315 0 l 188 0 z "},"&":{"ha":968,"x_min":97,"x_max":968,"o":"m 658 131 q 531 23 597 63 q 382 -17 465 -17 q 259 5 313 -17 q 169 62 206 26 q 115 142 133 97 q 97 235 97 188 q 110 320 97 282 q 145 391 122 358 q 200 452 168 424 q 271 510 232 481 l 285 521 l 267 540 q 229 581 250 558 q 190 632 208 604 q 160 692 172 660 q 149 760 149 724 q 171 865 149 819 q 230 942 193 911 q 312 990 267 974 q 403 1006 357 1006 q 506 989 458 1006 q 589 941 554 972 q 644 865 624 910 q 664 765 664 821 q 652 698 664 729 q 621 640 640 667 q 576 590 601 613 q 525 547 551 567 l 475 510 l 658 319 l 878 564 l 878 385 l 744 231 l 968 0 l 783 0 l 658 131 m 383 108 q 483 140 440 108 q 567 217 526 172 l 571 222 l 371 432 l 321 394 q 261 332 285 367 q 238 246 238 297 q 248 197 238 221 q 277 152 258 172 q 323 120 296 132 q 383 108 350 108 m 283 768 q 290 728 283 747 q 308 691 297 708 q 333 658 319 674 q 358 631 346 643 l 389 597 l 456 647 q 515 708 500 679 q 529 769 529 738 q 494 853 529 818 q 404 889 458 889 q 362 881 383 889 q 323 858 340 874 q 294 819 306 842 q 283 768 283 797 z "},"'":{"ha":279,"x_min":56,"x_max":224,"o":"m 56 832 q 79 893 56 869 q 140 917 103 917 q 200 893 176 917 q 224 832 224 869 q 221 807 224 821 l 163 546 l 115 546 l 58 806 q 56 832 56 819 z "},"(":{"ha":419,"x_min":76,"x_max":419,"o":"m 76 440 q 97 651 76 554 q 152 828 117 747 q 236 978 188 910 q 340 1103 285 1046 l 419 1033 q 251 769 313 914 q 189 440 189 624 q 251 111 189 257 q 419 -153 313 -35 l 340 -222 q 236 -97 285 -165 q 152 52 188 -29 q 97 230 117 133 q 76 440 76 326 z "},")":{"ha":419,"x_min":0,"x_max":343,"o":"m 343 440 q 323 230 343 326 q 267 52 303 133 q 183 -97 232 -29 q 79 -222 135 -165 l 0 -153 q 168 111 106 -35 q 231 440 231 257 q 215 614 231 532 q 169 769 199 696 q 96 908 139 843 q 0 1033 53 974 l 79 1103 q 183 978 135 1046 q 267 828 232 910 q 323 651 303 747 q 343 440 343 554 z "},"*":{"ha":611,"x_min":49,"x_max":563,"o":"m 360 799 l 531 857 l 563 757 l 390 700 l 504 554 l 419 490 l 304 642 l 196 492 l 111 556 l 221 700 l 49 757 l 81 857 l 250 797 l 250 985 l 360 985 l 360 799 z "},"+":{"ha":788,"x_min":76,"x_max":711,"o":"m 336 454 l 336 725 l 450 725 l 450 454 l 711 454 l 711 344 l 450 344 l 450 71 l 336 71 l 336 344 l 76 344 l 76 454 l 336 454 z "},",":{"ha":408,"x_min":97,"x_max":311,"o":"m 97 89 q 126 154 97 126 q 199 182 154 182 q 277 149 243 182 q 311 50 311 117 q 291 -69 311 -19 q 240 -150 271 -118 q 174 -199 210 -182 q 106 -221 138 -217 l 106 -149 q 152 -128 131 -143 q 188 -93 174 -114 q 212 -48 203 -72 q 221 1 221 -24 q 210 -3 218 -1 q 190 -6 201 -6 q 124 19 151 -6 q 97 89 97 44 z "},"-":{"ha":501,"x_min":63,"x_max":439,"o":"m 63 342 l 63 456 l 439 456 l 439 342 l 63 342 z "},".":{"ha":388,"x_min":97,"x_max":290,"o":"m 97 89 q 125 158 97 129 q 193 186 153 186 q 262 158 233 186 q 290 89 290 129 q 262 21 290 49 q 193 -7 233 -7 q 125 21 153 -7 q 97 89 97 49 z "},"/":{"ha":603,"x_min":0,"x_max":603,"o":"m 126 0 l 0 0 l 476 985 l 603 985 l 126 0 z "},":":{"ha":403,"x_min":104,"x_max":299,"o":"m 106 89 q 133 158 106 129 q 201 186 161 186 q 270 158 242 186 q 299 89 299 129 q 270 21 299 49 q 201 -7 242 -7 q 133 21 161 -7 q 106 89 106 49 m 104 578 q 132 647 104 618 q 200 675 160 675 q 269 647 240 675 q 297 578 297 618 q 269 510 297 538 q 200 482 240 482 q 132 510 160 482 q 104 578 104 538 z "},";":{"ha":413,"x_min":104,"x_max":308,"o":"m 104 86 q 131 147 104 121 q 201 174 158 174 q 276 143 243 174 q 308 49 308 113 q 289 -64 308 -17 q 240 -141 269 -111 q 177 -187 211 -171 q 113 -208 143 -204 l 113 -140 q 157 -121 136 -135 q 192 -87 178 -107 q 214 -44 206 -67 q 222 3 222 -21 q 212 -2 219 0 q 193 -4 204 -4 q 131 19 157 -4 q 104 86 104 43 m 106 578 q 133 647 106 618 q 201 675 161 675 q 270 647 242 675 q 299 578 299 618 q 270 510 299 538 q 201 482 242 482 q 133 510 161 482 q 106 578 106 538 z "},"<":{"ha":669,"x_min":49,"x_max":621,"o":"m 49 457 l 621 743 l 621 611 l 190 399 l 621 186 l 621 54 l 49 339 l 49 457 z "},"=":{"ha":824,"x_min":90,"x_max":733,"o":"m 90 481 l 90 588 l 733 588 l 733 481 l 90 481 m 90 210 l 90 319 l 733 319 l 733 210 l 90 210 z "},">":{"ha":669,"x_min":49,"x_max":621,"o":"m 621 339 l 49 54 l 49 186 l 482 399 l 49 611 l 49 743 l 621 457 l 621 339 z "},"?":{"ha":708,"x_min":49,"x_max":660,"o":"m 272 282 q 271 306 271 294 q 271 331 271 317 q 297 453 271 400 q 386 547 324 506 l 447 589 q 502 649 483 613 q 521 725 521 685 q 510 784 521 756 q 480 835 500 813 q 428 870 460 857 q 356 883 397 883 q 277 868 310 883 q 224 828 244 853 q 192 771 203 803 q 182 706 182 739 q 185 668 182 688 q 192 638 188 649 l 57 654 q 49 721 49 683 q 67 819 49 768 q 122 911 85 869 q 217 979 160 953 q 356 1006 275 1006 q 485 982 428 1006 q 581 919 542 958 q 640 830 619 881 q 660 726 660 779 q 619 584 660 643 q 518 485 579 525 l 454 442 q 408 384 422 419 q 393 308 393 349 q 393 298 393 303 q 394 282 393 293 l 272 282 m 242 83 q 268 148 242 121 q 332 175 294 175 q 397 148 369 175 q 424 83 424 121 q 397 19 424 46 q 332 -7 369 -7 q 268 19 294 -7 q 242 83 242 46 z "},"@":{"ha":1147,"x_min":63,"x_max":1099,"o":"m 835 190 q 747 212 786 190 q 697 279 708 233 q 621 211 665 235 q 532 188 576 188 q 446 204 485 188 q 378 252 407 221 q 335 327 350 283 q 319 425 319 371 q 342 554 319 494 q 402 657 364 614 q 490 724 440 700 q 597 749 540 749 q 642 743 619 749 q 685 726 665 738 q 722 698 706 715 q 746 657 738 681 l 758 731 l 868 731 l 793 382 q 789 343 789 361 q 801 303 789 319 q 842 286 813 286 q 898 308 871 286 q 946 366 925 329 q 979 450 967 403 q 992 550 992 497 q 964 691 992 626 q 885 803 936 756 q 763 877 835 850 q 603 904 690 904 q 433 872 511 904 q 298 782 356 840 q 208 642 240 724 q 176 461 176 561 q 206 292 176 369 q 293 157 236 214 q 432 68 350 100 q 618 36 514 36 q 767 60 694 36 q 903 133 840 83 l 960 58 q 889 6 929 29 q 803 -33 849 -17 q 710 -57 758 -49 q 618 -65 663 -65 q 394 -27 496 -65 q 218 81 292 11 q 103 247 144 150 q 63 463 63 344 q 106 683 63 583 q 222 855 149 783 q 394 966 296 926 q 601 1006 492 1006 q 798 971 707 1006 q 956 876 889 936 q 1060 732 1022 815 q 1099 551 1099 649 q 1078 408 1099 474 q 1021 293 1057 342 q 937 217 985 244 q 835 190 889 190 m 715 514 q 685 610 715 576 q 599 644 656 644 q 531 627 561 644 q 478 581 500 610 q 445 516 457 553 q 433 440 433 479 q 439 381 433 408 q 458 333 444 353 q 495 301 472 313 q 551 289 518 289 q 616 306 586 289 q 667 352 646 322 q 701 424 689 382 q 715 514 714 465 z "},"A":{"ha":968,"x_min":14,"x_max":954,"o":"m 700 275 l 264 275 l 160 0 l 14 0 l 406 985 l 563 985 l 954 0 l 807 0 l 700 275 m 313 401 l 651 401 l 481 843 l 313 401 z "},"B":{"ha":836,"x_min":125,"x_max":774,"o":"m 446 985 q 572 965 517 985 q 665 909 626 944 q 723 825 703 874 q 743 718 743 776 q 702 584 743 639 q 596 506 661 529 q 671 472 638 494 q 727 417 704 449 q 762 348 750 386 q 774 268 774 310 q 751 160 774 210 q 689 76 729 111 q 593 20 649 40 q 469 0 538 0 l 125 0 l 125 985 l 446 985 m 431 554 q 560 598 514 554 q 606 711 606 642 q 558 824 606 782 q 425 865 510 865 l 261 865 l 261 554 l 431 554 m 450 119 q 584 162 533 119 q 635 276 635 204 q 590 392 635 347 q 456 438 546 438 l 261 438 l 261 119 l 450 119 z "},"C":{"ha":1042,"x_min":63,"x_max":986,"o":"m 551 -21 q 367 13 456 -21 q 212 113 279 47 q 103 274 144 178 q 63 493 63 369 q 104 712 63 617 q 215 872 146 807 q 372 972 283 938 q 551 1006 460 1006 q 707 983 636 1006 q 833 921 778 961 q 927 822 889 881 q 985 693 965 764 l 858 649 q 752 821 831 761 q 551 881 674 881 q 422 856 485 881 q 309 783 358 832 q 231 662 260 735 q 201 493 201 589 q 231 324 201 397 q 309 202 260 251 q 422 128 358 153 q 551 104 485 104 q 665 122 614 104 q 756 172 717 140 q 823 247 796 203 q 865 340 850 290 l 986 296 q 928 168 967 226 q 834 68 889 110 q 708 3 779 26 q 551 -21 636 -21 z "},"D":{"ha":1000,"x_min":125,"x_max":938,"o":"m 463 121 q 592 144 531 121 q 699 213 653 167 q 771 328 744 258 q 797 490 797 397 q 771 653 797 583 q 699 770 744 724 q 594 840 654 817 q 465 864 533 864 l 261 864 l 261 121 l 463 121 m 125 0 l 125 985 l 469 985 q 648 953 563 985 q 797 858 733 921 q 899 703 861 796 q 938 490 938 611 q 899 278 938 369 q 796 124 861 186 q 645 31 731 63 q 467 0 560 0 l 125 0 z "},"E":{"ha":807,"x_min":125,"x_max":724,"o":"m 125 0 l 125 985 l 724 985 l 724 858 l 261 858 l 261 556 l 681 556 l 681 428 l 261 428 l 261 126 l 724 126 l 724 0 l 125 0 z "},"F":{"ha":765,"x_min":125,"x_max":724,"o":"m 125 0 l 125 985 l 724 985 l 724 858 l 261 858 l 261 542 l 681 542 l 681 414 l 261 414 l 261 0 l 125 0 z "},"G":{"ha":1063,"x_min":63,"x_max":986,"o":"m 868 0 l 856 139 q 811 81 839 110 q 744 30 783 53 q 653 -7 704 7 q 540 -21 603 -21 q 361 13 447 -21 q 208 111 275 46 q 102 272 142 176 q 63 493 63 368 q 104 714 63 618 q 215 874 146 810 q 371 972 283 939 q 550 1006 458 1006 q 701 984 631 1006 q 827 924 771 963 q 924 830 883 885 q 986 708 965 775 l 863 656 q 747 822 829 763 q 550 881 665 881 q 421 857 483 881 q 310 785 358 833 q 231 663 261 736 q 201 493 201 590 q 230 322 201 394 q 306 200 258 249 q 416 127 354 151 q 544 103 478 103 q 683 128 626 103 q 776 193 740 154 q 829 277 813 232 q 849 360 846 322 l 507 360 l 507 482 l 978 482 l 978 0 l 868 0 z "},"H":{"ha":1025,"x_min":125,"x_max":900,"o":"m 764 0 l 764 438 l 261 438 l 261 0 l 125 0 l 125 985 l 261 985 l 261 564 l 764 564 l 764 985 l 900 985 l 900 0 l 764 0 z "},"I":{"ha":389,"x_min":125,"x_max":264,"o":"m 125 0 l 125 985 l 264 985 l 264 0 l 125 0 z "},"J":{"ha":742,"x_min":28,"x_max":631,"o":"m 28 357 l 164 388 l 164 294 q 211 151 164 196 q 333 106 258 106 q 451 152 408 106 q 494 285 494 199 l 494 985 l 631 985 l 631 294 q 610 172 631 229 q 551 72 590 115 q 458 4 513 29 q 335 -21 403 -21 q 206 1 263 -21 q 109 65 149 24 q 49 165 69 107 q 28 293 28 222 l 28 357 z "},"K":{"ha":928,"x_min":125,"x_max":907,"o":"m 401 447 l 261 297 l 261 0 l 125 0 l 125 985 l 261 985 l 261 478 l 722 985 l 901 985 l 492 546 l 907 0 l 735 0 l 401 447 z "},"L":{"ha":761,"x_min":125,"x_max":726,"o":"m 125 0 l 125 985 l 261 985 l 261 128 l 726 128 l 726 0 l 125 0 z "},"M":{"ha":1314,"x_min":125,"x_max":1189,"o":"m 1054 0 l 1054 767 l 718 0 l 593 0 l 260 767 l 260 0 l 125 0 l 125 985 l 310 985 l 657 183 l 1007 985 l 1189 985 l 1189 0 l 1054 0 z "},"N":{"ha":1060,"x_min":125,"x_max":935,"o":"m 793 0 l 261 803 l 261 0 l 125 0 l 125 985 l 307 985 l 799 229 l 799 985 l 935 985 l 935 0 l 793 0 z "},"O":{"ha":1114,"x_min":63,"x_max":1051,"o":"m 201 493 q 231 324 201 397 q 310 202 261 251 q 424 128 360 153 q 557 104 488 104 q 690 128 625 104 q 803 202 754 153 q 883 324 853 251 q 913 493 913 397 q 883 662 913 589 q 803 783 853 735 q 690 856 754 832 q 557 881 625 881 q 424 856 488 881 q 310 783 360 832 q 231 662 261 735 q 201 493 201 589 m 63 493 q 105 712 63 617 q 217 872 147 807 q 375 972 286 938 q 557 1006 464 1006 q 739 972 650 1006 q 897 872 828 938 q 1009 712 967 807 q 1051 493 1051 617 q 1009 274 1051 369 q 897 113 967 178 q 739 13 828 47 q 557 -21 650 -21 q 375 13 464 -21 q 217 113 286 47 q 105 274 147 178 q 63 493 63 369 z "},"P":{"ha":829,"x_min":125,"x_max":788,"o":"m 458 525 q 598 570 547 525 q 649 692 649 615 q 598 817 649 771 q 458 863 547 863 l 261 863 l 261 525 l 458 525 m 261 403 l 261 0 l 125 0 l 125 985 l 483 985 q 608 963 551 985 q 703 901 664 940 q 765 808 743 861 q 788 693 788 756 q 765 577 788 631 q 703 485 743 524 q 608 425 664 447 q 483 403 551 403 l 261 403 z "},"Q":{"ha":1114,"x_min":63,"x_max":1051,"o":"m 63 493 q 105 712 63 617 q 217 872 147 807 q 375 972 286 938 q 557 1006 464 1006 q 739 972 650 1006 q 897 872 828 938 q 1009 712 967 807 q 1051 493 1051 617 q 1013 285 1051 375 q 913 129 975 194 l 1028 0 l 935 -82 l 815 50 q 691 -3 757 14 q 557 -21 625 -21 q 375 13 464 -21 q 217 113 286 47 q 105 274 147 178 q 63 493 63 369 m 201 493 q 231 324 201 397 q 310 202 261 251 q 424 128 360 153 q 557 104 488 104 q 729 147 651 104 l 558 339 l 653 421 l 825 226 q 889 341 865 275 q 913 493 913 407 q 883 662 913 589 q 803 783 853 735 q 690 856 754 832 q 557 881 625 881 q 424 856 488 881 q 310 783 360 832 q 231 662 261 735 q 201 493 201 589 z "},"R":{"ha":860,"x_min":125,"x_max":797,"o":"m 410 403 l 263 403 l 263 0 l 125 0 l 125 985 l 496 985 q 622 962 565 985 q 717 899 678 939 q 776 806 756 860 q 797 692 797 753 q 734 509 797 585 q 558 413 671 433 l 793 0 l 635 0 l 410 403 m 471 525 q 606 570 554 525 q 657 692 657 615 q 606 817 657 771 q 471 863 554 863 l 263 863 l 263 525 l 471 525 z "},"S":{"ha":824,"x_min":53,"x_max":761,"o":"m 631 718 q 613 774 626 744 q 574 829 599 804 q 511 870 549 854 q 422 886 474 886 q 346 874 381 886 q 285 839 311 861 q 246 787 260 817 q 232 722 232 757 q 264 631 232 669 q 358 579 296 593 l 506 547 q 695 447 629 519 q 761 271 761 375 q 738 161 761 214 q 669 68 714 108 q 563 3 625 28 q 421 -21 500 -21 q 266 6 332 -21 q 155 74 200 32 q 85 167 110 115 q 53 272 60 219 l 183 314 q 203 234 188 272 q 249 167 219 196 q 322 120 279 138 q 419 103 364 103 q 572 149 521 103 q 622 260 622 194 q 586 355 622 313 q 475 413 550 397 l 335 443 q 162 534 229 467 q 94 713 94 601 q 119 824 94 771 q 188 917 144 876 q 292 981 232 957 q 419 1006 351 1006 q 562 983 503 1006 q 660 924 621 960 q 722 844 700 888 q 753 761 744 801 l 631 718 z "},"T":{"ha":822,"x_min":14,"x_max":808,"o":"m 479 858 l 479 0 l 343 0 l 343 858 l 14 858 l 14 985 l 808 985 l 808 858 l 479 858 z "},"U":{"ha":931,"x_min":111,"x_max":819,"o":"m 465 -21 q 326 2 390 -21 q 213 70 261 25 q 138 182 165 115 q 111 336 111 249 l 111 985 l 246 985 l 246 340 q 303 167 246 228 q 465 106 361 106 q 626 167 569 106 q 683 340 683 228 l 683 985 l 819 985 l 819 336 q 792 182 819 249 q 717 70 765 115 q 605 2 669 25 q 465 -21 540 -21 z "},"V":{"ha":913,"x_min":14,"x_max":899,"o":"m 756 985 l 899 985 l 519 0 l 385 0 l 14 985 l 158 985 l 456 175 l 756 985 z "},"W":{"ha":1394,"x_min":21,"x_max":1374,"o":"m 1233 985 l 1374 985 l 1093 0 l 953 0 l 696 799 l 442 0 l 306 0 l 21 985 l 161 985 l 378 214 l 625 985 l 768 985 l 1021 206 l 1233 985 z "},"X":{"ha":857,"x_min":14,"x_max":843,"o":"m 508 493 l 839 0 l 676 0 l 428 385 l 174 0 l 14 0 l 350 493 l 17 985 l 181 985 l 429 599 l 682 985 l 843 985 l 508 493 z "},"Y":{"ha":858,"x_min":14,"x_max":844,"o":"m 14 985 l 178 985 l 433 546 l 689 985 l 844 985 l 497 421 l 497 0 l 361 0 l 361 421 l 14 985 z "},"Z":{"ha":878,"x_min":63,"x_max":822,"o":"m 63 0 l 63 136 l 650 858 l 76 858 l 76 985 l 815 985 l 815 853 l 225 128 l 822 128 l 822 0 l 63 0 z "},"[":{"ha":400,"x_min":125,"x_max":393,"o":"m 125 -206 l 125 1090 l 393 1090 l 393 985 l 239 985 l 239 -101 l 393 -101 l 393 -206 l 125 -206 z "},"\\":{"ha":603,"x_min":0,"x_max":603,"o":"m 0 985 l 129 985 l 603 0 l 474 0 l 0 985 z "},"]":{"ha":400,"x_min":7,"x_max":275,"o":"m 7 -206 l 7 -101 l 161 -101 l 161 985 l 7 985 l 7 1090 l 275 1090 l 275 -206 l 7 -206 z "},"^":{"ha":724,"x_min":35,"x_max":689,"o":"m 551 492 l 363 850 l 172 492 l 35 492 l 304 986 l 419 986 l 689 492 l 551 492 z "},"_":{"ha":753,"x_min":21,"x_max":732,"o":"m 21 -110 l 21 0 l 732 0 l 732 -110 l 21 -110 z "},"`":{"ha":378,"x_min":47,"x_max":331,"o":"m 47 957 l 211 957 l 331 754 l 222 754 l 47 957 z "},"a":{"ha":726,"x_min":69,"x_max":643,"o":"m 69 179 q 85 259 69 224 q 127 319 100 294 q 192 360 154 344 q 272 382 229 375 l 453 408 q 494 426 483 413 q 504 458 504 440 q 470 542 504 507 q 360 578 436 578 q 253 540 290 578 q 208 443 215 501 l 83 472 q 112 560 89 519 q 171 628 135 600 q 255 673 207 657 q 357 689 303 689 q 485 669 432 689 q 571 615 538 649 q 619 538 604 582 q 635 444 635 493 l 635 110 q 638 39 635 65 q 643 0 640 13 l 515 0 q 510 33 513 13 q 508 90 508 54 q 479 53 497 72 q 435 17 461 33 q 373 -10 408 0 q 293 -21 338 -21 q 201 -4 242 -21 q 131 40 160 13 q 85 103 101 67 q 69 179 69 139 m 311 89 q 387 99 351 89 q 448 133 422 110 q 489 194 474 156 q 504 286 504 232 l 504 317 l 300 286 q 231 255 258 279 q 203 186 203 231 q 232 119 203 149 q 311 89 261 89 z "},"b":{"ha":824,"x_min":111,"x_max":768,"o":"m 111 0 l 111 1006 l 240 1006 l 240 574 q 321 653 264 618 q 461 688 378 688 q 594 660 538 688 q 690 585 651 633 q 749 474 729 538 q 768 338 768 410 q 747 198 768 263 q 687 85 726 133 q 590 10 647 38 q 457 -18 532 -18 q 327 13 382 -18 q 240 97 272 43 l 240 0 l 111 0 m 635 338 q 582 509 635 446 q 438 572 529 572 q 358 556 394 572 q 294 509 321 539 q 253 435 268 479 q 239 338 239 392 q 253 239 239 283 q 294 163 268 194 q 358 115 321 132 q 438 99 394 99 q 581 164 528 99 q 635 338 635 229 z "},"c":{"ha":736,"x_min":56,"x_max":694,"o":"m 392 568 q 315 553 351 568 q 251 510 279 539 q 206 437 222 481 q 189 335 189 393 q 206 234 189 278 q 250 160 222 190 q 315 115 278 131 q 393 100 353 100 q 473 114 440 100 q 527 149 506 128 q 561 194 549 169 q 579 238 574 218 l 694 188 q 658 115 682 151 q 597 47 635 78 q 509 -2 560 17 q 393 -21 458 -21 q 258 6 319 -21 q 151 81 196 33 q 81 194 107 129 q 56 335 56 258 q 81 478 56 413 q 152 590 107 543 q 259 663 197 636 q 392 689 321 689 q 509 670 458 689 q 597 621 560 651 q 656 552 633 590 q 689 476 678 514 l 571 426 q 551 476 564 451 q 517 522 539 501 q 465 555 496 542 q 392 568 435 568 z "},"d":{"ha":817,"x_min":56,"x_max":713,"o":"m 189 336 q 202 241 189 285 q 240 165 215 197 q 301 115 265 133 q 385 97 338 97 q 465 116 429 97 q 526 167 501 135 q 565 243 551 199 q 578 339 578 288 q 527 507 578 443 q 386 571 476 571 q 305 553 342 571 q 242 505 268 536 q 203 431 217 474 q 189 336 189 388 m 579 101 q 503 17 556 53 q 372 -18 451 -18 q 240 9 299 -18 q 141 84 182 36 q 78 197 100 132 q 56 336 56 261 q 78 470 56 407 q 143 581 101 533 q 243 658 185 629 q 372 686 301 686 q 451 676 417 686 q 510 651 485 667 q 551 615 535 635 q 576 574 568 594 l 576 1006 l 706 1006 l 706 124 q 708 42 706 75 q 713 0 711 8 l 586 0 q 581 35 583 11 q 579 90 579 60 l 579 101 z "},"e":{"ha":753,"x_min":57,"x_max":697,"o":"m 561 403 q 513 524 558 475 q 378 574 467 574 q 303 559 336 574 q 248 520 271 544 q 211 465 225 496 q 196 403 197 435 l 561 403 m 693 190 q 652 108 679 146 q 587 41 625 69 q 500 -4 549 13 q 393 -21 451 -21 q 265 3 326 -21 q 158 72 204 26 q 84 185 111 118 q 57 336 57 251 q 83 480 57 415 q 153 591 110 544 q 256 663 197 638 q 376 689 314 689 q 513 663 453 689 q 614 592 574 638 q 676 481 654 546 q 697 339 697 417 q 697 315 697 326 q 694 297 696 304 l 192 297 q 208 215 193 253 q 251 151 224 178 q 315 109 278 124 q 393 94 351 94 q 518 133 475 94 q 581 229 561 172 l 693 190 z "},"f":{"ha":476,"x_min":28,"x_max":449,"o":"m 286 550 l 286 0 l 151 0 l 151 550 l 28 550 l 28 668 l 151 668 l 151 781 q 169 879 151 836 q 216 951 186 922 q 285 995 246 981 q 371 1010 325 1010 q 424 1004 404 1010 q 449 996 444 999 l 449 879 q 430 885 443 882 q 392 888 417 888 q 356 883 375 888 q 322 865 338 878 q 296 831 306 853 q 286 774 286 808 l 286 668 l 447 668 l 447 550 l 286 550 z "},"g":{"ha":803,"x_min":63,"x_max":706,"o":"m 189 -7 q 245 -124 196 -78 q 371 -171 294 -171 q 526 -117 476 -171 q 575 46 575 -62 l 575 142 q 499 64 551 96 q 371 32 446 32 q 248 56 304 32 q 151 123 192 81 q 87 225 110 165 q 64 356 64 285 q 86 483 64 424 q 149 585 108 542 q 245 655 189 629 q 371 681 301 681 q 500 653 449 681 q 576 575 551 625 l 576 668 l 706 668 l 706 50 q 689 -74 706 -14 q 633 -181 672 -135 q 529 -256 593 -228 q 371 -285 465 -285 q 255 -266 308 -285 q 160 -214 201 -247 q 94 -135 119 -181 q 63 -36 68 -90 l 189 -7 m 390 142 q 528 200 475 142 q 581 356 581 258 q 528 511 581 453 q 390 569 475 569 q 250 511 303 569 q 197 356 197 453 q 249 199 197 257 q 390 142 301 142 z "},"h":{"ha":781,"x_min":111,"x_max":683,"o":"m 242 0 l 111 0 l 111 1006 l 242 1006 l 242 590 q 332 665 278 643 q 444 688 386 688 q 549 667 504 688 q 624 612 594 647 q 669 528 654 576 q 683 424 683 479 l 683 0 l 553 0 l 553 401 q 545 467 553 436 q 519 520 538 497 q 470 556 500 543 q 397 569 440 569 q 331 556 360 569 q 283 518 303 542 q 253 463 264 494 q 242 393 243 431 l 242 0 z "},"i":{"ha":351,"x_min":82,"x_max":269,"o":"m 111 0 l 111 668 l 240 668 l 240 0 l 111 0 m 82 921 q 109 988 82 961 q 175 1015 136 1015 q 242 988 215 1015 q 269 921 269 961 q 242 855 269 882 q 175 828 215 828 q 109 855 136 828 q 82 921 82 882 z "},"j":{"ha":353,"x_min":-21,"x_max":269,"o":"m 111 668 l 242 668 l 242 -78 q 193 -227 242 -169 q 57 -285 144 -285 q 3 -281 19 -285 q -21 -275 -14 -278 l -21 -165 q -5 -168 -15 -167 q 21 -169 6 -169 q 92 -144 72 -169 q 111 -72 111 -118 l 111 668 m 82 924 q 109 991 82 964 q 175 1018 136 1018 q 242 991 215 1018 q 269 924 269 964 q 242 858 269 885 q 175 831 215 831 q 109 858 136 831 q 82 924 82 885 z "},"k":{"ha":729,"x_min":111,"x_max":715,"o":"m 425 386 l 715 0 l 551 0 l 333 294 l 240 201 l 240 0 l 111 0 l 111 1006 l 240 1006 l 240 372 l 529 668 l 710 668 l 425 386 z "},"l":{"ha":353,"x_min":111,"x_max":242,"o":"m 111 0 l 111 1006 l 242 1006 l 242 0 l 111 0 z "},"m":{"ha":1190,"x_min":111,"x_max":1093,"o":"m 111 0 l 111 668 l 236 668 l 236 579 q 324 661 268 635 q 439 688 381 688 q 556 657 501 688 q 639 561 611 626 q 739 660 679 633 q 863 688 799 688 q 947 672 906 688 q 1022 626 989 657 q 1074 547 1054 594 q 1093 433 1093 499 l 1093 0 l 964 0 l 964 419 q 930 528 964 485 q 822 572 896 572 q 710 524 753 572 q 668 404 668 476 l 668 0 l 538 0 l 538 419 q 504 528 538 485 q 396 572 471 572 q 283 525 325 572 q 240 403 240 478 l 240 0 l 111 0 z "},"n":{"ha":781,"x_min":111,"x_max":683,"o":"m 242 0 l 111 0 l 111 668 l 239 668 l 239 572 q 331 661 275 635 q 444 688 386 688 q 549 667 504 688 q 624 612 594 647 q 669 528 654 576 q 683 424 683 479 l 683 0 l 553 0 l 553 401 q 545 467 553 436 q 519 520 538 497 q 470 556 500 543 q 397 569 440 569 q 329 555 358 569 q 281 515 300 540 q 251 457 261 490 q 242 386 242 424 l 242 0 z "},"o":{"ha":794,"x_min":56,"x_max":739,"o":"m 397 96 q 476 111 439 96 q 543 157 514 126 q 589 232 572 188 q 606 335 606 276 q 589 437 606 393 q 543 511 572 481 q 476 557 514 542 q 397 572 439 572 q 318 557 356 572 q 251 511 281 542 q 206 437 222 481 q 189 335 189 393 q 206 232 189 276 q 251 157 222 188 q 318 111 281 126 q 397 96 356 96 m 397 689 q 535 662 472 689 q 643 588 597 635 q 714 476 689 540 q 739 335 739 411 q 714 193 739 258 q 643 81 689 128 q 535 6 597 33 q 397 -21 472 -21 q 260 6 322 -21 q 151 81 197 33 q 81 193 106 128 q 56 335 56 258 q 81 476 56 411 q 151 588 106 540 q 260 662 197 635 q 397 689 322 689 z "},"p":{"ha":824,"x_min":111,"x_max":768,"o":"m 111 -264 l 111 668 l 238 668 l 238 564 q 322 649 265 614 q 461 683 379 683 q 594 656 536 683 q 690 582 651 629 q 748 471 728 535 q 768 335 768 407 q 747 196 768 260 q 686 84 726 132 q 588 9 646 36 q 457 -18 531 -18 q 324 14 379 -18 q 240 90 268 46 l 240 -264 l 111 -264 m 635 335 q 621 427 635 385 q 582 501 607 469 q 520 550 557 532 q 438 568 483 568 q 356 550 393 568 q 293 501 319 532 q 253 427 267 469 q 239 335 239 385 q 253 240 239 283 q 293 165 267 196 q 356 116 319 133 q 438 99 393 99 q 519 116 483 99 q 581 165 556 133 q 621 240 607 196 q 635 335 635 283 z "},"q":{"ha":807,"x_min":56,"x_max":710,"o":"m 581 -264 l 581 94 q 501 13 554 43 q 372 -18 447 -18 q 242 10 300 -18 q 142 86 183 38 q 78 199 100 135 q 56 336 56 263 q 77 470 56 407 q 139 581 99 533 q 238 657 179 629 q 369 685 296 685 q 447 674 413 685 q 509 647 482 664 q 554 609 536 631 q 583 565 572 588 l 583 668 l 710 668 l 710 -264 l 581 -264 m 189 336 q 203 241 189 285 q 242 165 217 197 q 304 115 268 133 q 385 97 340 97 q 465 115 429 97 q 528 165 501 133 q 568 241 554 197 q 582 336 582 285 q 568 431 582 388 q 528 504 554 474 q 465 552 501 535 q 385 569 429 569 q 241 505 293 569 q 189 336 189 440 z "},"r":{"ha":510,"x_min":111,"x_max":482,"o":"m 482 536 q 425 540 453 540 q 292 492 343 540 q 242 335 242 444 l 242 0 l 111 0 l 111 668 l 239 668 l 239 551 q 281 615 257 590 q 332 653 306 639 q 386 674 358 668 q 439 679 414 679 q 465 678 453 679 q 482 675 476 676 l 482 536 z "},"s":{"ha":628,"x_min":49,"x_max":565,"o":"m 167 215 q 213 126 174 163 q 322 90 251 90 q 407 117 378 90 q 436 179 436 143 q 414 233 436 211 q 350 265 392 256 l 236 290 q 113 357 157 307 q 69 478 69 407 q 88 559 69 521 q 139 626 107 597 q 215 672 171 656 q 307 689 258 689 q 422 669 375 689 q 497 622 468 650 q 541 563 526 593 q 561 510 556 532 l 446 467 q 436 499 443 479 q 414 535 429 518 q 372 565 399 553 q 307 578 346 578 q 226 551 257 578 q 196 489 196 524 q 272 408 196 425 l 381 385 q 519 313 472 365 q 565 186 565 261 q 550 114 565 150 q 505 47 535 78 q 429 -2 475 17 q 321 -21 383 -21 q 202 -1 251 -21 q 120 47 153 18 q 70 110 88 76 q 49 174 53 144 l 167 215 z "},"t":{"ha":493,"x_min":28,"x_max":431,"o":"m 286 668 l 431 668 l 431 550 l 286 550 l 286 203 q 307 134 286 157 q 379 111 328 111 q 407 113 392 111 q 431 117 422 114 l 431 6 q 399 -2 422 3 q 342 -7 375 -7 q 206 42 256 -7 q 156 183 156 92 l 156 550 l 28 550 l 28 668 l 64 668 q 142 697 118 668 q 167 771 167 726 l 167 879 l 286 879 l 286 668 z "},"u":{"ha":786,"x_min":104,"x_max":682,"o":"m 551 81 q 468 3 524 28 q 354 -21 413 -21 q 249 0 296 -21 q 171 57 203 21 q 122 142 139 93 q 104 247 104 190 l 104 668 l 235 668 l 235 267 q 243 201 235 232 q 269 146 251 169 q 316 108 288 122 q 386 94 344 94 q 505 142 465 94 q 544 265 544 189 l 544 668 l 675 668 l 675 124 q 677 51 675 83 q 682 0 679 18 l 557 0 q 553 35 554 11 q 551 81 551 60 z "},"v":{"ha":697,"x_min":14,"x_max":683,"o":"m 417 0 l 285 0 l 14 668 l 161 668 l 351 153 l 543 668 l 683 668 l 417 0 z "},"w":{"ha":1101,"x_min":21,"x_max":1081,"o":"m 622 668 l 796 165 l 943 668 l 1081 668 l 864 0 l 729 0 l 551 508 l 378 0 l 240 0 l 21 668 l 164 668 l 314 165 l 488 668 l 622 668 z "},"x":{"ha":682,"x_min":14,"x_max":668,"o":"m 263 340 l 22 668 l 181 668 l 344 433 l 506 668 l 660 668 l 422 340 q 451 300 432 326 q 495 240 471 274 q 545 170 519 207 q 595 100 571 133 q 639 40 619 67 q 668 0 658 14 l 511 0 l 339 246 l 169 0 l 14 0 l 263 340 z "},"y":{"ha":726,"x_min":14,"x_max":713,"o":"m 135 -279 l 301 74 l 14 668 l 164 668 l 372 207 l 572 668 l 713 668 l 278 -279 l 135 -279 z "},"z":{"ha":647,"x_min":56,"x_max":592,"o":"m 56 0 l 56 114 l 422 550 l 61 550 l 61 668 l 585 668 l 585 554 l 218 118 l 592 118 l 592 0 l 56 0 z "},"{":{"ha":490,"x_min":63,"x_max":483,"o":"m 63 501 q 121 509 93 501 q 169 533 149 517 q 203 576 190 550 q 215 642 215 603 l 215 832 q 279 1026 215 963 q 465 1090 343 1090 l 483 1090 l 483 986 l 465 986 q 358 951 388 986 q 329 840 329 917 l 329 613 q 290 498 329 542 q 185 442 251 454 q 290 385 251 429 q 329 271 329 342 l 329 44 q 358 -67 329 -32 q 465 -101 388 -101 l 483 -101 l 483 -206 l 465 -206 q 279 -142 343 -206 q 215 53 215 -78 l 215 242 q 203 307 215 281 q 169 350 190 333 q 121 374 149 367 q 63 382 93 382 l 63 501 z "},"|":{"ha":364,"x_min":125,"x_max":239,"o":"m 125 -206 l 125 1090 l 239 1090 l 239 -206 l 125 -206 z "},"}":{"ha":490,"x_min":7,"x_max":428,"o":"m 428 382 q 369 374 397 382 q 321 350 342 367 q 288 307 300 333 q 275 242 275 281 l 275 53 q 211 -142 275 -78 q 25 -206 147 -206 l 7 -206 l 7 -101 l 25 -101 q 132 -67 103 -101 q 161 44 161 -32 l 161 271 q 200 385 161 342 q 306 442 239 429 q 200 498 239 454 q 161 613 161 542 l 161 840 q 132 951 161 917 q 25 986 103 986 l 7 986 l 7 1090 l 25 1090 q 211 1026 147 1090 q 275 832 275 963 l 275 642 q 288 576 275 603 q 321 533 300 550 q 369 509 342 517 q 428 501 397 501 l 428 382 z "},"~":{"ha":792,"x_min":49,"x_max":743,"o":"m 336 367 q 261 388 296 388 q 189 366 222 388 q 128 308 156 344 l 49 372 q 142 470 88 436 q 260 504 196 504 q 325 496 292 504 q 392 468 358 488 l 456 433 q 535 411 494 411 q 607 431 574 411 q 664 488 640 451 l 743 424 q 651 327 704 360 q 535 294 597 294 q 400 332 468 294 l 336 367 z "}," ":{"ha":347,"x_min":0,"x_max":0,"o":""},"¡":{"ha":385,"x_min":101,"x_max":283,"o":"m 274 -301 l 110 -301 l 146 400 l 239 400 l 274 -301 m 101 597 q 128 662 101 635 q 192 689 154 689 q 256 662 229 689 q 283 597 283 635 q 256 533 283 560 q 192 507 229 507 q 128 533 154 507 q 101 597 101 560 z "},"¢":{"ha":753,"x_min":69,"x_max":683,"o":"m 332 0 l 332 131 q 225 169 274 140 q 142 242 176 199 q 89 339 108 285 q 69 456 69 393 q 89 574 69 519 q 143 670 108 628 q 226 740 178 713 q 332 779 274 768 l 332 901 l 438 901 l 438 782 q 531 758 490 776 q 601 712 572 739 q 649 652 631 685 q 678 588 668 619 l 565 542 q 550 580 560 560 q 525 617 540 600 q 488 648 510 635 q 438 668 467 661 l 438 242 q 492 262 469 247 q 532 294 515 276 q 558 330 549 311 q 572 365 568 349 l 683 319 q 652 257 672 289 q 602 199 632 225 q 531 153 572 172 q 438 128 489 133 l 438 0 l 332 0 m 199 456 q 236 319 199 372 q 332 247 274 267 l 332 663 q 237 592 275 643 q 199 456 199 540 z "},"£":{"ha":824,"x_min":90,"x_max":789,"o":"m 196 499 q 167 574 181 535 q 154 663 154 614 q 176 765 154 718 q 234 847 197 813 q 321 901 271 882 q 429 921 371 921 q 563 898 510 921 q 650 839 617 875 q 698 759 683 803 q 715 674 713 715 l 579 650 q 537 765 578 728 q 432 801 496 801 q 378 792 404 801 q 333 766 353 783 q 302 722 314 749 q 290 663 290 696 q 304 578 290 618 q 336 499 318 539 l 606 499 l 606 379 l 372 379 q 374 360 374 369 q 375 342 375 351 q 340 210 375 268 q 243 121 306 153 l 525 121 q 585 133 560 121 q 627 166 611 146 q 651 213 643 186 q 658 268 658 239 l 789 249 q 773 149 789 194 q 728 70 757 103 q 656 19 699 38 q 558 0 613 0 l 90 0 l 90 132 q 202 215 161 161 q 243 326 243 268 q 238 379 243 357 l 99 379 l 99 499 l 196 499 z "},"¤":{"ha":808,"x_min":61,"x_max":747,"o":"m 114 332 q 128 422 114 379 q 165 500 142 464 l 61 607 l 144 689 l 249 581 q 325 617 285 604 q 410 629 365 629 q 564 586 493 629 l 664 689 l 747 607 l 650 506 q 692 425 676 469 q 707 332 707 381 q 692 240 707 283 q 651 161 678 196 l 747 63 l 665 -19 l 568 81 q 493 47 533 58 q 410 35 453 35 q 322 49 364 35 q 244 86 281 63 l 143 -19 l 61 63 l 163 168 q 126 245 139 204 q 114 332 114 286 m 229 332 q 243 258 229 292 q 282 199 257 224 q 340 162 307 175 q 410 149 372 149 q 480 162 447 149 q 536 199 513 175 q 574 258 560 224 q 588 332 588 292 q 574 406 588 372 q 536 463 560 439 q 480 501 513 488 q 410 514 447 514 q 340 501 372 514 q 282 463 307 488 q 243 406 257 439 q 229 332 229 372 z "},"¥":{"ha":808,"x_min":35,"x_max":774,"o":"m 479 215 l 479 0 l 344 0 l 344 215 l 110 215 l 110 315 l 344 315 l 344 426 l 110 426 l 110 525 l 272 525 l 35 900 l 193 900 l 411 538 l 618 900 l 774 900 l 547 525 l 713 525 l 713 426 l 479 426 l 479 315 l 713 315 l 713 215 l 479 215 z "},"¦":{"ha":364,"x_min":125,"x_max":239,"o":"m 239 1090 l 239 536 l 125 536 l 125 1090 l 239 1090 m 239 349 l 239 -206 l 125 -206 l 125 349 l 239 349 z "},"§":{"ha":796,"x_min":118,"x_max":678,"o":"m 672 332 q 661 272 672 300 q 633 222 650 244 q 596 183 617 199 q 556 158 575 167 q 646 69 614 122 q 678 -43 678 15 q 655 -149 678 -101 q 592 -229 632 -196 q 501 -281 553 -262 q 393 -299 450 -299 q 276 -280 326 -299 q 190 -227 225 -261 q 138 -145 156 -193 q 119 -40 121 -97 l 243 -15 q 281 -140 243 -92 q 396 -189 318 -189 q 502 -155 461 -189 q 543 -57 543 -121 q 521 13 543 -18 q 461 64 499 44 l 317 139 q 243 181 278 158 q 182 231 208 203 q 140 294 156 258 q 124 376 124 329 q 135 437 124 408 q 163 488 146 465 q 201 526 181 510 q 242 549 222 542 q 150 639 182 585 q 118 751 118 693 q 141 857 118 810 q 203 937 164 904 q 294 988 243 969 q 403 1006 346 1006 q 521 985 469 1006 q 606 931 572 965 q 658 849 640 896 q 676 749 676 803 l 551 724 q 514 849 551 801 q 400 896 476 896 q 292 860 333 896 q 251 764 251 824 q 335 644 251 688 l 478 569 q 551 526 517 549 q 613 476 586 504 q 656 413 640 449 q 672 332 672 378 m 317 508 q 272 467 293 497 q 250 397 250 436 q 270 329 250 358 q 339 275 290 300 l 478 200 q 523 241 501 211 q 544 311 544 271 q 524 379 544 350 q 456 433 504 408 l 317 508 z "},"¨":{"ha":526,"x_min":53,"x_max":474,"o":"m 53 863 q 76 919 53 896 q 132 943 99 943 q 190 919 167 943 q 214 863 214 896 q 190 805 214 828 q 132 782 167 782 q 76 805 99 782 q 53 863 53 828 m 313 863 q 335 919 313 896 q 393 943 358 943 q 450 919 426 943 q 474 863 474 896 q 450 805 474 828 q 393 782 426 782 q 335 805 358 782 q 313 863 313 828 z "},"©":{"ha":1140,"x_min":63,"x_max":1078,"o":"m 171 493 q 201 330 171 406 q 286 199 232 254 q 413 113 340 144 q 568 81 485 81 q 724 113 651 81 q 850 199 796 144 q 935 330 904 254 q 965 493 965 406 q 935 656 965 581 q 850 786 904 731 q 724 873 796 842 q 568 904 651 904 q 413 873 485 904 q 286 786 340 842 q 201 656 232 731 q 171 493 171 581 m 63 493 q 102 692 63 599 q 210 855 142 785 q 371 965 279 925 q 568 1006 463 1006 q 767 965 674 1006 q 928 855 860 925 q 1038 692 997 785 q 1078 493 1078 599 q 1038 294 1078 388 q 928 131 997 200 q 767 20 860 61 q 568 -21 674 -21 q 371 20 463 -21 q 210 131 279 61 q 102 294 142 200 q 63 493 63 388 m 571 686 q 509 674 539 686 q 456 638 479 663 q 419 578 433 614 q 406 496 406 543 q 419 413 406 449 q 456 353 433 378 q 508 317 478 329 q 572 304 539 304 q 638 315 611 304 q 681 344 664 326 q 709 381 699 361 q 724 417 719 400 l 818 375 q 789 316 808 346 q 739 261 769 286 q 667 221 708 236 q 572 206 625 206 q 462 228 513 206 q 375 289 411 250 q 318 381 339 328 q 297 496 297 433 q 318 612 297 558 q 376 703 339 665 q 463 763 413 742 q 571 785 514 785 q 667 769 625 785 q 738 729 708 754 q 786 673 768 704 q 814 611 804 642 l 717 571 q 701 611 711 590 q 674 648 692 632 q 631 675 656 664 q 571 686 606 686 z "},"ª":{"ha":594,"x_min":92,"x_max":501,"o":"m 92 557 q 133 656 92 619 q 235 700 175 692 l 357 717 q 385 729 378 719 q 393 751 393 739 q 371 806 393 783 q 299 829 349 829 q 227 803 253 829 q 197 739 201 778 l 101 761 q 119 821 104 793 q 160 869 135 849 q 221 903 186 890 q 297 915 256 915 q 389 901 351 915 q 451 863 426 886 q 485 807 475 839 q 496 740 496 775 l 496 506 q 498 458 496 482 q 501 429 500 433 l 403 429 q 399 453 400 438 q 397 490 397 468 q 346 440 382 464 q 251 415 310 415 q 185 427 214 415 q 135 458 156 439 q 103 503 114 478 q 92 557 92 529 m 268 499 q 316 505 293 499 q 356 526 339 511 q 383 567 374 542 q 393 628 393 592 l 393 649 l 261 628 q 215 608 233 624 q 196 563 196 593 q 215 518 196 538 q 268 499 233 499 z "},"«":{"ha":654,"x_min":42,"x_max":626,"o":"m 226 138 l 42 403 l 226 668 l 356 668 l 174 403 l 356 138 l 226 138 m 497 138 l 313 403 l 497 668 l 626 668 l 444 403 l 626 138 l 497 138 z "},"¬":{"ha":796,"x_min":63,"x_max":706,"o":"m 589 207 l 589 478 l 63 478 l 63 592 l 706 592 l 706 207 l 589 207 z "},"­":{"ha":501,"x_min":63,"x_max":439,"o":"m 63 342 l 63 456 l 439 456 l 439 342 l 63 342 z "},"®":{"ha":1140,"x_min":63,"x_max":1078,"o":"m 63 493 q 102 692 63 599 q 210 855 142 785 q 371 965 279 925 q 568 1006 463 1006 q 767 965 674 1006 q 928 855 860 925 q 1038 692 997 785 q 1078 493 1078 599 q 1038 294 1078 388 q 928 131 997 200 q 767 20 860 61 q 568 -21 674 -21 q 371 20 463 -21 q 210 131 279 61 q 102 294 142 200 q 63 493 63 388 m 171 493 q 201 330 171 406 q 286 199 232 254 q 413 113 340 144 q 568 81 485 81 q 724 113 651 81 q 850 199 796 144 q 935 330 904 254 q 965 493 965 406 q 935 656 965 581 q 850 786 904 731 q 724 873 796 842 q 568 904 651 904 q 413 873 485 904 q 286 786 340 842 q 201 656 232 731 q 171 493 171 581 m 576 518 q 649 540 624 518 q 674 600 674 561 q 576 685 674 685 l 504 685 l 504 518 l 576 518 m 504 218 l 399 218 l 399 776 l 592 776 q 667 763 632 776 q 726 726 701 750 q 766 671 751 703 q 781 601 781 639 q 747 499 781 543 q 658 436 713 454 l 783 218 l 663 218 l 546 426 l 504 426 l 504 218 z "},"¯":{"ha":476,"x_min":49,"x_max":428,"o":"m 49 801 l 49 914 l 428 914 l 428 801 l 49 801 z "},"°":{"ha":515,"x_min":35,"x_max":481,"o":"m 150 697 q 181 618 150 649 q 257 588 213 588 q 333 618 303 588 q 364 697 364 649 q 333 775 364 744 q 257 806 303 806 q 181 775 213 806 q 150 697 150 744 m 35 697 q 53 783 35 743 q 101 852 71 822 q 172 899 132 882 q 257 915 213 915 q 342 899 301 915 q 414 852 383 882 q 463 783 444 822 q 481 697 481 743 q 463 611 481 651 q 414 541 444 571 q 342 494 383 511 q 257 478 301 478 q 172 494 213 478 q 101 541 132 511 q 53 611 71 571 q 35 697 35 651 z "},"±":{"ha":788,"x_min":90,"x_max":697,"o":"m 336 536 l 336 725 l 450 725 l 450 536 l 697 536 l 697 429 l 450 429 l 450 243 l 336 243 l 336 429 l 90 429 l 90 536 l 336 536 m 697 181 l 697 71 l 90 71 l 90 181 l 697 181 z "},"²":{"ha":540,"x_min":85,"x_max":457,"o":"m 93 789 q 90 812 90 800 q 89 832 89 824 q 101 894 89 865 q 138 946 114 924 q 195 981 161 968 q 272 994 229 994 q 349 981 315 994 q 406 947 382 968 q 442 896 429 925 q 454 835 454 867 q 428 748 454 786 q 357 682 401 710 l 257 619 q 229 596 242 608 q 214 568 217 583 l 457 568 l 457 478 l 85 478 l 85 496 q 113 609 85 558 q 203 697 140 660 l 286 749 q 346 836 346 785 q 326 885 346 864 q 271 906 307 906 q 213 883 235 906 q 192 825 192 861 q 192 810 192 821 q 196 789 193 799 l 93 789 z "},"³":{"ha":572,"x_min":83,"x_max":489,"o":"m 207 785 l 339 894 l 101 894 l 101 985 l 478 985 l 478 897 l 339 786 q 395 773 368 783 q 443 744 422 763 q 476 697 464 725 q 489 635 489 669 q 474 569 489 600 q 433 516 460 539 q 370 480 407 493 q 288 467 333 467 q 207 479 242 467 q 147 511 172 492 q 105 556 121 531 q 83 610 89 582 l 176 647 q 213 583 183 607 q 286 558 243 558 q 355 581 329 558 q 381 635 381 603 q 351 695 381 678 q 286 713 321 713 q 265 711 275 713 q 247 707 254 710 l 207 785 z "},"´":{"ha":381,"x_min":49,"x_max":333,"o":"m 158 754 l 49 754 l 169 957 l 333 957 l 158 754 z "},"µ":{"ha":793,"x_min":111,"x_max":689,"o":"m 558 81 q 475 3 531 28 q 361 -21 419 -21 q 295 -13 324 -21 q 242 7 267 -6 l 242 -264 l 111 -264 l 111 668 l 242 668 l 242 267 q 250 201 242 232 q 276 146 258 169 q 323 108 294 122 q 393 94 351 94 q 512 142 472 94 q 551 265 551 189 l 551 668 l 682 668 l 682 124 q 684 49 682 83 q 689 0 686 14 l 564 0 q 560 35 561 11 q 558 81 558 60 z "},"¶":{"ha":869,"x_min":49,"x_max":835,"o":"m 456 -279 l 340 -279 l 340 446 l 318 446 q 215 466 264 446 q 128 522 165 486 q 70 606 92 557 q 49 710 49 654 q 74 828 49 776 q 142 914 99 879 q 242 967 185 949 q 363 985 299 985 l 835 985 l 835 872 l 700 872 l 700 -279 l 585 -279 l 585 872 l 456 872 l 456 -279 z "},"·":{"ha":388,"x_min":97,"x_max":290,"o":"m 97 394 q 125 463 97 435 q 193 492 153 492 q 262 463 233 492 q 290 394 290 435 q 262 326 290 354 q 193 299 233 299 q 125 326 153 299 q 97 394 97 354 z "},"¸":{"ha":408,"x_min":44,"x_max":360,"o":"m 114 -86 l 181 19 l 279 19 l 225 -64 q 322 -94 283 -64 q 360 -178 360 -125 q 350 -225 360 -203 q 321 -265 340 -247 q 270 -292 301 -282 q 197 -303 239 -303 q 105 -283 144 -303 q 44 -239 65 -264 l 96 -176 q 134 -207 108 -190 q 196 -224 160 -224 q 241 -212 221 -224 q 261 -178 261 -201 q 245 -146 261 -158 q 200 -133 229 -133 q 160 -140 178 -133 l 114 -86 z "},"¹":{"ha":407,"x_min":69,"x_max":296,"o":"m 189 478 l 189 818 l 69 818 l 69 890 q 156 919 121 892 q 197 985 190 946 l 296 985 l 296 478 l 189 478 z "},"º":{"ha":672,"x_min":93,"x_max":579,"o":"m 336 508 q 432 548 390 508 q 474 665 474 588 q 432 782 474 743 q 336 821 390 821 q 239 782 281 821 q 197 665 197 743 q 239 548 197 588 q 336 508 281 508 m 336 915 q 433 897 389 915 q 510 844 478 878 q 561 765 543 811 q 579 665 579 719 q 561 565 579 611 q 510 486 543 519 q 433 434 478 453 q 336 415 389 415 q 238 434 283 415 q 161 486 193 453 q 111 565 129 519 q 93 665 93 611 q 111 765 93 719 q 161 844 129 811 q 238 897 193 878 q 336 915 283 915 z "},"»":{"ha":654,"x_min":28,"x_max":613,"o":"m 299 138 l 481 403 l 299 668 l 428 668 l 613 403 l 428 138 l 299 138 m 28 138 l 210 403 l 28 668 l 157 668 l 342 403 l 157 138 l 28 138 z "},"¼":{"ha":1083,"x_min":76,"x_max":1014,"o":"m 196 393 l 196 733 l 76 733 l 76 806 q 163 834 128 807 q 204 900 197 861 l 303 900 l 303 393 l 196 393 m 113 0 l 760 900 l 885 900 l 240 0 l 113 0 m 561 203 l 807 508 l 925 508 l 925 192 l 1014 192 l 1014 101 l 925 101 l 925 1 l 818 1 l 818 101 l 561 101 l 561 203 m 818 385 l 664 192 l 818 192 l 818 385 z "},"½":{"ha":1082,"x_min":76,"x_max":1015,"o":"m 111 0 l 758 900 l 883 900 l 239 0 l 111 0 m 196 393 l 196 733 l 76 733 l 76 806 q 163 834 128 807 q 204 900 197 861 l 303 900 l 303 393 l 196 393 m 651 313 q 648 335 649 324 q 647 356 647 347 q 660 418 647 389 q 696 469 672 447 q 753 505 719 492 q 831 518 788 518 q 907 505 874 518 q 964 470 940 492 q 1000 419 988 449 q 1013 358 1013 390 q 986 272 1013 310 q 915 206 960 233 l 815 143 q 788 119 800 132 q 772 92 775 107 l 1015 92 l 1015 1 l 643 1 l 643 19 q 671 133 643 82 q 761 221 699 183 l 844 272 q 904 360 904 308 q 885 408 904 388 q 829 429 865 429 q 772 407 793 429 q 750 349 750 385 q 751 333 750 344 q 754 313 751 322 l 651 313 z "},"¾":{"ha":1181,"x_min":78,"x_max":1111,"o":"m 235 0 l 882 900 l 1007 900 l 363 0 l 235 0 m 201 700 l 333 810 l 96 810 l 96 900 l 472 900 l 472 813 l 333 701 q 390 688 363 699 q 438 659 417 678 q 471 613 458 640 q 483 550 483 585 q 469 485 483 515 q 428 431 454 454 q 365 395 401 408 q 282 382 328 382 q 201 394 236 382 q 141 426 167 407 q 99 472 115 446 q 78 525 83 497 l 171 563 q 208 498 178 522 q 281 474 238 474 q 349 496 324 474 q 375 550 375 518 q 345 610 375 593 q 281 628 315 628 q 259 626 269 628 q 242 622 249 625 l 201 700 m 658 203 l 904 508 l 1022 508 l 1022 192 l 1111 192 l 1111 101 l 1022 101 l 1022 1 l 915 1 l 915 101 l 658 101 l 658 203 m 915 385 l 761 192 l 915 192 l 915 385 z "},"¿":{"ha":708,"x_min":28,"x_max":639,"o":"m 415 401 q 417 378 417 389 q 417 353 417 367 q 390 231 417 283 q 301 136 364 178 l 240 94 q 185 35 204 71 q 167 -42 167 -1 q 177 -101 167 -72 q 208 -151 188 -129 q 259 -187 228 -174 q 332 -200 290 -200 q 410 -185 378 -200 q 464 -144 443 -169 q 495 -87 485 -119 q 506 -22 506 -56 q 503 15 506 -4 q 496 46 500 35 l 631 29 q 639 -37 639 0 q 621 -136 639 -86 q 565 -228 603 -186 q 470 -296 528 -269 q 332 -322 413 -322 q 202 -299 258 -322 q 107 -236 146 -275 q 48 -147 68 -197 q 28 -43 28 -96 q 68 99 28 40 q 169 199 108 158 l 233 242 q 280 299 265 264 q 294 375 294 335 q 294 388 294 382 q 293 401 294 394 l 415 401 m 444 599 q 418 534 444 561 q 354 507 392 507 q 290 534 317 507 q 263 599 263 561 q 290 663 263 636 q 354 689 317 689 q 418 663 392 689 q 444 599 444 636 z "},"À":{"ha":968,"x_min":14,"x_max":954,"o":"m 700 275 l 264 275 l 160 0 l 14 0 l 406 985 l 563 985 l 954 0 l 807 0 l 700 275 m 313 401 l 651 401 l 481 843 l 313 401 m 226 1219 l 406 1219 l 547 1054 l 418 1054 l 226 1219 z "},"Á":{"ha":968,"x_min":14,"x_max":954,"o":"m 700 275 l 264 275 l 160 0 l 14 0 l 406 985 l 563 985 l 954 0 l 807 0 l 700 275 m 313 401 l 651 401 l 481 843 l 313 401 m 547 1054 l 417 1054 l 557 1219 l 738 1219 l 547 1054 z "},"Â":{"ha":968,"x_min":14,"x_max":954,"o":"m 700 275 l 264 275 l 160 0 l 14 0 l 406 985 l 563 985 l 954 0 l 807 0 l 700 275 m 313 401 l 651 401 l 481 843 l 313 401 m 239 1054 l 394 1219 l 561 1219 l 724 1054 l 596 1054 l 478 1143 l 365 1054 l 239 1054 z "},"Ã":{"ha":968,"x_min":14,"x_max":954,"o":"m 700 275 l 264 275 l 160 0 l 14 0 l 406 985 l 563 985 l 954 0 l 807 0 l 700 275 m 313 401 l 651 401 l 481 843 l 313 401 m 703 1201 q 665 1085 703 1124 q 569 1047 628 1047 q 515 1056 539 1047 q 471 1079 492 1064 l 450 1093 q 424 1107 436 1101 q 399 1113 413 1113 q 363 1098 376 1113 q 350 1051 350 1083 l 256 1051 l 256 1074 q 294 1190 256 1151 q 390 1228 332 1228 q 445 1218 419 1228 q 492 1196 471 1208 l 513 1183 q 540 1169 528 1175 q 565 1164 551 1164 q 597 1174 583 1164 q 610 1213 610 1185 l 610 1224 l 703 1224 l 703 1201 z "},"Ä":{"ha":968,"x_min":14,"x_max":954,"o":"m 197 1138 q 221 1196 197 1172 q 279 1219 244 1219 q 338 1196 314 1219 q 361 1138 361 1172 q 338 1079 361 1103 q 279 1056 314 1056 q 221 1079 244 1056 q 197 1138 197 1103 m 601 1138 q 625 1196 601 1172 q 683 1219 649 1219 q 742 1196 718 1219 q 765 1138 765 1172 q 742 1079 765 1103 q 683 1056 718 1056 q 625 1079 649 1056 q 601 1138 601 1103 m 700 275 l 264 275 l 160 0 l 14 0 l 406 985 l 563 985 l 954 0 l 807 0 l 700 275 m 313 401 l 651 401 l 481 843 l 313 401 z "},"Å":{"ha":968,"x_min":14,"x_max":954,"o":"m 313 401 l 651 401 l 481 843 l 313 401 m 551 1056 q 531 1106 551 1085 q 478 1128 510 1128 q 428 1106 449 1128 q 408 1056 408 1085 q 428 1005 408 1025 q 478 985 449 985 q 531 1005 510 985 q 551 1056 551 1025 m 651 1056 q 633 982 651 1015 q 586 925 615 949 l 954 0 l 807 0 l 700 275 l 264 275 l 160 0 l 14 0 l 381 922 q 330 980 349 946 q 311 1056 311 1014 q 325 1122 311 1090 q 362 1175 339 1153 q 416 1210 385 1197 q 481 1224 447 1224 q 547 1210 515 1224 q 601 1175 578 1197 q 638 1122 624 1153 q 651 1056 651 1090 z "},"Æ":{"ha":1425,"x_min":7,"x_max":1342,"o":"m 743 0 l 743 272 l 357 272 l 182 0 l 7 0 l 663 985 l 1342 985 l 1342 858 l 879 858 l 879 556 l 1299 556 l 1299 428 l 879 428 l 879 126 l 1342 126 l 1342 0 l 743 0 m 743 394 l 743 872 l 435 394 l 743 394 z "},"Ç":{"ha":1042,"x_min":63,"x_max":986,"o":"m 469 -86 l 511 -19 q 341 24 422 -12 q 198 126 260 61 q 99 284 136 192 q 63 493 63 376 q 104 712 63 617 q 215 872 146 807 q 372 972 283 938 q 551 1006 460 1006 q 707 983 636 1006 q 833 921 778 961 q 927 822 889 881 q 985 693 965 764 l 858 649 q 752 821 831 761 q 551 881 674 881 q 422 856 485 881 q 309 783 358 832 q 231 662 260 735 q 201 493 201 589 q 231 324 201 397 q 309 202 260 251 q 422 128 358 153 q 551 104 485 104 q 664 122 613 104 q 755 172 715 140 q 822 247 794 203 q 865 340 850 290 l 986 296 q 933 179 968 233 q 851 84 899 125 q 742 17 803 43 q 610 -18 681 -10 l 581 -64 q 677 -94 639 -64 q 715 -178 715 -125 q 706 -225 715 -203 q 676 -265 696 -247 q 626 -292 657 -282 q 553 -303 594 -303 q 460 -283 500 -303 q 400 -239 421 -264 l 451 -176 q 490 -207 464 -190 q 551 -224 515 -224 q 597 -212 576 -224 q 617 -178 617 -201 q 601 -146 617 -158 q 556 -133 585 -133 q 515 -140 533 -133 l 469 -86 z "},"È":{"ha":807,"x_min":125,"x_max":724,"o":"m 125 0 l 125 985 l 724 985 l 724 858 l 261 858 l 261 556 l 681 556 l 681 428 l 261 428 l 261 126 l 724 126 l 724 0 l 125 0 m 207 1219 l 386 1219 l 528 1054 l 399 1054 l 207 1219 z "},"É":{"ha":807,"x_min":125,"x_max":724,"o":"m 125 0 l 125 985 l 724 985 l 724 858 l 261 858 l 261 556 l 681 556 l 681 428 l 261 428 l 261 126 l 724 126 l 724 0 l 125 0 m 456 1054 l 325 1054 l 465 1219 l 646 1219 l 456 1054 z "},"Ê":{"ha":807,"x_min":125,"x_max":724,"o":"m 125 0 l 125 985 l 724 985 l 724 858 l 261 858 l 261 556 l 681 556 l 681 428 l 261 428 l 261 126 l 724 126 l 724 0 l 125 0 m 182 1054 l 338 1219 l 504 1219 l 667 1054 l 539 1054 l 421 1143 l 308 1054 l 182 1054 z "},"Ë":{"ha":807,"x_min":125,"x_max":724,"o":"m 125 0 l 125 985 l 724 985 l 724 858 l 261 858 l 261 556 l 681 556 l 681 428 l 261 428 l 261 126 l 724 126 l 724 0 l 125 0 m 185 1138 q 208 1196 185 1172 q 267 1219 232 1219 q 325 1196 301 1219 q 349 1138 349 1172 q 325 1079 349 1103 q 267 1056 301 1056 q 208 1079 232 1056 q 185 1138 185 1103 m 506 1138 q 529 1196 506 1172 q 588 1219 553 1219 q 646 1196 622 1219 q 669 1138 669 1172 q 646 1079 669 1103 q 588 1056 622 1056 q 529 1079 553 1056 q 506 1138 506 1103 z "},"Ì":{"ha":389,"x_min":-61,"x_max":264,"o":"m 125 0 l 125 985 l 264 985 l 264 0 l 125 0 m -61 1219 l 118 1219 l 260 1054 l 131 1054 l -61 1219 z "},"Í":{"ha":389,"x_min":125,"x_max":451,"o":"m 125 0 l 125 985 l 264 985 l 264 0 l 125 0 m 261 1054 l 131 1054 l 271 1219 l 451 1219 l 261 1054 z "},"Î":{"ha":389,"x_min":-37,"x_max":447,"o":"m 125 0 l 125 985 l 264 985 l 264 0 l 125 0 m -37 1054 l 118 1219 l 285 1219 l 447 1054 l 319 1054 l 201 1143 l 89 1054 l -37 1054 z "},"Ï":{"ha":389,"x_min":17,"x_max":378,"o":"m 125 0 l 125 985 l 264 985 l 264 0 l 125 0 m 17 1138 q 38 1190 17 1169 q 90 1211 58 1211 q 144 1190 122 1211 q 165 1138 165 1169 q 144 1084 165 1106 q 90 1063 122 1063 q 38 1084 58 1063 q 17 1138 17 1106 m 229 1138 q 251 1190 229 1169 q 304 1211 272 1211 q 357 1190 336 1211 q 378 1138 378 1169 q 357 1084 378 1106 q 304 1063 336 1063 q 251 1084 272 1063 q 229 1138 229 1106 z "},"Ð":{"ha":1006,"x_min":25,"x_max":943,"o":"m 131 0 l 131 451 l 25 451 l 25 565 l 131 565 l 131 985 l 475 985 q 653 953 568 985 q 803 858 739 921 q 905 703 867 796 q 943 490 943 611 q 905 278 943 369 q 801 124 867 186 q 651 31 736 63 q 472 0 565 0 l 131 0 m 468 121 q 597 144 536 121 q 704 213 658 167 q 776 328 750 258 q 803 490 803 397 q 776 653 803 583 q 705 770 750 724 q 599 840 660 817 q 471 864 539 864 l 267 864 l 267 565 l 436 565 l 436 451 l 267 451 l 267 121 l 468 121 z "},"Ñ":{"ha":1060,"x_min":125,"x_max":935,"o":"m 793 0 l 261 803 l 261 0 l 125 0 l 125 985 l 307 985 l 799 229 l 799 985 l 935 985 l 935 0 l 793 0 m 754 1201 q 717 1085 754 1124 q 621 1047 679 1047 q 567 1056 590 1047 q 522 1079 543 1064 l 501 1093 q 476 1107 488 1101 q 450 1113 464 1113 q 415 1098 428 1113 q 401 1051 401 1083 l 307 1051 l 307 1074 q 345 1190 307 1151 q 442 1228 383 1228 q 497 1218 471 1228 q 543 1196 522 1208 l 564 1183 q 591 1169 579 1175 q 617 1164 603 1164 q 648 1174 635 1164 q 661 1213 661 1185 l 661 1224 l 754 1224 l 754 1201 z "},"Ò":{"ha":1114,"x_min":63,"x_max":1051,"o":"m 201 493 q 231 324 201 397 q 310 202 261 251 q 424 128 360 153 q 557 104 488 104 q 690 128 625 104 q 803 202 754 153 q 883 324 853 251 q 913 493 913 397 q 883 662 913 589 q 803 783 853 735 q 690 856 754 832 q 557 881 625 881 q 424 856 488 881 q 310 783 360 832 q 231 662 261 735 q 201 493 201 589 m 63 493 q 105 712 63 617 q 217 872 147 807 q 375 972 286 938 q 557 1006 464 1006 q 739 972 650 1006 q 897 872 828 938 q 1009 712 967 807 q 1051 493 1051 617 q 1009 274 1051 369 q 897 113 967 178 q 739 13 828 47 q 557 -21 650 -21 q 375 13 464 -21 q 217 113 286 47 q 105 274 147 178 q 63 493 63 369 m 310 1219 l 489 1219 l 631 1054 l 501 1054 l 310 1219 z "},"Ó":{"ha":1114,"x_min":63,"x_max":1051,"o":"m 201 493 q 231 324 201 397 q 310 202 261 251 q 424 128 360 153 q 557 104 488 104 q 690 128 625 104 q 803 202 754 153 q 883 324 853 251 q 913 493 913 397 q 883 662 913 589 q 803 783 853 735 q 690 856 754 832 q 557 881 625 881 q 424 856 488 881 q 310 783 360 832 q 231 662 261 735 q 201 493 201 589 m 63 493 q 105 712 63 617 q 217 872 147 807 q 375 972 286 938 q 557 1006 464 1006 q 739 972 650 1006 q 897 872 828 938 q 1009 712 967 807 q 1051 493 1051 617 q 1009 274 1051 369 q 897 113 967 178 q 739 13 828 47 q 557 -21 650 -21 q 375 13 464 -21 q 217 113 286 47 q 105 274 147 178 q 63 493 63 369 m 611 1054 l 481 1054 l 621 1219 l 801 1219 l 611 1054 z "},"Ô":{"ha":1114,"x_min":63,"x_max":1051,"o":"m 201 493 q 231 324 201 397 q 310 202 261 251 q 424 128 360 153 q 557 104 488 104 q 690 128 625 104 q 803 202 754 153 q 883 324 853 251 q 913 493 913 397 q 883 662 913 589 q 803 783 853 735 q 690 856 754 832 q 557 881 625 881 q 424 856 488 881 q 310 783 360 832 q 231 662 261 735 q 201 493 201 589 m 63 493 q 105 712 63 617 q 217 872 147 807 q 375 972 286 938 q 557 1006 464 1006 q 739 972 650 1006 q 897 872 828 938 q 1009 712 967 807 q 1051 493 1051 617 q 1009 274 1051 369 q 897 113 967 178 q 739 13 828 47 q 557 -21 650 -21 q 375 13 464 -21 q 217 113 286 47 q 105 274 147 178 q 63 493 63 369 m 315 1054 l 471 1219 l 638 1219 l 800 1054 l 672 1054 l 554 1143 l 442 1054 l 315 1054 z "},"Õ":{"ha":1114,"x_min":63,"x_max":1051,"o":"m 201 493 q 231 324 201 397 q 310 202 261 251 q 424 128 360 153 q 557 104 488 104 q 690 128 625 104 q 803 202 754 153 q 883 324 853 251 q 913 493 913 397 q 883 662 913 589 q 803 783 853 735 q 690 856 754 832 q 557 881 625 881 q 424 856 488 881 q 310 783 360 832 q 231 662 261 735 q 201 493 201 589 m 63 493 q 105 712 63 617 q 217 872 147 807 q 375 972 286 938 q 557 1006 464 1006 q 739 972 650 1006 q 897 872 828 938 q 1009 712 967 807 q 1051 493 1051 617 q 1009 274 1051 369 q 897 113 967 178 q 739 13 828 47 q 557 -21 650 -21 q 375 13 464 -21 q 217 113 286 47 q 105 274 147 178 q 63 493 63 369 m 786 1203 q 749 1087 786 1125 q 653 1049 711 1049 q 599 1057 622 1049 q 554 1081 575 1065 l 533 1094 q 508 1108 519 1103 q 482 1114 496 1114 q 447 1099 460 1114 q 433 1053 433 1085 l 339 1053 l 339 1075 q 377 1191 339 1153 q 474 1229 415 1229 q 528 1219 503 1229 q 575 1197 554 1210 l 596 1185 q 623 1171 611 1176 q 649 1165 635 1165 q 680 1176 667 1165 q 693 1214 693 1186 l 693 1225 l 786 1225 l 786 1203 z "},"Ö":{"ha":1114,"x_min":63,"x_max":1051,"o":"m 260 1138 q 283 1196 260 1172 q 342 1219 307 1219 q 400 1196 376 1219 q 424 1138 424 1172 q 400 1079 424 1103 q 342 1056 376 1056 q 283 1079 307 1056 q 260 1138 260 1103 m 692 1138 q 715 1196 692 1172 q 774 1219 739 1219 q 832 1196 808 1219 q 856 1138 856 1172 q 832 1079 856 1103 q 774 1056 808 1056 q 715 1079 739 1056 q 692 1138 692 1103 m 201 493 q 231 324 201 397 q 310 202 261 251 q 424 128 360 153 q 557 104 488 104 q 690 128 625 104 q 803 202 754 153 q 883 324 853 251 q 913 493 913 397 q 883 662 913 589 q 803 783 853 735 q 690 856 754 832 q 557 881 625 881 q 424 856 488 881 q 310 783 360 832 q 231 662 261 735 q 201 493 201 589 m 63 493 q 105 712 63 617 q 217 872 147 807 q 375 972 286 938 q 557 1006 464 1006 q 739 972 650 1006 q 897 872 828 938 q 1009 712 967 807 q 1051 493 1051 617 q 1009 274 1051 369 q 897 113 967 178 q 739 13 828 47 q 557 -21 650 -21 q 375 13 464 -21 q 217 113 286 47 q 105 274 147 178 q 63 493 63 369 z "},"×":{"ha":736,"x_min":56,"x_max":681,"o":"m 367 319 l 133 78 l 56 156 l 290 400 l 57 642 l 136 721 l 368 479 l 600 721 l 679 643 l 444 400 l 681 156 l 603 76 l 367 319 z "},"Ø":{"ha":1114,"x_min":63,"x_max":1051,"o":"m 63 493 q 105 712 63 617 q 217 872 147 807 q 375 972 286 938 q 557 1006 464 1006 q 695 986 628 1006 q 822 929 763 967 l 922 1057 l 1017 985 l 915 854 q 1015 699 978 789 q 1051 493 1051 608 q 1009 274 1051 369 q 897 113 967 178 q 739 13 828 47 q 557 -21 650 -21 q 421 -2 488 -21 q 294 53 354 17 l 200 -71 l 103 0 l 201 128 q 101 284 139 193 q 63 493 63 375 m 201 493 q 223 345 201 410 q 283 232 244 281 l 744 828 q 557 881 660 881 q 424 856 488 881 q 310 783 360 832 q 231 662 261 735 q 201 493 201 589 m 913 493 q 891 637 913 574 q 833 749 869 700 l 372 153 q 461 116 414 128 q 557 104 508 104 q 690 128 625 104 q 803 202 754 153 q 883 324 853 251 q 913 493 913 397 z "},"Ù":{"ha":931,"x_min":111,"x_max":819,"o":"m 465 -21 q 326 2 390 -21 q 213 70 261 25 q 138 182 165 115 q 111 336 111 249 l 111 985 l 246 985 l 246 340 q 303 167 246 228 q 465 106 361 106 q 626 167 569 106 q 683 340 683 228 l 683 985 l 819 985 l 819 336 q 792 182 819 249 q 717 70 765 115 q 605 2 669 25 q 465 -21 540 -21 m 240 1219 l 419 1219 l 561 1054 l 432 1054 l 240 1219 z "},"Ú":{"ha":931,"x_min":111,"x_max":819,"o":"m 465 -21 q 326 2 390 -21 q 213 70 261 25 q 138 182 165 115 q 111 336 111 249 l 111 985 l 246 985 l 246 340 q 303 167 246 228 q 465 106 361 106 q 626 167 569 106 q 683 340 683 228 l 683 985 l 819 985 l 819 336 q 792 182 819 249 q 717 70 765 115 q 605 2 669 25 q 465 -21 540 -21 m 496 1054 l 365 1054 l 506 1219 l 686 1219 l 496 1054 z "},"Û":{"ha":931,"x_min":111,"x_max":819,"o":"m 465 -21 q 326 2 390 -21 q 213 70 261 25 q 138 182 165 115 q 111 336 111 249 l 111 985 l 246 985 l 246 340 q 303 167 246 228 q 465 106 361 106 q 626 167 569 106 q 683 340 683 228 l 683 985 l 819 985 l 819 336 q 792 182 819 249 q 717 70 765 115 q 605 2 669 25 q 465 -21 540 -21 m 224 1054 l 379 1219 l 546 1219 l 708 1054 l 581 1054 l 463 1143 l 350 1054 l 224 1054 z "},"Ü":{"ha":931,"x_min":111,"x_max":819,"o":"m 231 1138 q 254 1196 231 1172 q 313 1219 278 1219 q 371 1196 347 1219 q 394 1138 394 1172 q 371 1079 394 1103 q 313 1056 347 1056 q 254 1079 278 1056 q 231 1138 231 1103 m 538 1138 q 561 1196 538 1172 q 619 1219 585 1219 q 678 1196 654 1219 q 701 1138 701 1172 q 678 1079 701 1103 q 619 1056 654 1056 q 561 1079 585 1056 q 538 1138 538 1103 m 465 -21 q 326 2 390 -21 q 213 70 261 25 q 138 182 165 115 q 111 336 111 249 l 111 985 l 246 985 l 246 340 q 303 167 246 228 q 465 106 361 106 q 626 167 569 106 q 683 340 683 228 l 683 985 l 819 985 l 819 336 q 792 182 819 249 q 717 70 765 115 q 605 2 669 25 q 465 -21 540 -21 z "},"Ý":{"ha":858,"x_min":14,"x_max":844,"o":"m 14 985 l 178 985 l 433 546 l 689 985 l 844 985 l 497 421 l 497 0 l 361 0 l 361 421 l 14 985 m 458 1054 l 328 1054 l 468 1219 l 649 1219 l 458 1054 z "},"Þ":{"ha":822,"x_min":125,"x_max":788,"o":"m 461 339 q 599 383 550 339 q 649 504 649 428 q 599 628 649 583 q 461 674 550 674 l 261 674 l 261 339 l 461 339 m 261 218 l 261 0 l 125 0 l 125 985 l 261 985 l 261 794 l 476 794 q 601 772 544 794 q 700 712 658 750 q 765 621 742 674 q 788 506 788 568 q 765 390 788 443 q 701 299 742 338 q 603 240 660 261 q 478 218 546 218 l 261 218 z "},"ß":{"ha":788,"x_min":111,"x_max":753,"o":"m 496 476 q 513 436 496 449 q 560 410 531 424 l 608 386 q 710 306 667 358 q 753 181 753 254 q 740 110 753 146 q 698 44 726 74 q 627 -3 669 15 q 526 -21 585 -21 q 420 -1 464 -21 q 349 47 376 18 q 310 110 322 76 q 299 175 299 144 l 414 206 q 419 168 414 189 q 438 129 425 147 q 473 99 451 111 q 526 88 494 88 q 600 115 576 88 q 624 169 624 143 q 606 229 624 206 q 551 271 588 253 l 504 293 q 455 318 481 304 q 408 353 429 332 q 372 402 386 374 q 358 469 358 431 q 382 556 358 519 q 446 619 406 593 l 490 649 q 547 699 525 671 q 569 767 569 728 q 530 853 569 817 q 417 890 490 890 q 349 877 381 890 q 294 838 318 864 q 256 771 269 811 q 242 678 242 731 l 242 0 l 111 0 l 111 685 q 135 821 111 761 q 200 922 158 881 q 297 984 242 963 q 417 1006 353 1006 q 533 988 481 1006 q 622 938 585 969 q 681 863 660 906 q 701 771 701 821 q 691 699 701 731 q 664 642 681 667 q 625 598 647 617 q 579 565 603 579 l 539 540 q 508 515 519 529 q 496 476 496 500 z "},"à":{"ha":726,"x_min":69,"x_max":643,"o":"m 69 179 q 85 259 69 224 q 127 319 100 294 q 192 360 154 344 q 272 382 229 375 l 453 408 q 494 426 483 413 q 504 458 504 440 q 470 542 504 507 q 360 578 436 578 q 253 540 290 578 q 208 443 215 501 l 83 472 q 112 560 89 519 q 171 628 135 600 q 255 673 207 657 q 357 689 303 689 q 485 669 432 689 q 571 615 538 649 q 619 538 604 582 q 635 444 635 493 l 635 110 q 638 39 635 65 q 643 0 640 13 l 515 0 q 510 33 513 13 q 508 90 508 54 q 479 53 497 72 q 435 17 461 33 q 373 -10 408 0 q 293 -21 338 -21 q 201 -4 242 -21 q 131 40 160 13 q 85 103 101 67 q 69 179 69 139 m 311 89 q 387 99 351 89 q 448 133 422 110 q 489 194 474 156 q 504 286 504 232 l 504 317 l 300 286 q 231 255 258 279 q 203 186 203 231 q 232 119 203 149 q 311 89 261 89 m 151 957 l 315 957 l 435 754 l 326 754 l 151 957 z "},"á":{"ha":726,"x_min":69,"x_max":643,"o":"m 69 179 q 85 259 69 224 q 127 319 100 294 q 192 360 154 344 q 272 382 229 375 l 453 408 q 494 426 483 413 q 504 458 504 440 q 470 542 504 507 q 360 578 436 578 q 253 540 290 578 q 208 443 215 501 l 83 472 q 112 560 89 519 q 171 628 135 600 q 255 673 207 657 q 357 689 303 689 q 485 669 432 689 q 571 615 538 649 q 619 538 604 582 q 635 444 635 493 l 635 110 q 638 39 635 65 q 643 0 640 13 l 515 0 q 510 33 513 13 q 508 90 508 54 q 479 53 497 72 q 435 17 461 33 q 373 -10 408 0 q 293 -21 338 -21 q 201 -4 242 -21 q 131 40 160 13 q 85 103 101 67 q 69 179 69 139 m 311 89 q 387 99 351 89 q 448 133 422 110 q 489 194 474 156 q 504 286 504 232 l 504 317 l 300 286 q 231 255 258 279 q 203 186 203 231 q 232 119 203 149 q 311 89 261 89 m 415 754 l 306 754 l 426 957 l 590 957 l 415 754 z "},"â":{"ha":726,"x_min":69,"x_max":643,"o":"m 69 179 q 85 259 69 224 q 127 319 100 294 q 192 360 154 344 q 272 382 229 375 l 453 408 q 494 426 483 413 q 504 458 504 440 q 470 542 504 507 q 360 578 436 578 q 253 540 290 578 q 208 443 215 501 l 83 472 q 112 560 89 519 q 171 628 135 600 q 255 673 207 657 q 357 689 303 689 q 485 669 432 689 q 571 615 538 649 q 619 538 604 582 q 635 444 635 493 l 635 110 q 638 39 635 65 q 643 0 640 13 l 515 0 q 510 33 513 13 q 508 90 508 54 q 479 53 497 72 q 435 17 461 33 q 373 -10 408 0 q 293 -21 338 -21 q 201 -4 242 -21 q 131 40 160 13 q 85 103 101 67 q 69 179 69 139 m 311 89 q 387 99 351 89 q 448 133 422 110 q 489 194 474 156 q 504 286 504 232 l 504 317 l 300 286 q 231 255 258 279 q 203 186 203 231 q 232 119 203 149 q 311 89 261 89 m 150 757 l 294 950 l 443 950 l 588 757 l 465 757 l 368 869 l 271 757 l 150 757 z "},"ã":{"ha":726,"x_min":69,"x_max":643,"o":"m 69 179 q 85 259 69 224 q 127 319 100 294 q 192 360 154 344 q 272 382 229 375 l 453 408 q 494 426 483 413 q 504 458 504 440 q 470 542 504 507 q 360 578 436 578 q 253 540 290 578 q 208 443 215 501 l 83 472 q 112 560 89 519 q 171 628 135 600 q 255 673 207 657 q 357 689 303 689 q 485 669 432 689 q 571 615 538 649 q 619 538 604 582 q 635 444 635 493 l 635 110 q 638 39 635 65 q 643 0 640 13 l 515 0 q 510 33 513 13 q 508 90 508 54 q 479 53 497 72 q 435 17 461 33 q 373 -10 408 0 q 293 -21 338 -21 q 201 -4 242 -21 q 131 40 160 13 q 85 103 101 67 q 69 179 69 139 m 311 89 q 387 99 351 89 q 448 133 422 110 q 489 194 474 156 q 504 286 504 232 l 504 317 l 300 286 q 231 255 258 279 q 203 186 203 231 q 232 119 203 149 q 311 89 261 89 m 586 919 q 548 805 586 842 q 451 768 510 768 q 401 777 424 768 q 360 799 379 786 l 340 811 q 315 825 326 819 q 289 831 303 831 q 259 818 269 831 q 249 771 249 806 l 149 771 l 149 792 q 188 906 149 869 q 285 943 226 943 q 335 934 313 943 q 378 913 358 925 l 397 900 q 422 886 411 892 q 447 881 433 881 q 478 894 468 881 q 488 940 488 907 l 586 940 l 586 919 z "},"ä":{"ha":726,"x_min":69,"x_max":643,"o":"m 69 179 q 85 259 69 224 q 127 319 100 294 q 192 360 154 344 q 272 382 229 375 l 453 408 q 494 426 483 413 q 504 458 504 440 q 470 542 504 507 q 360 578 436 578 q 253 540 290 578 q 208 443 215 501 l 83 472 q 112 560 89 519 q 171 628 135 600 q 255 673 207 657 q 357 689 303 689 q 485 669 432 689 q 571 615 538 649 q 619 538 604 582 q 635 444 635 493 l 635 110 q 638 39 635 65 q 643 0 640 13 l 515 0 q 510 33 513 13 q 508 90 508 54 q 479 53 497 72 q 435 17 461 33 q 373 -10 408 0 q 293 -21 338 -21 q 201 -4 242 -21 q 131 40 160 13 q 85 103 101 67 q 69 179 69 139 m 311 89 q 387 99 351 89 q 448 133 422 110 q 489 194 474 156 q 504 286 504 232 l 504 317 l 300 286 q 231 255 258 279 q 203 186 203 231 q 232 119 203 149 q 311 89 261 89 m 153 863 q 176 919 153 896 q 232 943 199 943 q 290 919 267 943 q 314 863 314 896 q 290 805 314 828 q 232 782 267 782 q 176 805 199 782 q 153 863 153 828 m 413 863 q 435 919 413 896 q 493 943 458 943 q 550 919 526 943 q 574 863 574 896 q 550 805 574 828 q 493 782 526 782 q 435 805 458 782 q 413 863 413 828 z "},"å":{"ha":726,"x_min":69,"x_max":643,"o":"m 69 179 q 85 259 69 224 q 127 319 100 294 q 192 360 154 344 q 272 382 229 375 l 453 408 q 494 426 483 413 q 504 458 504 440 q 470 542 504 507 q 360 578 436 578 q 253 540 290 578 q 208 443 215 501 l 83 472 q 112 560 89 519 q 171 628 135 600 q 255 673 207 657 q 357 689 303 689 q 485 669 432 689 q 571 615 538 649 q 619 538 604 582 q 635 444 635 493 l 635 110 q 638 39 635 65 q 643 0 640 13 l 515 0 q 510 33 513 13 q 508 90 508 54 q 479 53 497 72 q 435 17 461 33 q 373 -10 408 0 q 293 -21 338 -21 q 201 -4 242 -21 q 131 40 160 13 q 85 103 101 67 q 69 179 69 139 m 311 89 q 387 99 351 89 q 448 133 422 110 q 489 194 474 156 q 504 286 504 232 l 504 317 l 300 286 q 231 255 258 279 q 203 186 203 231 q 232 119 203 149 q 311 89 261 89 m 518 890 q 506 831 518 858 q 472 783 493 803 q 423 751 451 763 q 363 739 394 739 q 304 751 332 739 q 255 783 276 763 q 221 831 233 803 q 208 890 208 858 q 221 950 208 922 q 255 999 233 978 q 304 1031 276 1019 q 363 1043 332 1043 q 423 1031 394 1043 q 472 999 451 1019 q 506 950 493 978 q 518 890 518 922 m 429 890 q 410 938 429 918 q 361 958 390 958 q 315 938 333 958 q 296 890 296 918 q 315 843 296 863 q 361 824 333 824 q 410 843 390 824 q 429 890 429 863 z "},"æ":{"ha":1214,"x_min":69,"x_max":1158,"o":"m 1154 190 q 1113 108 1140 146 q 1046 41 1085 69 q 958 -4 1007 13 q 854 -21 910 -21 q 697 16 769 -21 q 576 124 624 53 q 539 72 561 97 q 485 25 517 46 q 409 -8 453 4 q 308 -21 365 -21 q 207 -4 251 -21 q 132 40 163 13 q 85 103 101 67 q 69 179 69 139 q 85 259 69 224 q 127 319 100 294 q 192 360 154 344 q 272 382 229 375 l 465 408 q 508 428 499 414 q 518 458 518 443 q 480 543 518 507 q 365 579 442 579 q 253 540 294 579 q 206 449 213 501 l 83 472 q 115 563 88 522 q 181 631 142 603 q 269 674 221 660 q 365 689 317 689 q 511 658 451 689 q 603 578 571 628 q 708 660 647 631 q 838 689 769 689 q 974 663 914 689 q 1075 592 1035 638 q 1137 481 1115 546 q 1158 339 1158 417 q 1158 316 1158 329 q 1156 297 1157 303 l 653 297 q 670 216 654 253 q 713 152 686 179 q 776 110 740 125 q 854 94 813 94 q 978 133 935 94 q 1040 229 1021 172 l 1154 190 m 318 89 q 388 99 353 89 q 453 133 424 110 q 500 193 482 156 q 518 285 518 231 l 518 317 l 300 286 q 229 254 256 279 q 203 183 203 229 q 233 118 203 147 q 318 89 263 89 m 1022 403 q 973 524 1019 475 q 839 574 926 574 q 765 559 797 574 q 709 520 732 544 q 672 465 686 496 q 657 403 658 435 l 1022 403 z "},"ç":{"ha":736,"x_min":56,"x_max":694,"o":"m 306 -87 l 350 -18 q 231 20 285 -10 q 138 97 178 50 q 77 204 99 143 q 56 335 56 265 q 81 476 56 411 q 152 589 107 542 q 259 663 197 636 q 392 689 321 689 q 509 670 458 689 q 597 621 560 651 q 656 552 633 590 q 689 476 678 514 l 571 426 q 551 476 564 451 q 517 522 539 501 q 465 555 496 542 q 392 568 435 568 q 315 553 351 568 q 251 508 279 538 q 206 435 222 479 q 189 335 189 392 q 206 234 189 278 q 250 160 222 190 q 315 115 278 131 q 393 100 353 100 q 472 114 439 100 q 526 149 504 128 q 560 194 547 169 q 579 238 574 218 l 694 188 q 663 122 683 156 q 613 61 643 89 q 542 13 583 33 q 449 -17 501 -8 l 417 -65 q 513 -96 475 -65 q 551 -179 551 -126 q 513 -265 551 -228 q 389 -301 474 -301 q 297 -283 336 -301 q 236 -240 257 -265 l 288 -178 q 326 -208 300 -192 q 388 -225 351 -225 q 433 -214 413 -225 q 453 -179 453 -203 q 437 -147 453 -160 q 392 -135 421 -135 q 351 -142 369 -135 l 306 -87 z "},"è":{"ha":753,"x_min":57,"x_max":697,"o":"m 561 403 q 513 524 558 475 q 378 574 467 574 q 303 559 336 574 q 248 520 271 544 q 211 465 225 496 q 196 403 197 435 l 561 403 m 693 190 q 652 108 679 146 q 587 41 625 69 q 500 -4 549 13 q 393 -21 451 -21 q 265 3 326 -21 q 158 72 204 26 q 84 185 111 118 q 57 336 57 251 q 83 480 57 415 q 153 591 110 544 q 256 663 197 638 q 376 689 314 689 q 513 663 453 689 q 614 592 574 638 q 676 481 654 546 q 697 339 697 417 q 697 315 697 326 q 694 297 696 304 l 192 297 q 208 215 193 253 q 251 151 224 178 q 315 109 278 124 q 393 94 351 94 q 518 133 475 94 q 581 229 561 172 l 693 190 m 172 957 l 336 957 l 456 754 l 347 754 l 172 957 z "},"é":{"ha":753,"x_min":57,"x_max":697,"o":"m 561 403 q 513 524 558 475 q 378 574 467 574 q 303 559 336 574 q 248 520 271 544 q 211 465 225 496 q 196 403 197 435 l 561 403 m 693 190 q 652 108 679 146 q 587 41 625 69 q 500 -4 549 13 q 393 -21 451 -21 q 265 3 326 -21 q 158 72 204 26 q 84 185 111 118 q 57 336 57 251 q 83 480 57 415 q 153 591 110 544 q 256 663 197 638 q 376 689 314 689 q 513 663 453 689 q 614 592 574 638 q 676 481 654 546 q 697 339 697 417 q 697 315 697 326 q 694 297 696 304 l 192 297 q 208 215 193 253 q 251 151 224 178 q 315 109 278 124 q 393 94 351 94 q 518 133 475 94 q 581 229 561 172 l 693 190 m 429 754 l 319 754 l 440 957 l 604 957 l 429 754 z "},"ê":{"ha":753,"x_min":57,"x_max":697,"o":"m 561 403 q 513 524 558 475 q 378 574 467 574 q 303 559 336 574 q 248 520 271 544 q 211 465 225 496 q 196 403 197 435 l 561 403 m 693 190 q 652 108 679 146 q 587 41 625 69 q 500 -4 549 13 q 393 -21 451 -21 q 265 3 326 -21 q 158 72 204 26 q 84 185 111 118 q 57 336 57 251 q 83 480 57 415 q 153 591 110 544 q 256 663 197 638 q 376 689 314 689 q 513 663 453 689 q 614 592 574 638 q 676 481 654 546 q 697 339 697 417 q 697 315 697 326 q 694 297 696 304 l 192 297 q 208 215 193 253 q 251 151 224 178 q 315 109 278 124 q 393 94 351 94 q 518 133 475 94 q 581 229 561 172 l 693 190 m 169 757 l 314 950 l 463 950 l 607 757 l 485 757 l 388 869 l 290 757 l 169 757 z "},"ë":{"ha":753,"x_min":57,"x_max":697,"o":"m 561 403 q 513 524 558 475 q 378 574 467 574 q 303 559 336 574 q 248 520 271 544 q 211 465 225 496 q 196 403 197 435 l 561 403 m 693 190 q 652 108 679 146 q 587 41 625 69 q 500 -4 549 13 q 393 -21 451 -21 q 265 3 326 -21 q 158 72 204 26 q 84 185 111 118 q 57 336 57 251 q 83 480 57 415 q 153 591 110 544 q 256 663 197 638 q 376 689 314 689 q 513 663 453 689 q 614 592 574 638 q 676 481 654 546 q 697 339 697 417 q 697 315 697 326 q 694 297 696 304 l 192 297 q 208 215 193 253 q 251 151 224 178 q 315 109 278 124 q 393 94 351 94 q 518 133 475 94 q 581 229 561 172 l 693 190 m 175 863 q 198 919 175 896 q 254 943 221 943 q 313 919 289 943 q 336 863 336 896 q 313 805 336 828 q 254 782 289 782 q 198 805 221 782 q 175 863 175 828 m 435 863 q 458 919 435 896 q 515 943 481 943 q 572 919 549 943 q 596 863 596 896 q 572 805 596 828 q 515 782 549 782 q 458 805 481 782 q 435 863 435 828 z "},"ì":{"ha":351,"x_min":-44,"x_max":240,"o":"m -44 957 l 119 957 l 239 754 l 131 754 l -44 957 m 111 0 l 111 668 l 240 668 l 240 0 l 111 0 z "},"í":{"ha":351,"x_min":111,"x_max":403,"o":"m 228 754 l 118 754 l 239 957 l 403 957 l 228 754 m 111 0 l 111 668 l 240 668 l 240 0 l 111 0 z "},"î":{"ha":351,"x_min":-40,"x_max":397,"o":"m 111 0 l 111 668 l 240 668 l 240 0 l 111 0 m -40 757 l 104 950 l 253 950 l 397 757 l 275 757 l 178 869 l 81 757 l -40 757 z "},"ï":{"ha":351,"x_min":6,"x_max":350,"o":"m 111 0 l 111 668 l 240 668 l 240 0 l 111 0 m 6 863 q 26 916 6 894 q 79 938 47 938 q 133 916 111 938 q 154 863 154 894 q 133 810 154 831 q 79 789 111 789 q 26 810 47 789 q 6 863 6 831 m 201 863 q 222 916 201 894 q 275 938 243 938 q 328 916 307 938 q 350 863 350 894 q 328 810 350 831 q 275 789 307 789 q 222 810 243 789 q 201 863 201 831 z "},"ð":{"ha":792,"x_min":56,"x_max":738,"o":"m 547 832 q 621 749 586 796 q 681 643 656 701 q 722 515 707 585 q 738 363 738 446 q 714 211 738 281 q 647 90 690 142 q 540 10 603 39 q 396 -19 476 -19 q 258 6 321 -19 q 151 76 196 31 q 81 182 106 121 q 56 315 56 243 q 83 453 56 392 q 156 557 111 514 q 258 622 200 600 q 376 644 315 644 q 490 627 439 644 q 571 575 540 610 q 511 688 547 639 q 431 774 475 736 l 249 683 l 208 771 l 339 836 q 261 874 300 858 q 183 900 222 889 l 224 1006 q 330 971 264 996 q 465 899 396 946 l 617 975 l 660 888 l 547 832 m 396 97 q 475 111 438 97 q 541 153 513 125 q 586 222 569 181 q 603 315 603 263 q 586 410 603 369 q 541 478 569 450 q 475 519 513 506 q 396 533 438 533 q 317 519 354 533 q 250 476 279 504 q 204 408 221 449 q 188 315 188 368 q 204 222 188 263 q 250 153 221 181 q 317 111 279 125 q 396 97 354 97 z "},"ñ":{"ha":781,"x_min":111,"x_max":683,"o":"m 242 0 l 111 0 l 111 668 l 239 668 l 239 572 q 331 661 275 635 q 444 688 386 688 q 549 667 504 688 q 624 612 594 647 q 669 528 654 576 q 683 424 683 479 l 683 0 l 553 0 l 553 401 q 545 467 553 436 q 519 520 538 497 q 470 556 500 543 q 397 569 440 569 q 329 555 358 569 q 281 515 300 540 q 251 457 261 490 q 242 386 242 424 l 242 0 m 628 919 q 590 805 628 842 q 493 768 551 768 q 443 777 465 768 q 401 799 421 786 l 382 811 q 356 825 368 819 q 331 831 344 831 q 301 818 311 831 q 290 771 290 806 l 190 771 l 190 792 q 229 906 190 869 q 326 943 268 943 q 377 934 354 943 q 419 913 400 925 l 439 900 q 464 886 453 892 q 489 881 475 881 q 519 894 510 881 q 529 940 529 907 l 628 940 l 628 919 z "},"ò":{"ha":794,"x_min":56,"x_max":739,"o":"m 397 96 q 476 111 439 96 q 543 157 514 126 q 589 232 572 188 q 606 335 606 276 q 589 437 606 393 q 543 511 572 481 q 476 557 514 542 q 397 572 439 572 q 318 557 356 572 q 251 511 281 542 q 206 437 222 481 q 189 335 189 393 q 206 232 189 276 q 251 157 222 188 q 318 111 281 126 q 397 96 356 96 m 397 689 q 535 662 472 689 q 643 588 597 635 q 714 476 689 540 q 739 335 739 411 q 714 193 739 258 q 643 81 689 128 q 535 6 597 33 q 397 -21 472 -21 q 260 6 322 -21 q 151 81 197 33 q 81 193 106 128 q 56 335 56 258 q 81 476 56 411 q 151 588 106 540 q 260 662 197 635 q 397 689 322 689 m 174 957 l 338 957 l 457 754 l 349 754 l 174 957 z "},"ó":{"ha":794,"x_min":56,"x_max":739,"o":"m 397 96 q 476 111 439 96 q 543 157 514 126 q 589 232 572 188 q 606 335 606 276 q 589 437 606 393 q 543 511 572 481 q 476 557 514 542 q 397 572 439 572 q 318 557 356 572 q 251 511 281 542 q 206 437 222 481 q 189 335 189 393 q 206 232 189 276 q 251 157 222 188 q 318 111 281 126 q 397 96 356 96 m 397 689 q 535 662 472 689 q 643 588 597 635 q 714 476 689 540 q 739 335 739 411 q 714 193 739 258 q 643 81 689 128 q 535 6 597 33 q 397 -21 472 -21 q 260 6 322 -21 q 151 81 197 33 q 81 193 106 128 q 56 335 56 258 q 81 476 56 411 q 151 588 106 540 q 260 662 197 635 q 397 689 322 689 m 429 754 l 319 754 l 440 957 l 604 957 l 429 754 z "},"ô":{"ha":794,"x_min":56,"x_max":739,"o":"m 397 96 q 476 111 439 96 q 543 157 514 126 q 589 232 572 188 q 606 335 606 276 q 589 437 606 393 q 543 511 572 481 q 476 557 514 542 q 397 572 439 572 q 318 557 356 572 q 251 511 281 542 q 206 437 222 481 q 189 335 189 393 q 206 232 189 276 q 251 157 222 188 q 318 111 281 126 q 397 96 356 96 m 397 689 q 535 662 472 689 q 643 588 597 635 q 714 476 689 540 q 739 335 739 411 q 714 193 739 258 q 643 81 689 128 q 535 6 597 33 q 397 -21 472 -21 q 260 6 322 -21 q 151 81 197 33 q 81 193 106 128 q 56 335 56 258 q 81 476 56 411 q 151 588 106 540 q 260 662 197 635 q 397 689 322 689 m 179 757 l 324 950 l 472 950 l 617 757 l 494 757 l 397 869 l 300 757 l 179 757 z "},"õ":{"ha":794,"x_min":56,"x_max":739,"o":"m 397 96 q 476 111 439 96 q 543 157 514 126 q 589 232 572 188 q 606 335 606 276 q 589 437 606 393 q 543 511 572 481 q 476 557 514 542 q 397 572 439 572 q 318 557 356 572 q 251 511 281 542 q 206 437 222 481 q 189 335 189 393 q 206 232 189 276 q 251 157 222 188 q 318 111 281 126 q 397 96 356 96 m 397 689 q 535 662 472 689 q 643 588 597 635 q 714 476 689 540 q 739 335 739 411 q 714 193 739 258 q 643 81 689 128 q 535 6 597 33 q 397 -21 472 -21 q 260 6 322 -21 q 151 81 197 33 q 81 193 106 128 q 56 335 56 258 q 81 476 56 411 q 151 588 106 540 q 260 662 197 635 q 397 689 322 689 m 618 919 q 580 805 618 842 q 483 768 542 768 q 433 777 456 768 q 392 799 411 786 l 372 811 q 347 825 358 819 q 321 831 335 831 q 291 818 301 831 q 281 771 281 806 l 181 771 l 181 792 q 219 906 181 869 q 317 943 258 943 q 367 934 344 943 q 410 913 390 925 l 429 900 q 454 886 443 892 q 479 881 465 881 q 510 894 500 881 q 519 940 519 907 l 618 940 l 618 919 z "},"ö":{"ha":794,"x_min":56,"x_max":739,"o":"m 397 96 q 476 111 439 96 q 543 157 514 126 q 589 232 572 188 q 606 335 606 276 q 589 437 606 393 q 543 511 572 481 q 476 557 514 542 q 397 572 439 572 q 318 557 356 572 q 251 511 281 542 q 206 437 222 481 q 189 335 189 393 q 206 232 189 276 q 251 157 222 188 q 318 111 281 126 q 397 96 356 96 m 397 689 q 535 662 472 689 q 643 588 597 635 q 714 476 689 540 q 739 335 739 411 q 714 193 739 258 q 643 81 689 128 q 535 6 597 33 q 397 -21 472 -21 q 260 6 322 -21 q 151 81 197 33 q 81 193 106 128 q 56 335 56 258 q 81 476 56 411 q 151 588 106 540 q 260 662 197 635 q 397 689 322 689 m 186 863 q 209 919 186 896 q 265 943 232 943 q 324 919 300 943 q 347 863 347 896 q 324 805 347 828 q 265 782 300 782 q 209 805 232 782 q 186 863 186 828 m 446 863 q 469 919 446 896 q 526 943 492 943 q 583 919 560 943 q 607 863 607 896 q 583 805 607 828 q 526 782 560 782 q 469 805 492 782 q 446 863 446 828 z "},"÷":{"ha":788,"x_min":76,"x_max":711,"o":"m 303 153 q 330 215 303 189 q 393 242 357 242 q 456 215 429 242 q 482 153 482 189 q 456 90 482 117 q 393 63 429 63 q 330 90 357 63 q 303 153 303 117 m 303 646 q 330 708 303 682 q 393 735 357 735 q 456 708 429 735 q 482 646 482 682 q 456 583 482 610 q 393 556 429 556 q 330 583 357 556 q 303 646 303 610 m 76 457 l 711 457 l 711 342 l 76 342 l 76 457 z "},"ø":{"ha":794,"x_min":56,"x_max":739,"o":"m 397 689 q 490 677 446 689 q 571 644 533 665 l 640 735 l 724 668 l 653 576 q 716 468 693 529 q 739 335 739 407 q 714 193 739 258 q 643 81 689 128 q 535 6 597 33 q 397 -21 472 -21 q 305 -9 349 -21 q 225 22 261 3 l 157 -65 l 74 1 l 142 90 q 78 199 101 138 q 56 335 56 261 q 81 476 56 411 q 151 588 106 540 q 260 662 197 635 q 397 689 322 689 m 189 335 q 199 256 189 289 q 224 194 208 222 l 496 547 q 397 572 450 572 q 318 557 356 572 q 251 511 281 542 q 206 437 222 481 q 189 335 189 393 m 397 96 q 476 111 439 96 q 543 157 514 126 q 589 232 572 188 q 606 335 606 276 q 597 410 606 375 q 572 472 588 444 l 300 119 q 397 96 342 96 z "},"ù":{"ha":786,"x_min":104,"x_max":682,"o":"m 551 81 q 468 3 524 28 q 354 -21 413 -21 q 249 0 296 -21 q 171 57 203 21 q 122 142 139 93 q 104 247 104 190 l 104 668 l 235 668 l 235 267 q 243 201 235 232 q 269 146 251 169 q 316 108 288 122 q 386 94 344 94 q 505 142 465 94 q 544 265 544 189 l 544 668 l 675 668 l 675 124 q 677 51 675 83 q 682 0 679 18 l 557 0 q 553 35 554 11 q 551 81 551 60 m 181 957 l 344 957 l 464 754 l 356 754 l 181 957 z "},"ú":{"ha":786,"x_min":104,"x_max":682,"o":"m 551 81 q 468 3 524 28 q 354 -21 413 -21 q 249 0 296 -21 q 171 57 203 21 q 122 142 139 93 q 104 247 104 190 l 104 668 l 235 668 l 235 267 q 243 201 235 232 q 269 146 251 169 q 316 108 288 122 q 386 94 344 94 q 505 142 465 94 q 544 265 544 189 l 544 668 l 675 668 l 675 124 q 677 51 675 83 q 682 0 679 18 l 557 0 q 553 35 554 11 q 551 81 551 60 m 413 754 l 303 754 l 424 957 l 588 957 l 413 754 z "},"û":{"ha":786,"x_min":104,"x_max":682,"o":"m 551 81 q 468 3 524 28 q 354 -21 413 -21 q 249 0 296 -21 q 171 57 203 21 q 122 142 139 93 q 104 247 104 190 l 104 668 l 235 668 l 235 267 q 243 201 235 232 q 269 146 251 169 q 316 108 288 122 q 386 94 344 94 q 505 142 465 94 q 544 265 544 189 l 544 668 l 675 668 l 675 124 q 677 51 675 83 q 682 0 679 18 l 557 0 q 553 35 554 11 q 551 81 551 60 m 171 757 l 315 950 l 464 950 l 608 757 l 486 757 l 389 869 l 292 757 l 171 757 z "},"ü":{"ha":786,"x_min":104,"x_max":682,"o":"m 551 81 q 468 3 524 28 q 354 -21 413 -21 q 249 0 296 -21 q 171 57 203 21 q 122 142 139 93 q 104 247 104 190 l 104 668 l 235 668 l 235 267 q 243 201 235 232 q 269 146 251 169 q 316 108 288 122 q 386 94 344 94 q 505 142 465 94 q 544 265 544 189 l 544 668 l 675 668 l 675 124 q 677 51 675 83 q 682 0 679 18 l 557 0 q 553 35 554 11 q 551 81 551 60 m 178 863 q 201 919 178 896 q 257 943 224 943 q 315 919 292 943 q 339 863 339 896 q 315 805 339 828 q 257 782 292 782 q 201 805 224 782 q 178 863 178 828 m 438 863 q 460 919 438 896 q 518 943 483 943 q 575 919 551 943 q 599 863 599 896 q 575 805 599 828 q 518 782 551 782 q 460 805 483 782 q 438 863 438 828 z "},"ý":{"ha":726,"x_min":14,"x_max":713,"o":"m 135 -279 l 301 74 l 14 668 l 164 668 l 372 207 l 572 668 l 713 668 l 278 -279 l 135 -279 m 393 754 l 283 754 l 404 957 l 568 957 l 393 754 z "},"þ":{"ha":824,"x_min":111,"x_max":768,"o":"m 111 -264 l 111 1006 l 242 1006 l 242 571 q 326 651 269 618 q 461 683 382 683 q 594 656 536 683 q 690 582 651 629 q 748 471 728 535 q 768 335 768 407 q 747 196 768 260 q 686 84 726 132 q 588 9 646 36 q 457 -18 531 -18 q 324 14 379 -18 q 240 90 268 46 l 240 -264 l 111 -264 m 635 335 q 621 427 635 385 q 582 501 607 469 q 520 550 557 532 q 438 568 483 568 q 356 550 393 568 q 293 501 319 532 q 253 427 267 469 q 239 335 239 385 q 253 240 239 283 q 293 165 267 196 q 356 116 319 133 q 438 99 393 99 q 519 116 483 99 q 581 165 556 133 q 621 240 607 196 q 635 335 635 283 z "},"ÿ":{"ha":726,"x_min":14,"x_max":713,"o":"m 135 -279 l 301 74 l 14 668 l 164 668 l 372 207 l 572 668 l 713 668 l 278 -279 l 135 -279 m 153 863 q 176 919 153 896 q 232 943 199 943 q 290 919 267 943 q 314 863 314 896 q 290 805 314 828 q 232 782 267 782 q 176 805 199 782 q 153 863 153 828 m 413 863 q 435 919 413 896 q 493 943 458 943 q 550 919 526 943 q 574 863 574 896 q 550 805 574 828 q 493 782 526 782 q 435 805 458 782 q 413 863 413 828 z "},"Ā":{"ha":968,"x_min":14,"x_max":954,"o":"m 700 275 l 264 275 l 160 0 l 14 0 l 406 985 l 563 985 l 954 0 l 807 0 l 700 275 m 313 401 l 651 401 l 481 843 l 313 401 m 276 1082 l 276 1197 l 683 1197 l 683 1082 l 276 1082 z "},"ā":{"ha":726,"x_min":69,"x_max":643,"o":"m 69 179 q 85 259 69 224 q 127 319 100 294 q 192 360 154 344 q 272 382 229 375 l 453 408 q 494 426 483 413 q 504 458 504 440 q 470 542 504 507 q 360 578 436 578 q 253 540 290 578 q 208 443 215 501 l 83 472 q 112 560 89 519 q 171 628 135 600 q 255 673 207 657 q 357 689 303 689 q 485 669 432 689 q 571 615 538 649 q 619 538 604 582 q 635 444 635 493 l 635 110 q 638 39 635 65 q 643 0 640 13 l 515 0 q 510 33 513 13 q 508 90 508 54 q 479 53 497 72 q 435 17 461 33 q 373 -10 408 0 q 293 -21 338 -21 q 201 -4 242 -21 q 131 40 160 13 q 85 103 101 67 q 69 179 69 139 m 311 89 q 387 99 351 89 q 448 133 422 110 q 489 194 474 156 q 504 286 504 232 l 504 317 l 300 286 q 231 255 258 279 q 203 186 203 231 q 232 119 203 149 q 311 89 261 89 m 174 801 l 174 914 l 553 914 l 553 801 l 174 801 z "},"Ă":{"ha":968,"x_min":14,"x_max":954,"o":"m 700 275 l 264 275 l 160 0 l 14 0 l 406 985 l 563 985 l 954 0 l 807 0 l 700 275 m 313 401 l 651 401 l 481 843 l 313 401 m 482 1047 q 390 1063 429 1047 q 323 1103 350 1078 q 281 1161 296 1129 q 264 1226 265 1193 l 376 1226 q 383 1201 378 1214 q 401 1176 389 1188 q 434 1156 414 1164 q 482 1149 454 1149 q 529 1156 510 1149 q 561 1176 549 1164 q 579 1201 574 1188 q 586 1226 585 1214 l 699 1226 q 682 1161 696 1193 q 641 1103 668 1129 q 574 1063 614 1078 q 482 1047 535 1047 z "},"ă":{"ha":726,"x_min":69,"x_max":643,"o":"m 69 179 q 85 259 69 224 q 127 319 100 294 q 192 360 154 344 q 272 382 229 375 l 453 408 q 494 426 483 413 q 504 458 504 440 q 470 542 504 507 q 360 578 436 578 q 253 540 290 578 q 208 443 215 501 l 83 472 q 112 560 89 519 q 171 628 135 600 q 255 673 207 657 q 357 689 303 689 q 485 669 432 689 q 571 615 538 649 q 619 538 604 582 q 635 444 635 493 l 635 110 q 638 39 635 65 q 643 0 640 13 l 515 0 q 510 33 513 13 q 508 90 508 54 q 479 53 497 72 q 435 17 461 33 q 373 -10 408 0 q 293 -21 338 -21 q 201 -4 242 -21 q 131 40 160 13 q 85 103 101 67 q 69 179 69 139 m 311 89 q 387 99 351 89 q 448 133 422 110 q 489 194 474 156 q 504 286 504 232 l 504 317 l 300 286 q 231 255 258 279 q 203 186 203 231 q 232 119 203 149 q 311 89 261 89 m 360 757 q 274 774 311 757 q 210 818 236 790 q 171 881 185 846 q 157 954 157 917 l 258 954 q 283 893 260 922 q 360 864 307 864 q 435 893 413 864 q 461 954 458 922 l 563 954 q 549 881 563 917 q 511 818 536 846 q 448 774 486 790 q 360 757 410 757 z "},"Ą":{"ha":968,"x_min":14,"x_max":954,"o":"m 313 401 l 651 401 l 481 843 l 313 401 m 725 -160 q 756 -62 725 -100 q 825 0 786 -24 l 807 0 l 700 275 l 264 275 l 160 0 l 14 0 l 406 985 l 563 985 l 954 0 q 914 -22 935 -10 q 876 -51 893 -35 q 847 -89 858 -68 q 836 -135 836 -110 q 859 -185 836 -171 q 910 -200 882 -200 q 936 -199 926 -200 q 954 -194 946 -197 l 954 -289 q 926 -297 940 -294 q 885 -300 911 -300 q 824 -290 853 -300 q 772 -263 794 -281 q 738 -219 750 -246 q 725 -160 725 -193 z "},"ą":{"ha":726,"x_min":69,"x_max":643,"o":"m 311 89 q 387 99 351 89 q 448 133 422 110 q 489 194 474 156 q 504 286 504 232 l 504 317 l 300 286 q 231 255 260 279 q 203 186 203 231 q 232 119 203 149 q 311 89 261 89 m 414 -160 q 445 -61 414 -99 q 515 0 476 -24 q 511 28 514 6 q 508 90 508 50 q 479 53 497 72 q 435 17 461 33 q 373 -10 408 0 q 293 -21 338 -21 q 201 -4 242 -21 q 131 40 160 13 q 85 103 101 67 q 69 179 69 139 q 85 259 69 224 q 127 319 100 294 q 192 360 154 344 q 272 382 229 375 l 453 408 q 494 426 483 413 q 504 458 504 440 q 470 542 504 507 q 360 578 436 578 q 253 540 290 578 q 208 443 215 501 l 83 472 q 112 560 89 519 q 171 628 135 600 q 255 673 207 657 q 357 689 303 689 q 485 669 432 689 q 571 615 538 649 q 619 538 604 582 q 635 444 635 493 l 635 110 q 638 39 635 65 q 643 0 640 13 q 603 -22 624 -10 q 565 -51 582 -35 q 536 -89 547 -68 q 525 -135 525 -110 q 548 -185 525 -171 q 599 -200 571 -200 q 625 -199 615 -200 q 643 -194 635 -197 l 643 -289 q 615 -297 629 -294 q 574 -300 600 -300 q 513 -290 542 -300 q 461 -263 483 -281 q 426 -219 439 -246 q 414 -160 414 -193 z "},"Ć":{"ha":1042,"x_min":63,"x_max":986,"o":"m 551 -21 q 367 13 456 -21 q 212 113 279 47 q 103 274 144 178 q 63 493 63 369 q 104 712 63 617 q 215 872 146 807 q 372 972 283 938 q 551 1006 460 1006 q 707 983 636 1006 q 833 921 778 961 q 927 822 889 881 q 985 693 965 764 l 858 649 q 752 821 831 761 q 551 881 674 881 q 422 856 485 881 q 309 783 358 832 q 231 662 260 735 q 201 493 201 589 q 231 324 201 397 q 309 202 260 251 q 422 128 358 153 q 551 104 485 104 q 665 122 614 104 q 756 172 717 140 q 823 247 796 203 q 865 340 850 290 l 986 296 q 928 168 967 226 q 834 68 889 110 q 708 3 779 26 q 551 -21 636 -21 m 606 1054 l 475 1054 l 615 1219 l 796 1219 l 606 1054 z "},"ć":{"ha":736,"x_min":56,"x_max":694,"o":"m 392 568 q 315 553 351 568 q 251 510 279 539 q 206 437 222 481 q 189 335 189 393 q 206 234 189 278 q 250 160 222 190 q 315 115 278 131 q 393 100 353 100 q 473 114 440 100 q 527 149 506 128 q 561 194 549 169 q 579 238 574 218 l 694 188 q 658 115 682 151 q 597 47 635 78 q 509 -2 560 17 q 393 -21 458 -21 q 258 6 319 -21 q 151 81 196 33 q 81 194 107 129 q 56 335 56 258 q 81 478 56 413 q 152 590 107 543 q 259 663 197 636 q 392 689 321 689 q 509 670 458 689 q 597 621 560 651 q 656 552 633 590 q 689 476 678 514 l 571 426 q 551 476 564 451 q 517 522 539 501 q 465 555 496 542 q 392 568 435 568 m 432 754 l 322 754 l 443 957 l 607 957 l 432 754 z "},"Ĉ":{"ha":1042,"x_min":63,"x_max":986,"o":"m 551 -21 q 367 13 456 -21 q 212 113 279 47 q 103 274 144 178 q 63 493 63 369 q 104 712 63 617 q 215 872 146 807 q 372 972 283 938 q 551 1006 460 1006 q 707 983 636 1006 q 833 921 778 961 q 927 822 889 881 q 985 693 965 764 l 858 649 q 752 821 831 761 q 551 881 674 881 q 422 856 485 881 q 309 783 358 832 q 231 662 260 735 q 201 493 201 589 q 231 324 201 397 q 309 202 260 251 q 422 128 358 153 q 551 104 485 104 q 665 122 614 104 q 756 172 717 140 q 823 247 796 203 q 865 340 850 290 l 986 296 q 928 168 967 226 q 834 68 889 110 q 708 3 779 26 q 551 -21 636 -21 m 315 1054 l 471 1219 l 638 1219 l 800 1054 l 672 1054 l 554 1143 l 442 1054 l 315 1054 z "},"ĉ":{"ha":736,"x_min":56,"x_max":694,"o":"m 392 568 q 315 553 351 568 q 251 510 279 539 q 206 437 222 481 q 189 335 189 393 q 206 234 189 278 q 250 160 222 190 q 315 115 278 131 q 393 100 353 100 q 473 114 440 100 q 527 149 506 128 q 561 194 549 169 q 579 238 574 218 l 694 188 q 658 115 682 151 q 597 47 635 78 q 509 -2 560 17 q 393 -21 458 -21 q 258 6 319 -21 q 151 81 196 33 q 81 194 107 129 q 56 335 56 258 q 81 478 56 413 q 152 590 107 543 q 259 663 197 636 q 392 689 321 689 q 509 670 458 689 q 597 621 560 651 q 656 552 633 590 q 689 476 678 514 l 571 426 q 551 476 564 451 q 517 522 539 501 q 465 555 496 542 q 392 568 435 568 m 172 757 l 317 950 l 465 950 l 610 757 l 488 757 l 390 869 l 293 757 l 172 757 z "},"Ċ":{"ha":1042,"x_min":63,"x_max":986,"o":"m 551 -21 q 367 13 456 -21 q 212 113 279 47 q 103 274 144 178 q 63 493 63 369 q 104 712 63 617 q 215 872 146 807 q 372 972 283 938 q 551 1006 460 1006 q 707 983 636 1006 q 833 921 778 961 q 927 822 889 881 q 985 693 965 764 l 858 649 q 752 821 831 761 q 551 881 674 881 q 422 856 485 881 q 309 783 358 832 q 231 662 260 735 q 201 493 201 589 q 231 324 201 397 q 309 202 260 251 q 422 128 358 153 q 551 104 485 104 q 665 122 614 104 q 756 172 717 140 q 823 247 796 203 q 865 340 850 290 l 986 296 q 928 168 967 226 q 834 68 889 110 q 708 3 779 26 q 551 -21 636 -21 m 463 1136 q 488 1199 463 1172 q 550 1225 514 1225 q 613 1199 586 1225 q 639 1136 639 1172 q 613 1074 639 1100 q 550 1049 586 1049 q 488 1074 514 1049 q 463 1136 463 1100 z "},"ċ":{"ha":736,"x_min":56,"x_max":694,"o":"m 392 568 q 315 553 351 568 q 251 510 279 539 q 206 437 222 481 q 189 335 189 393 q 206 234 189 278 q 250 160 222 190 q 315 115 278 131 q 393 100 353 100 q 473 114 440 100 q 527 149 506 128 q 561 194 549 169 q 579 238 574 218 l 694 188 q 658 115 682 151 q 597 47 635 78 q 509 -2 560 17 q 393 -21 458 -21 q 258 6 319 -21 q 151 81 196 33 q 81 194 107 129 q 56 335 56 258 q 81 478 56 413 q 152 590 107 543 q 259 663 197 636 q 392 689 321 689 q 509 670 458 689 q 597 621 560 651 q 656 552 633 590 q 689 476 678 514 l 571 426 q 551 476 564 451 q 517 522 539 501 q 465 555 496 542 q 392 568 435 568 m 306 856 q 331 917 306 892 q 392 942 356 942 q 453 917 428 942 q 478 856 478 892 q 453 794 478 819 q 392 769 428 769 q 331 794 356 769 q 306 856 306 819 z "},"Č":{"ha":1042,"x_min":63,"x_max":986,"o":"m 551 -21 q 367 13 456 -21 q 212 113 279 47 q 103 274 144 178 q 63 493 63 369 q 104 712 63 617 q 215 872 146 807 q 372 972 283 938 q 551 1006 460 1006 q 707 983 636 1006 q 833 921 778 961 q 927 822 889 881 q 985 693 965 764 l 858 649 q 752 821 831 761 q 551 881 674 881 q 422 856 485 881 q 309 783 358 832 q 231 662 260 735 q 201 493 201 589 q 231 324 201 397 q 309 202 260 251 q 422 128 358 153 q 551 104 485 104 q 665 122 614 104 q 756 172 717 140 q 823 247 796 203 q 865 340 850 290 l 986 296 q 928 168 967 226 q 834 68 889 110 q 708 3 779 26 q 551 -21 636 -21 m 435 1219 l 547 1131 l 665 1219 l 793 1219 l 631 1054 l 464 1054 l 308 1219 l 435 1219 z "},"č":{"ha":736,"x_min":56,"x_max":694,"o":"m 392 568 q 315 553 351 568 q 251 510 279 539 q 206 437 222 481 q 189 335 189 393 q 206 234 189 278 q 250 160 222 190 q 315 115 278 131 q 393 100 353 100 q 473 114 440 100 q 527 149 506 128 q 561 194 549 169 q 579 238 574 218 l 694 188 q 658 115 682 151 q 597 47 635 78 q 509 -2 560 17 q 393 -21 458 -21 q 258 6 319 -21 q 151 81 196 33 q 81 194 107 129 q 56 335 56 258 q 81 478 56 413 q 152 590 107 543 q 259 663 197 636 q 392 689 321 689 q 509 670 458 689 q 597 621 560 651 q 656 552 633 590 q 689 476 678 514 l 571 426 q 551 476 564 451 q 517 522 539 501 q 465 555 496 542 q 392 568 435 568 m 283 954 l 381 842 l 478 954 l 600 954 l 458 757 l 304 757 l 163 954 l 283 954 z "},"Ď":{"ha":1000,"x_min":125,"x_max":938,"o":"m 463 121 q 592 144 531 121 q 699 213 653 167 q 771 328 744 258 q 797 490 797 397 q 771 653 797 583 q 699 770 744 724 q 594 840 654 817 q 465 864 533 864 l 261 864 l 261 121 l 463 121 m 125 0 l 125 985 l 469 985 q 648 953 563 985 q 797 858 733 921 q 899 703 861 796 q 938 490 938 611 q 899 278 938 369 q 796 124 861 186 q 645 31 731 63 q 467 0 560 0 l 125 0 m 376 1219 l 489 1131 l 607 1219 l 735 1219 l 572 1054 l 406 1054 l 250 1219 l 376 1219 z "},"ď":{"ha":824,"x_min":56,"x_max":947,"o":"m 189 336 q 202 241 189 285 q 240 165 215 197 q 301 115 265 133 q 385 97 338 97 q 465 116 429 97 q 526 167 501 135 q 565 243 551 199 q 578 339 578 288 q 527 507 578 443 q 386 571 476 571 q 305 553 342 571 q 242 505 268 536 q 203 431 217 474 q 189 336 189 388 m 579 101 q 503 17 556 53 q 372 -18 451 -18 q 240 9 299 -18 q 141 84 182 36 q 78 197 100 132 q 56 336 56 261 q 78 470 56 407 q 143 581 101 533 q 243 658 185 629 q 372 686 301 686 q 451 676 417 686 q 510 651 485 667 q 551 615 535 635 q 576 574 568 594 l 576 1006 l 706 1006 l 706 124 q 708 42 706 75 q 713 0 711 8 l 586 0 q 581 35 583 11 q 579 90 579 60 l 579 101 m 858 757 l 763 757 l 801 1006 l 947 1006 l 858 757 z "},"Đ":{"ha":1006,"x_min":25,"x_max":943,"o":"m 131 0 l 131 451 l 25 451 l 25 565 l 131 565 l 131 985 l 475 985 q 653 953 568 985 q 803 858 739 921 q 905 703 867 796 q 943 490 943 611 q 905 278 943 369 q 801 124 867 186 q 651 31 736 63 q 472 0 565 0 l 131 0 m 468 121 q 597 144 536 121 q 704 213 658 167 q 776 328 750 258 q 803 490 803 397 q 776 653 803 583 q 705 770 750 724 q 599 840 660 817 q 471 864 539 864 l 267 864 l 267 565 l 436 565 l 436 451 l 267 451 l 267 121 l 468 121 z "},"đ":{"ha":824,"x_min":56,"x_max":813,"o":"m 706 876 l 813 876 l 813 771 l 706 771 l 706 124 q 708 42 706 75 q 713 0 711 8 l 586 0 q 581 35 583 11 q 579 90 579 60 l 579 101 q 503 17 556 53 q 372 -18 451 -18 q 240 9 299 -18 q 141 84 182 36 q 78 197 100 132 q 56 336 56 261 q 78 470 56 407 q 143 581 101 533 q 243 658 185 629 q 372 686 301 686 q 451 676 417 686 q 510 651 485 667 q 551 615 535 635 q 576 574 568 594 l 576 771 l 394 771 l 394 876 l 576 876 l 576 1006 l 706 1006 l 706 876 m 189 336 q 202 241 189 285 q 240 165 215 197 q 301 115 265 133 q 385 97 338 97 q 465 116 429 97 q 526 167 501 135 q 565 243 551 199 q 578 339 578 288 q 527 507 578 443 q 386 571 476 571 q 305 553 342 571 q 242 505 268 536 q 203 431 217 474 q 189 336 189 388 z "},"Ē":{"ha":807,"x_min":125,"x_max":724,"o":"m 125 0 l 125 985 l 724 985 l 724 858 l 261 858 l 261 556 l 681 556 l 681 428 l 261 428 l 261 126 l 724 126 l 724 0 l 125 0 m 217 1082 l 217 1197 l 624 1197 l 624 1082 l 217 1082 z "},"ē":{"ha":753,"x_min":57,"x_max":697,"o":"m 561 403 q 513 524 558 475 q 378 574 467 574 q 303 559 336 574 q 248 520 271 544 q 211 465 225 496 q 196 403 197 435 l 561 403 m 693 190 q 652 108 679 146 q 587 41 625 69 q 500 -4 549 13 q 393 -21 451 -21 q 265 3 326 -21 q 158 72 204 26 q 84 185 111 118 q 57 336 57 251 q 83 480 57 415 q 153 591 110 544 q 256 663 197 638 q 376 689 314 689 q 513 663 453 689 q 614 592 574 638 q 676 481 654 546 q 697 339 697 417 q 697 315 697 326 q 694 297 696 304 l 192 297 q 208 215 193 253 q 251 151 224 178 q 315 109 278 124 q 393 94 351 94 q 518 133 475 94 q 581 229 561 172 l 693 190 m 197 801 l 197 914 l 576 914 l 576 801 l 197 801 z "},"Ĕ":{"ha":807,"x_min":125,"x_max":724,"o":"m 125 0 l 125 985 l 724 985 l 724 858 l 261 858 l 261 556 l 681 556 l 681 428 l 261 428 l 261 126 l 724 126 l 724 0 l 125 0 m 426 1047 q 334 1063 374 1047 q 267 1103 294 1078 q 225 1161 240 1129 q 208 1226 210 1193 l 321 1226 q 328 1201 322 1214 q 346 1176 333 1188 q 378 1156 358 1164 q 426 1149 399 1149 q 474 1156 454 1149 q 506 1176 493 1164 q 524 1201 518 1188 q 531 1226 529 1214 l 643 1226 q 626 1161 640 1193 q 585 1103 613 1129 q 519 1063 558 1078 q 426 1047 479 1047 z "},"ĕ":{"ha":753,"x_min":57,"x_max":697,"o":"m 561 403 q 513 524 558 475 q 378 574 467 574 q 303 559 336 574 q 248 520 271 544 q 211 465 225 496 q 196 403 197 435 l 561 403 m 693 190 q 652 108 679 146 q 587 41 625 69 q 500 -4 549 13 q 393 -21 451 -21 q 265 3 326 -21 q 158 72 204 26 q 84 185 111 118 q 57 336 57 251 q 83 480 57 415 q 153 591 110 544 q 256 663 197 638 q 376 689 314 689 q 513 663 453 689 q 614 592 574 638 q 676 481 654 546 q 697 339 697 417 q 697 315 697 326 q 694 297 696 304 l 192 297 q 208 215 193 253 q 251 151 224 178 q 315 109 278 124 q 393 94 351 94 q 518 133 475 94 q 581 229 561 172 l 693 190 m 386 757 q 300 774 338 757 q 237 818 263 790 q 197 881 211 846 q 183 954 183 917 l 285 954 q 310 893 286 922 q 386 864 333 864 q 462 893 439 864 q 488 954 485 922 l 589 954 q 576 881 589 917 q 538 818 563 846 q 474 774 513 790 q 386 757 436 757 z "},"Ė":{"ha":807,"x_min":125,"x_max":724,"o":"m 125 0 l 125 985 l 724 985 l 724 858 l 261 858 l 261 556 l 681 556 l 681 428 l 261 428 l 261 126 l 724 126 l 724 0 l 125 0 m 338 1136 q 363 1199 338 1172 q 425 1225 389 1225 q 488 1199 461 1225 q 514 1136 514 1172 q 488 1074 514 1100 q 425 1049 461 1049 q 363 1074 389 1049 q 338 1136 338 1100 z "},"ė":{"ha":753,"x_min":57,"x_max":697,"o":"m 561 403 q 513 524 558 475 q 378 574 467 574 q 303 559 336 574 q 248 520 271 544 q 211 465 225 496 q 196 403 197 435 l 561 403 m 693 190 q 652 108 679 146 q 587 41 625 69 q 500 -4 549 13 q 393 -21 451 -21 q 265 3 326 -21 q 158 72 204 26 q 84 185 111 118 q 57 336 57 251 q 83 480 57 415 q 153 591 110 544 q 256 663 197 638 q 376 689 314 689 q 513 663 453 689 q 614 592 574 638 q 676 481 654 546 q 697 339 697 417 q 697 315 697 326 q 694 297 696 304 l 192 297 q 208 215 193 253 q 251 151 224 178 q 315 109 278 124 q 393 94 351 94 q 518 133 475 94 q 581 229 561 172 l 693 190 m 301 856 q 326 917 301 892 q 388 942 351 942 q 449 917 424 942 q 474 856 474 892 q 449 794 474 819 q 388 769 424 769 q 326 794 351 769 q 301 856 301 819 z "},"Ę":{"ha":807,"x_min":125,"x_max":724,"o":"m 494 -160 q 525 -62 494 -100 q 594 0 556 -24 l 125 0 l 125 985 l 724 985 l 724 858 l 261 858 l 261 556 l 681 556 l 681 428 l 261 428 l 261 126 l 724 126 l 724 0 q 683 -22 704 -10 q 645 -51 663 -35 q 617 -89 628 -68 q 606 -135 606 -110 q 628 -185 606 -171 q 679 -200 651 -200 q 706 -199 696 -200 q 724 -194 715 -197 l 724 -289 q 695 -297 710 -294 q 654 -300 681 -300 q 593 -290 622 -300 q 542 -263 564 -281 q 507 -219 519 -246 q 494 -160 494 -193 z "},"ę":{"ha":753,"x_min":57,"x_max":697,"o":"m 443 -299 q 382 -289 411 -299 q 331 -262 353 -279 q 296 -218 308 -244 q 283 -158 283 -192 q 304 -76 283 -110 q 354 -19 325 -43 q 240 15 293 -12 q 145 87 186 42 q 81 194 104 132 q 57 336 57 257 q 83 480 57 415 q 153 591 110 544 q 256 663 197 638 q 376 689 314 689 q 513 663 453 689 q 614 592 574 638 q 676 481 654 546 q 697 339 697 417 q 697 323 697 333 q 694 297 697 313 l 192 297 q 209 216 193 253 q 252 152 225 179 q 315 110 279 125 q 393 94 351 94 q 518 133 475 94 q 581 229 561 172 l 693 190 q 622 72 672 124 q 499 -4 572 19 q 424 -51 454 -19 q 394 -126 394 -82 q 417 -183 394 -167 q 468 -199 440 -199 q 513 -193 492 -199 l 513 -287 q 484 -296 499 -293 q 443 -299 469 -299 m 561 403 q 512 524 558 475 q 378 574 465 574 q 303 559 336 574 q 248 520 271 544 q 211 465 225 496 q 196 403 197 435 l 561 403 z "},"Ě":{"ha":807,"x_min":125,"x_max":724,"o":"m 125 0 l 125 985 l 724 985 l 724 858 l 261 858 l 261 556 l 681 556 l 681 428 l 261 428 l 261 126 l 724 126 l 724 0 l 125 0 m 319 1219 l 432 1131 l 550 1219 l 678 1219 l 515 1054 l 349 1054 l 193 1219 l 319 1219 z "},"ě":{"ha":753,"x_min":57,"x_max":697,"o":"m 561 403 q 513 524 558 475 q 378 574 467 574 q 303 559 336 574 q 248 520 271 544 q 211 465 225 496 q 196 403 197 435 l 561 403 m 693 190 q 652 108 679 146 q 587 41 625 69 q 500 -4 549 13 q 393 -21 451 -21 q 265 3 326 -21 q 158 72 204 26 q 84 185 111 118 q 57 336 57 251 q 83 480 57 415 q 153 591 110 544 q 256 663 197 638 q 376 689 314 689 q 513 663 453 689 q 614 592 574 638 q 676 481 654 546 q 697 339 697 417 q 697 315 697 326 q 694 297 696 304 l 192 297 q 208 215 193 253 q 251 151 224 178 q 315 109 278 124 q 393 94 351 94 q 518 133 475 94 q 581 229 561 172 l 693 190 m 289 954 l 386 842 l 483 954 l 606 954 l 464 757 l 310 757 l 168 954 l 289 954 z "},"Ĝ":{"ha":1063,"x_min":63,"x_max":986,"o":"m 868 0 l 856 139 q 811 81 839 110 q 744 30 783 53 q 653 -7 704 7 q 540 -21 603 -21 q 361 13 447 -21 q 208 111 275 46 q 102 272 142 176 q 63 493 63 368 q 104 714 63 618 q 215 874 146 810 q 371 972 283 939 q 550 1006 458 1006 q 701 984 631 1006 q 827 924 771 963 q 924 830 883 885 q 986 708 965 775 l 863 656 q 747 822 829 763 q 550 881 665 881 q 421 857 483 881 q 310 785 358 833 q 231 663 261 736 q 201 493 201 590 q 230 322 201 394 q 306 200 258 249 q 416 127 354 151 q 544 103 478 103 q 683 128 626 103 q 776 193 740 154 q 829 277 813 232 q 849 360 846 322 l 507 360 l 507 482 l 978 482 l 978 0 l 868 0 m 308 1054 l 464 1219 l 631 1219 l 793 1054 l 665 1054 l 547 1143 l 435 1054 l 308 1054 z "},"ĝ":{"ha":803,"x_min":63,"x_max":706,"o":"m 189 -7 q 245 -124 196 -78 q 371 -171 294 -171 q 526 -117 476 -171 q 575 46 575 -62 l 575 142 q 499 64 551 96 q 371 32 446 32 q 248 56 304 32 q 151 123 192 81 q 87 225 110 165 q 64 356 64 285 q 86 483 64 424 q 149 585 108 542 q 245 655 189 629 q 371 681 301 681 q 500 653 449 681 q 576 575 551 625 l 576 668 l 706 668 l 706 50 q 689 -74 706 -14 q 633 -181 672 -135 q 529 -256 593 -228 q 371 -285 465 -285 q 255 -266 308 -285 q 160 -214 201 -247 q 94 -135 119 -181 q 63 -36 68 -90 l 189 -7 m 390 142 q 528 200 475 142 q 581 356 581 258 q 528 511 581 453 q 390 569 475 569 q 250 511 303 569 q 197 356 197 453 q 249 199 197 257 q 390 142 301 142 m 175 757 l 319 950 l 468 950 l 613 757 l 490 757 l 393 869 l 296 757 l 175 757 z "},"Ğ":{"ha":1063,"x_min":63,"x_max":986,"o":"m 868 0 l 856 139 q 811 81 839 110 q 744 30 783 53 q 653 -7 704 7 q 540 -21 603 -21 q 361 13 447 -21 q 208 111 275 46 q 102 272 142 176 q 63 493 63 368 q 104 714 63 618 q 215 874 146 810 q 371 972 283 939 q 550 1006 458 1006 q 701 984 631 1006 q 827 924 771 963 q 924 830 883 885 q 986 708 965 775 l 863 656 q 747 822 829 763 q 550 881 665 881 q 421 857 483 881 q 310 785 358 833 q 231 663 261 736 q 201 493 201 590 q 230 322 201 394 q 306 200 258 249 q 416 127 354 151 q 544 103 478 103 q 683 128 626 103 q 776 193 740 154 q 829 277 813 232 q 849 360 846 322 l 507 360 l 507 482 l 978 482 l 978 0 l 868 0 m 542 1047 q 449 1063 489 1047 q 383 1103 410 1078 q 340 1161 356 1129 q 324 1226 325 1193 l 436 1226 q 443 1201 438 1214 q 461 1176 449 1188 q 494 1156 474 1164 q 542 1149 514 1149 q 589 1156 569 1149 q 621 1176 608 1164 q 639 1201 633 1188 q 646 1226 644 1214 l 758 1226 q 742 1161 756 1193 q 701 1103 728 1129 q 634 1063 674 1078 q 542 1047 594 1047 z "},"ğ":{"ha":803,"x_min":63,"x_max":706,"o":"m 189 -7 q 245 -124 196 -78 q 371 -171 294 -171 q 526 -117 476 -171 q 575 46 575 -62 l 575 142 q 499 64 551 96 q 371 32 446 32 q 248 56 304 32 q 151 123 192 81 q 87 225 110 165 q 64 356 64 285 q 86 483 64 424 q 149 585 108 542 q 245 655 189 629 q 371 681 301 681 q 500 653 449 681 q 576 575 551 625 l 576 668 l 706 668 l 706 50 q 689 -74 706 -14 q 633 -181 672 -135 q 529 -256 593 -228 q 371 -285 465 -285 q 255 -266 308 -285 q 160 -214 201 -247 q 94 -135 119 -181 q 63 -36 68 -90 l 189 -7 m 390 142 q 528 200 475 142 q 581 356 581 258 q 528 511 581 453 q 390 569 475 569 q 250 511 303 569 q 197 356 197 453 q 249 199 197 257 q 390 142 301 142 m 385 757 q 299 774 336 757 q 235 818 261 790 q 196 881 210 846 q 182 954 182 917 l 283 954 q 308 893 285 922 q 385 864 332 864 q 460 893 438 864 q 486 954 483 922 l 588 954 q 574 881 588 917 q 536 818 561 846 q 473 774 511 790 q 385 757 435 757 z "},"Ġ":{"ha":1063,"x_min":63,"x_max":986,"o":"m 868 0 l 856 139 q 811 81 839 110 q 744 30 783 53 q 653 -7 704 7 q 540 -21 603 -21 q 361 13 447 -21 q 208 111 275 46 q 102 272 142 176 q 63 493 63 368 q 104 714 63 618 q 215 874 146 810 q 371 972 283 939 q 550 1006 458 1006 q 701 984 631 1006 q 827 924 771 963 q 924 830 883 885 q 986 708 965 775 l 863 656 q 747 822 829 763 q 550 881 665 881 q 421 857 483 881 q 310 785 358 833 q 231 663 261 736 q 201 493 201 590 q 230 322 201 394 q 306 200 258 249 q 416 127 354 151 q 544 103 478 103 q 683 128 626 103 q 776 193 740 154 q 829 277 813 232 q 849 360 846 322 l 507 360 l 507 482 l 978 482 l 978 0 l 868 0 m 460 1136 q 485 1199 460 1172 q 547 1225 511 1225 q 610 1199 583 1225 q 636 1136 636 1172 q 610 1074 636 1100 q 547 1049 583 1049 q 485 1074 511 1049 q 460 1136 460 1100 z "},"ġ":{"ha":803,"x_min":63,"x_max":706,"o":"m 189 -7 q 245 -124 196 -78 q 371 -171 294 -171 q 526 -117 476 -171 q 575 46 575 -62 l 575 142 q 499 64 551 96 q 371 32 446 32 q 248 56 304 32 q 151 123 192 81 q 87 225 110 165 q 64 356 64 285 q 86 483 64 424 q 149 585 108 542 q 245 655 189 629 q 371 681 301 681 q 500 653 449 681 q 576 575 551 625 l 576 668 l 706 668 l 706 50 q 689 -74 706 -14 q 633 -181 672 -135 q 529 -256 593 -228 q 371 -285 465 -285 q 255 -266 308 -285 q 160 -214 201 -247 q 94 -135 119 -181 q 63 -36 68 -90 l 189 -7 m 390 142 q 528 200 475 142 q 581 356 581 258 q 528 511 581 453 q 390 569 475 569 q 250 511 303 569 q 197 356 197 453 q 249 199 197 257 q 390 142 301 142 m 300 856 q 325 917 300 892 q 386 942 350 942 q 447 917 422 942 q 472 856 472 892 q 447 794 472 819 q 386 769 422 769 q 325 794 350 769 q 300 856 300 819 z "},"Ģ":{"ha":1063,"x_min":63,"x_max":986,"o":"m 868 0 l 856 139 q 811 81 839 110 q 744 30 783 53 q 653 -7 704 7 q 540 -21 603 -21 q 361 13 447 -21 q 208 111 275 46 q 102 272 142 176 q 63 493 63 368 q 104 714 63 618 q 215 874 146 810 q 371 972 283 939 q 550 1006 458 1006 q 701 984 631 1006 q 827 924 771 963 q 924 830 883 885 q 986 708 965 775 l 863 656 q 747 822 829 763 q 550 881 665 881 q 421 857 483 881 q 310 785 358 833 q 231 663 261 736 q 201 493 201 590 q 230 322 201 394 q 306 200 258 249 q 416 127 354 151 q 544 103 478 103 q 683 128 626 103 q 776 193 740 154 q 829 277 813 232 q 849 360 846 322 l 507 360 l 507 482 l 978 482 l 978 0 l 868 0 m 458 -122 q 483 -70 458 -90 q 540 -50 508 -50 q 601 -73 571 -50 q 631 -151 631 -96 q 617 -221 631 -192 q 580 -269 603 -250 q 528 -298 557 -289 q 472 -307 500 -307 l 472 -251 q 534 -231 508 -251 q 563 -185 560 -210 q 551 -190 560 -187 q 533 -193 543 -193 q 480 -176 501 -193 q 458 -122 458 -158 z "},"ģ":{"ha":803,"x_min":63,"x_max":706,"o":"m 189 -7 q 245 -124 196 -78 q 371 -171 294 -171 q 526 -117 476 -171 q 575 46 575 -62 l 575 142 q 499 64 551 96 q 371 32 446 32 q 248 56 304 32 q 151 123 192 81 q 87 225 110 165 q 64 356 64 285 q 86 483 64 424 q 149 585 108 542 q 245 655 189 629 q 371 681 301 681 q 500 653 449 681 q 576 575 551 625 l 576 668 l 706 668 l 706 50 q 689 -74 706 -14 q 633 -181 672 -135 q 529 -256 593 -228 q 371 -285 465 -285 q 255 -266 308 -285 q 160 -214 201 -247 q 94 -135 119 -181 q 63 -36 68 -90 l 189 -7 m 390 142 q 528 200 475 142 q 581 356 581 258 q 528 511 581 453 q 390 569 475 569 q 250 511 303 569 q 197 356 197 453 q 249 199 197 257 q 390 142 301 142 m 461 814 q 438 761 461 781 q 379 742 414 742 q 349 747 364 742 q 319 765 333 753 q 297 796 306 776 q 289 843 289 815 q 303 910 289 881 q 340 958 317 939 q 391 988 363 978 q 447 999 419 999 l 447 943 q 385 922 411 943 q 357 876 360 901 q 366 881 358 878 q 386 885 374 885 q 440 866 419 885 q 461 814 461 847 z "},"Ĥ":{"ha":1025,"x_min":125,"x_max":900,"o":"m 764 0 l 764 438 l 261 438 l 261 0 l 125 0 l 125 985 l 261 985 l 261 564 l 764 564 l 764 985 l 900 985 l 900 0 l 764 0 m 271 1054 l 426 1219 l 593 1219 l 756 1054 l 628 1054 l 510 1143 l 397 1054 l 271 1054 z "},"ĥ":{"ha":781,"x_min":111,"x_max":683,"o":"m 160 1068 l 315 1233 l 482 1233 l 644 1068 l 517 1068 l 399 1157 l 286 1068 l 160 1068 m 242 0 l 111 0 l 111 1006 l 242 1006 l 242 590 q 332 665 278 643 q 444 688 386 688 q 549 667 504 688 q 624 612 594 647 q 669 528 654 576 q 683 424 683 479 l 683 0 l 553 0 l 553 401 q 545 467 553 436 q 519 520 538 497 q 470 556 500 543 q 397 569 440 569 q 331 556 360 569 q 283 518 303 542 q 253 463 264 494 q 242 393 243 431 l 242 0 z "},"Ħ":{"ha":1060,"x_min":42,"x_max":1018,"o":"m 782 0 l 782 438 l 279 438 l 279 0 l 143 0 l 143 713 l 42 713 l 42 817 l 143 817 l 143 985 l 279 985 l 279 817 l 782 817 l 782 985 l 918 985 l 918 817 l 1018 817 l 1018 713 l 918 713 l 918 0 l 782 0 m 782 564 l 782 713 l 279 713 l 279 564 l 782 564 z "},"ħ":{"ha":788,"x_min":-1,"x_max":690,"o":"m 249 0 l 118 0 l 118 774 l -1 774 l -1 879 l 118 879 l 118 1006 l 249 1006 l 249 879 l 417 879 l 417 774 l 249 774 l 249 590 q 339 665 285 643 q 451 688 393 688 q 556 667 511 688 q 631 612 601 647 q 676 528 661 576 q 690 424 690 479 l 690 0 l 560 0 l 560 401 q 552 467 560 436 q 526 520 544 497 q 477 556 507 543 q 404 569 447 569 q 338 556 367 569 q 290 518 310 542 q 260 463 271 494 q 249 393 250 431 l 249 0 z "},"Ĩ":{"ha":389,"x_min":-25,"x_max":422,"o":"m 125 0 l 125 985 l 264 985 l 264 0 l 125 0 m 422 1201 q 385 1085 422 1124 q 289 1047 347 1047 q 235 1056 258 1047 q 190 1079 211 1064 l 169 1093 q 144 1107 156 1101 q 118 1113 132 1113 q 83 1098 96 1113 q 69 1051 69 1083 l -25 1051 l -25 1074 q 13 1190 -25 1151 q 110 1228 51 1228 q 165 1218 139 1228 q 211 1196 190 1208 l 232 1183 q 259 1169 247 1175 q 285 1164 271 1164 q 316 1174 303 1164 q 329 1213 329 1185 l 329 1224 l 422 1224 l 422 1201 z "},"ĩ":{"ha":351,"x_min":-42,"x_max":396,"o":"m 111 0 l 111 668 l 240 668 l 240 0 l 111 0 m 396 919 q 358 805 396 842 q 261 768 319 768 q 211 777 233 768 q 169 799 189 786 l 150 811 q 124 825 136 819 q 99 831 113 831 q 69 818 79 831 q 58 771 58 806 l -42 771 l -42 792 q -3 906 -42 869 q 94 943 36 943 q 145 934 122 943 q 188 913 168 925 l 207 900 q 232 886 221 892 q 257 881 243 881 q 288 894 278 881 q 297 940 297 907 l 396 940 l 396 919 z "},"Ī":{"ha":389,"x_min":-7,"x_max":400,"o":"m 125 0 l 125 985 l 264 985 l 264 0 l 125 0 m -7 1082 l -7 1197 l 400 1197 l 400 1082 l -7 1082 z "},"ī":{"ha":351,"x_min":-11,"x_max":368,"o":"m 111 0 l 111 668 l 240 668 l 240 0 l 111 0 m -11 801 l -11 914 l 368 914 l 368 801 l -11 801 z "},"Ĭ":{"ha":389,"x_min":-21,"x_max":414,"o":"m 125 0 l 125 985 l 264 985 l 264 0 l 125 0 m 197 1047 q 105 1063 144 1047 q 38 1103 65 1078 q -4 1161 11 1129 q -21 1226 -19 1193 l 92 1226 q 99 1201 93 1214 q 117 1176 104 1188 q 149 1156 129 1164 q 197 1149 169 1149 q 244 1156 225 1149 q 276 1176 264 1164 q 294 1201 289 1188 q 301 1226 300 1214 l 414 1226 q 397 1161 411 1193 q 356 1103 383 1129 q 290 1063 329 1078 q 197 1047 250 1047 z "},"ĭ":{"ha":351,"x_min":-25,"x_max":381,"o":"m 111 0 l 111 668 l 240 668 l 240 0 l 111 0 m 178 757 q 92 774 129 757 q 28 818 54 790 q -11 881 3 846 q -25 954 -25 917 l 76 954 q 101 893 78 922 q 178 864 125 864 q 253 893 231 864 q 279 954 276 922 l 381 954 q 367 881 381 917 q 329 818 354 846 q 266 774 304 790 q 178 757 228 757 z "},"Į":{"ha":389,"x_min":35,"x_max":264,"o":"m 35 -160 q 65 -62 35 -100 q 135 0 96 -24 l 125 0 l 125 985 l 264 985 l 264 0 q 224 -22 244 -10 q 185 -51 203 -35 q 157 -89 168 -68 q 146 -135 146 -110 q 169 -185 146 -171 q 219 -200 192 -200 q 246 -199 236 -200 q 264 -194 256 -197 l 264 -289 q 235 -297 250 -294 q 194 -300 221 -300 q 133 -290 163 -300 q 82 -263 104 -281 q 47 -219 60 -246 q 35 -160 35 -193 z "},"į":{"ha":351,"x_min":11,"x_max":269,"o":"m 122 -135 q 145 -185 122 -171 q 196 -200 168 -200 q 222 -199 213 -200 q 240 -194 232 -197 l 240 -289 q 212 -297 226 -294 q 171 -300 197 -300 q 110 -290 139 -300 q 58 -263 81 -281 q 24 -219 36 -246 q 11 -160 11 -193 q 42 -61 11 -99 q 111 0 72 -24 l 111 668 l 240 668 l 240 0 q 200 -22 221 -10 q 162 -51 179 -35 q 133 -89 144 -68 q 122 -135 122 -110 m 82 921 q 109 988 82 961 q 175 1015 136 1015 q 242 988 215 1015 q 269 921 269 961 q 242 855 269 882 q 175 828 215 828 q 109 855 136 828 q 82 921 82 882 z "},"İ":{"ha":389,"x_min":106,"x_max":282,"o":"m 125 0 l 125 985 l 264 985 l 264 0 l 125 0 m 106 1136 q 131 1199 106 1172 q 193 1225 157 1225 q 256 1199 229 1225 q 282 1136 282 1172 q 256 1074 282 1100 q 193 1049 229 1049 q 131 1074 157 1049 q 106 1136 106 1100 z "},"ı":{"ha":351,"x_min":111,"x_max":240,"o":"m 111 0 l 111 668 l 240 668 l 240 0 l 111 0 z "},"Ĳ":{"ha":825,"x_min":111,"x_max":714,"o":"m 111 417 l 111 985 l 250 985 l 250 417 l 111 417 m 250 319 l 250 294 q 296 151 250 196 q 417 106 342 106 q 535 152 492 106 q 578 285 578 199 l 578 985 l 714 985 l 714 294 q 694 172 714 229 q 635 72 674 115 q 541 4 596 29 q 418 -21 486 -21 q 289 1 346 -21 q 192 65 232 24 q 132 165 153 107 q 111 293 111 222 l 250 319 z "},"ĳ":{"ha":718,"x_min":82,"x_max":635,"o":"m 111 0 l 111 668 l 240 668 l 240 0 l 111 0 m 82 921 q 109 988 82 961 q 175 1015 136 1015 q 242 988 215 1015 q 269 921 269 961 q 242 855 269 882 q 175 828 215 828 q 109 855 136 828 q 82 921 82 882 m 476 668 l 607 668 l 607 -78 q 558 -227 607 -169 q 422 -285 510 -285 q 368 -281 385 -285 q 344 -275 351 -278 l 344 -165 q 360 -168 350 -167 q 386 -169 371 -169 q 457 -144 438 -169 q 476 -72 476 -118 l 476 668 m 447 924 q 474 991 447 964 q 540 1018 501 1018 q 608 991 581 1018 q 635 924 635 964 q 608 858 635 885 q 540 831 581 831 q 474 858 501 831 q 447 924 447 885 z "},"Ĵ":{"ha":742,"x_min":28,"x_max":807,"o":"m 28 357 l 164 388 l 164 294 q 211 151 164 196 q 333 106 258 106 q 451 152 408 106 q 494 285 494 199 l 494 985 l 631 985 l 631 294 q 610 172 631 229 q 551 72 590 115 q 458 4 513 29 q 335 -21 403 -21 q 206 1 263 -21 q 109 65 149 24 q 49 165 69 107 q 28 293 28 222 l 28 357 m 322 1054 l 478 1219 l 644 1219 l 807 1054 l 679 1054 l 561 1143 l 449 1054 l 322 1054 z "},"ĵ":{"ha":353,"x_min":-40,"x_max":397,"o":"m -40 757 l 104 950 l 253 950 l 397 757 l 275 757 l 178 869 l 81 757 l -40 757 m 111 668 l 242 668 l 242 -78 q 193 -227 242 -169 q 57 -285 144 -285 q 3 -281 19 -285 q -21 -275 -14 -278 l -21 -167 q -3 -169 -15 -168 q 21 -169 10 -169 q 92 -144 72 -169 q 111 -72 111 -118 l 111 668 z "},"Ķ":{"ha":928,"x_min":125,"x_max":907,"o":"m 401 447 l 261 297 l 261 0 l 125 0 l 125 985 l 261 985 l 261 478 l 722 985 l 901 985 l 492 546 l 907 0 l 735 0 l 401 447 m 410 -122 q 435 -70 410 -90 q 492 -50 460 -50 q 552 -73 522 -50 q 582 -151 582 -96 q 568 -221 582 -192 q 531 -269 554 -250 q 480 -298 508 -289 q 424 -307 451 -307 l 424 -251 q 485 -231 460 -251 q 514 -185 511 -210 q 503 -190 511 -187 q 485 -193 494 -193 q 431 -176 453 -193 q 410 -122 410 -158 z "},"ķ":{"ha":729,"x_min":111,"x_max":715,"o":"m 425 386 l 715 0 l 551 0 l 333 294 l 240 201 l 240 0 l 111 0 l 111 1006 l 240 1006 l 240 372 l 529 668 l 710 668 l 425 386 m 319 -122 q 344 -70 319 -90 q 401 -50 369 -50 q 462 -73 432 -50 q 492 -151 492 -96 q 478 -221 492 -192 q 441 -269 464 -250 q 390 -298 418 -289 q 333 -307 361 -307 l 333 -251 q 395 -231 369 -251 q 424 -185 421 -210 q 413 -190 421 -187 q 394 -193 404 -193 q 341 -176 363 -193 q 319 -122 319 -158 z "},"ĸ":{"ha":729,"x_min":111,"x_max":715,"o":"m 425 386 l 715 0 l 551 0 l 333 294 l 240 201 l 240 0 l 111 0 l 111 668 l 240 668 l 240 372 l 529 668 l 710 668 l 425 386 z "},"Ĺ":{"ha":761,"x_min":125,"x_max":726,"o":"m 125 0 l 125 985 l 261 985 l 261 128 l 726 128 l 726 0 l 125 0 m 261 1054 l 131 1054 l 271 1219 l 451 1219 l 261 1054 z "},"ĺ":{"ha":353,"x_min":111,"x_max":433,"o":"m 111 0 l 111 1006 l 242 1006 l 242 0 l 111 0 m 243 1068 l 113 1068 l 253 1233 l 433 1233 l 243 1068 z "},"Ļ":{"ha":761,"x_min":125,"x_max":726,"o":"m 125 0 l 125 985 l 261 985 l 261 128 l 726 128 l 726 0 l 125 0 m 356 -122 q 381 -70 356 -90 q 438 -50 406 -50 q 498 -73 468 -50 q 528 -151 528 -96 q 514 -221 528 -192 q 477 -269 500 -250 q 426 -298 454 -289 q 369 -307 397 -307 l 369 -251 q 431 -231 406 -251 q 460 -185 457 -210 q 449 -190 457 -187 q 431 -193 440 -193 q 377 -176 399 -193 q 356 -122 356 -158 z "},"ļ":{"ha":353,"x_min":90,"x_max":263,"o":"m 111 0 l 111 1006 l 242 1006 l 242 0 l 111 0 m 90 -122 q 115 -70 90 -90 q 172 -50 140 -50 q 233 -73 203 -50 q 263 -151 263 -96 q 249 -221 263 -192 q 212 -269 235 -250 q 160 -298 189 -289 q 104 -307 132 -307 l 104 -251 q 166 -231 140 -251 q 194 -185 192 -210 q 183 -190 192 -187 q 165 -193 175 -193 q 112 -176 133 -193 q 90 -122 90 -158 z "},"Ľ":{"ha":761,"x_min":125,"x_max":726,"o":"m 125 0 l 125 985 l 261 985 l 261 128 l 726 128 l 726 0 l 125 0 m 501 790 l 400 790 l 442 1054 l 596 1054 l 501 790 z "},"ľ":{"ha":353,"x_min":111,"x_max":472,"o":"m 111 0 l 111 1006 l 242 1006 l 242 0 l 111 0 m 383 757 l 288 757 l 326 1006 l 472 1006 l 383 757 z "},"Ŀ":{"ha":761,"x_min":125,"x_max":726,"o":"m 125 0 l 125 985 l 261 985 l 261 128 l 726 128 l 726 0 l 125 0 m 401 518 q 427 581 401 554 q 489 607 453 607 q 551 581 525 607 q 578 518 578 554 q 551 456 578 482 q 489 431 525 431 q 427 456 453 431 q 401 518 401 482 z "},"ŀ":{"ha":517,"x_min":111,"x_max":496,"o":"m 111 0 l 111 1006 l 242 1006 l 242 0 l 111 0 m 324 435 q 349 496 324 471 q 410 521 374 521 q 471 496 446 521 q 496 435 496 471 q 471 374 496 399 q 410 349 446 349 q 349 374 374 349 q 324 435 324 399 z "},"Ł":{"ha":776,"x_min":7,"x_max":742,"o":"m 140 0 l 140 401 l 7 343 l 7 464 l 140 522 l 140 985 l 276 985 l 276 583 l 494 679 l 494 558 l 276 461 l 276 128 l 742 128 l 742 0 l 140 0 z "},"ł":{"ha":400,"x_min":7,"x_max":393,"o":"m 131 0 l 131 378 l 7 324 l 7 444 l 131 499 l 131 1006 l 261 1006 l 261 557 l 393 615 l 393 494 l 261 436 l 261 0 l 131 0 z "},"Ń":{"ha":1060,"x_min":125,"x_max":935,"o":"m 793 0 l 261 803 l 261 0 l 125 0 l 125 985 l 307 985 l 799 229 l 799 985 l 935 985 l 935 0 l 793 0 m 556 1054 l 425 1054 l 565 1219 l 746 1219 l 556 1054 z "},"ń":{"ha":781,"x_min":111,"x_max":683,"o":"m 242 0 l 111 0 l 111 668 l 239 668 l 239 572 q 331 661 275 635 q 444 688 386 688 q 549 667 504 688 q 624 612 594 647 q 669 528 654 576 q 683 424 683 479 l 683 0 l 553 0 l 553 401 q 545 467 553 436 q 519 520 538 497 q 470 556 500 543 q 397 569 440 569 q 329 555 358 569 q 281 515 300 540 q 251 457 261 490 q 242 386 242 424 l 242 0 m 417 754 l 307 754 l 428 957 l 592 957 l 417 754 z "},"Ņ":{"ha":1060,"x_min":125,"x_max":935,"o":"m 793 0 l 261 803 l 261 0 l 125 0 l 125 985 l 307 985 l 799 229 l 799 985 l 935 985 l 935 0 l 793 0 m 463 -122 q 488 -70 463 -90 q 544 -50 513 -50 q 605 -73 575 -50 q 635 -151 635 -96 q 621 -221 635 -192 q 584 -269 607 -250 q 533 -298 561 -289 q 476 -307 504 -307 l 476 -251 q 538 -231 513 -251 q 567 -185 564 -210 q 556 -190 564 -187 q 538 -193 547 -193 q 484 -176 506 -193 q 463 -122 463 -158 z "},"ņ":{"ha":781,"x_min":111,"x_max":683,"o":"m 242 0 l 111 0 l 111 668 l 239 668 l 239 572 q 331 661 275 635 q 444 688 386 688 q 549 667 504 688 q 624 612 594 647 q 669 528 654 576 q 683 424 683 479 l 683 0 l 553 0 l 553 401 q 545 467 553 436 q 519 520 538 497 q 470 556 500 543 q 397 569 440 569 q 329 555 358 569 q 281 515 300 540 q 251 457 261 490 q 242 386 242 424 l 242 0 m 319 -122 q 344 -70 319 -90 q 401 -50 369 -50 q 462 -73 432 -50 q 492 -151 492 -96 q 478 -221 492 -192 q 441 -269 464 -250 q 390 -298 418 -289 q 333 -307 361 -307 l 333 -251 q 395 -231 369 -251 q 424 -185 421 -210 q 413 -190 421 -187 q 394 -193 404 -193 q 341 -176 363 -193 q 319 -122 319 -158 z "},"Ň":{"ha":1060,"x_min":125,"x_max":935,"o":"m 793 0 l 261 803 l 261 0 l 125 0 l 125 985 l 307 985 l 799 229 l 799 985 l 935 985 l 935 0 l 793 0 m 418 1219 l 531 1131 l 649 1219 l 776 1219 l 614 1054 l 447 1054 l 292 1219 l 418 1219 z "},"ň":{"ha":781,"x_min":111,"x_max":683,"o":"m 242 0 l 111 0 l 111 668 l 239 668 l 239 572 q 331 661 275 635 q 444 688 386 688 q 549 667 504 688 q 624 612 594 647 q 669 528 654 576 q 683 424 683 479 l 683 0 l 553 0 l 553 401 q 545 467 553 436 q 519 520 538 497 q 470 556 500 543 q 397 569 440 569 q 329 555 358 569 q 281 515 300 540 q 251 457 261 490 q 242 386 242 424 l 242 0 m 276 954 l 374 842 l 471 954 l 593 954 l 451 757 l 297 757 l 156 954 l 276 954 z "},"ŉ":{"ha":781,"x_min":96,"x_max":683,"o":"m 242 0 l 111 0 l 111 668 l 239 668 l 239 572 q 331 661 275 635 q 444 688 386 688 q 549 667 504 688 q 624 612 594 647 q 669 528 654 576 q 683 424 683 479 l 683 0 l 553 0 l 553 401 q 545 467 553 436 q 519 520 538 497 q 470 556 500 543 q 397 569 440 569 q 329 555 358 569 q 281 515 300 540 q 251 457 261 490 q 242 386 242 424 l 242 0 m 96 915 q 121 968 96 949 q 178 988 146 988 q 209 982 193 988 q 238 965 225 976 q 260 933 251 953 q 268 886 268 914 q 254 817 268 846 q 217 768 240 788 q 166 740 194 749 q 110 731 138 731 l 110 786 q 172 807 146 786 q 200 853 197 828 q 192 848 199 851 q 171 844 185 844 q 117 862 139 844 q 96 915 96 879 z "},"Ŋ":{"ha":1060,"x_min":125,"x_max":935,"o":"m 713 -156 q 781 -132 764 -156 q 799 -62 799 -108 l 799 -8 l 261 803 l 261 0 l 125 0 l 125 985 l 307 985 l 799 229 l 799 985 l 935 985 l 935 -65 q 885 -215 935 -157 q 749 -272 836 -272 q 693 -269 711 -272 q 671 -262 675 -265 l 671 -153 q 690 -155 678 -154 q 713 -156 701 -156 z "},"ŋ":{"ha":781,"x_min":111,"x_max":683,"o":"m 242 0 l 111 0 l 111 668 l 239 668 l 239 572 q 331 661 275 635 q 444 688 386 688 q 549 667 504 688 q 624 612 594 647 q 669 528 654 576 q 683 424 683 479 l 683 -78 q 635 -227 683 -169 q 499 -285 586 -285 q 443 -281 461 -285 q 421 -275 425 -278 l 421 -167 q 440 -169 428 -168 q 463 -169 451 -169 q 533 -144 514 -169 q 553 -72 553 -118 l 553 401 q 545 467 553 436 q 519 520 538 497 q 470 556 500 543 q 397 569 440 569 q 329 555 358 569 q 281 515 300 540 q 251 457 261 490 q 242 386 242 424 l 242 0 z "},"Ō":{"ha":1114,"x_min":63,"x_max":1051,"o":"m 201 493 q 231 324 201 397 q 310 202 261 251 q 424 128 360 153 q 557 104 488 104 q 690 128 625 104 q 803 202 754 153 q 883 324 853 251 q 913 493 913 397 q 883 662 913 589 q 803 783 853 735 q 690 856 754 832 q 557 881 625 881 q 424 856 488 881 q 310 783 360 832 q 231 662 261 735 q 201 493 201 589 m 63 493 q 105 712 63 617 q 217 872 147 807 q 375 972 286 938 q 557 1006 464 1006 q 739 972 650 1006 q 897 872 828 938 q 1009 712 967 807 q 1051 493 1051 617 q 1009 274 1051 369 q 897 113 967 178 q 739 13 828 47 q 557 -21 650 -21 q 375 13 464 -21 q 217 113 286 47 q 105 274 147 178 q 63 493 63 369 m 354 1082 l 354 1197 l 761 1197 l 761 1082 l 354 1082 z "},"ō":{"ha":794,"x_min":56,"x_max":739,"o":"m 397 96 q 476 111 439 96 q 543 157 514 126 q 589 232 572 188 q 606 335 606 276 q 589 437 606 393 q 543 511 572 481 q 476 557 514 542 q 397 572 439 572 q 318 557 356 572 q 251 511 281 542 q 206 437 222 481 q 189 335 189 393 q 206 232 189 276 q 251 157 222 188 q 318 111 281 126 q 397 96 356 96 m 397 689 q 535 662 472 689 q 643 588 597 635 q 714 476 689 540 q 739 335 739 411 q 714 193 739 258 q 643 81 689 128 q 535 6 597 33 q 397 -21 472 -21 q 260 6 322 -21 q 151 81 197 33 q 81 193 106 128 q 56 335 56 258 q 81 476 56 411 q 151 588 106 540 q 260 662 197 635 q 397 689 322 689 m 208 801 l 208 914 l 588 914 l 588 801 l 208 801 z "},"Ŏ":{"ha":1114,"x_min":63,"x_max":1051,"o":"m 201 493 q 231 324 201 397 q 310 202 261 251 q 424 128 360 153 q 557 104 488 104 q 690 128 625 104 q 803 202 754 153 q 883 324 853 251 q 913 493 913 397 q 883 662 913 589 q 803 783 853 735 q 690 856 754 832 q 557 881 625 881 q 424 856 488 881 q 310 783 360 832 q 231 662 261 735 q 201 493 201 589 m 63 493 q 105 712 63 617 q 217 872 147 807 q 375 972 286 938 q 557 1006 464 1006 q 739 972 650 1006 q 897 872 828 938 q 1009 712 967 807 q 1051 493 1051 617 q 1009 274 1051 369 q 897 113 967 178 q 739 13 828 47 q 557 -21 650 -21 q 375 13 464 -21 q 217 113 286 47 q 105 274 147 178 q 63 493 63 369 m 568 1047 q 476 1063 515 1047 q 409 1103 436 1078 q 367 1161 382 1129 q 350 1226 351 1193 l 463 1226 q 469 1201 464 1214 q 488 1176 475 1188 q 520 1156 500 1164 q 568 1149 540 1149 q 615 1156 596 1149 q 647 1176 635 1164 q 665 1201 660 1188 q 672 1226 671 1214 l 785 1226 q 768 1161 782 1193 q 727 1103 754 1129 q 660 1063 700 1078 q 568 1047 621 1047 z "},"ŏ":{"ha":794,"x_min":56,"x_max":739,"o":"m 397 96 q 476 111 439 96 q 543 157 514 126 q 589 232 572 188 q 606 335 606 276 q 589 437 606 393 q 543 511 572 481 q 476 557 514 542 q 397 572 439 572 q 318 557 356 572 q 251 511 281 542 q 206 437 222 481 q 189 335 189 393 q 206 232 189 276 q 251 157 222 188 q 318 111 281 126 q 397 96 356 96 m 397 689 q 535 662 472 689 q 643 588 597 635 q 714 476 689 540 q 739 335 739 411 q 714 193 739 258 q 643 81 689 128 q 535 6 597 33 q 397 -21 472 -21 q 260 6 322 -21 q 151 81 197 33 q 81 193 106 128 q 56 335 56 258 q 81 476 56 411 q 151 588 106 540 q 260 662 197 635 q 397 689 322 689 m 397 757 q 311 774 349 757 q 248 818 274 790 q 208 881 222 846 q 194 954 194 917 l 296 954 q 321 893 297 922 q 397 864 344 864 q 473 893 450 864 q 499 954 496 922 l 600 954 q 587 881 600 917 q 549 818 574 846 q 485 774 524 790 q 397 757 447 757 z "},"Ő":{"ha":1114,"x_min":63,"x_max":1051,"o":"m 201 493 q 231 324 201 397 q 310 202 261 251 q 424 128 360 153 q 557 104 488 104 q 690 128 625 104 q 803 202 754 153 q 883 324 853 251 q 913 493 913 397 q 883 662 913 589 q 803 783 853 735 q 690 856 754 832 q 557 881 625 881 q 424 856 488 881 q 310 783 360 832 q 231 662 261 735 q 201 493 201 589 m 63 493 q 105 712 63 617 q 217 872 147 807 q 375 972 286 938 q 557 1006 464 1006 q 739 972 650 1006 q 897 872 828 938 q 1009 712 967 807 q 1051 493 1051 617 q 1009 274 1051 369 q 897 113 967 178 q 739 13 828 47 q 557 -21 650 -21 q 375 13 464 -21 q 217 113 286 47 q 105 274 147 178 q 63 493 63 369 m 493 1054 l 396 1054 l 481 1219 l 626 1219 l 493 1054 m 689 1054 l 592 1054 l 690 1219 l 836 1219 l 689 1054 z "},"ő":{"ha":794,"x_min":56,"x_max":739,"o":"m 397 96 q 476 111 439 96 q 543 157 514 126 q 589 232 572 188 q 606 335 606 276 q 589 437 606 393 q 543 511 572 481 q 476 557 514 542 q 397 572 439 572 q 318 557 356 572 q 251 511 281 542 q 206 437 222 481 q 189 335 189 393 q 206 232 189 276 q 251 157 222 188 q 318 111 281 126 q 397 96 356 96 m 397 689 q 535 662 472 689 q 643 588 597 635 q 714 476 689 540 q 739 335 739 411 q 714 193 739 258 q 643 81 689 128 q 535 6 597 33 q 397 -21 472 -21 q 260 6 322 -21 q 151 81 197 33 q 81 193 106 128 q 56 335 56 258 q 81 476 56 411 q 151 588 106 540 q 260 662 197 635 q 397 689 322 689 m 344 754 l 253 754 l 324 957 l 469 957 l 344 754 m 526 754 l 435 754 l 519 957 l 665 957 l 526 754 z "},"Œ":{"ha":1594,"x_min":63,"x_max":1511,"o":"m 201 493 q 231 324 201 397 q 310 202 261 251 q 424 128 360 153 q 557 104 488 104 q 690 128 625 104 q 803 202 754 153 q 883 324 853 251 q 913 493 913 397 q 883 662 913 589 q 803 783 853 735 q 690 856 754 832 q 557 881 625 881 q 424 856 488 881 q 310 783 360 832 q 231 662 261 735 q 201 493 201 589 m 913 0 l 913 129 q 749 17 842 54 q 557 -21 656 -21 q 375 13 464 -21 q 217 113 286 47 q 105 274 147 178 q 63 493 63 369 q 105 712 63 617 q 217 872 147 807 q 375 972 286 938 q 557 1006 464 1006 q 749 968 656 1006 q 913 856 842 931 l 913 985 l 1511 985 l 1511 858 l 1049 858 l 1049 556 l 1468 556 l 1468 428 l 1049 428 l 1049 126 l 1511 126 l 1511 0 l 913 0 z "},"œ":{"ha":1301,"x_min":56,"x_max":1246,"o":"m 397 96 q 476 111 439 96 q 543 157 514 126 q 589 232 572 188 q 606 335 606 276 q 589 437 606 393 q 543 511 572 481 q 476 557 514 542 q 397 572 439 572 q 318 557 356 572 q 251 511 281 542 q 206 437 222 481 q 189 335 189 393 q 206 232 189 276 q 251 157 222 188 q 318 111 281 126 q 397 96 356 96 m 1110 403 q 1060 524 1107 475 q 926 574 1014 574 q 852 559 885 574 q 797 520 819 544 q 760 465 774 496 q 744 403 746 435 l 1110 403 m 1242 190 q 1201 108 1228 146 q 1135 41 1174 69 q 1049 -4 1097 13 q 942 -21 1000 -21 q 789 13 860 -21 q 671 114 718 47 q 556 15 626 51 q 397 -21 485 -21 q 260 6 322 -21 q 151 81 197 33 q 81 193 106 128 q 56 335 56 258 q 81 476 56 411 q 151 588 106 540 q 260 662 197 635 q 397 689 322 689 q 556 652 485 689 q 671 553 626 615 q 783 653 715 617 q 925 689 850 689 q 1062 663 1001 689 q 1163 592 1122 638 q 1224 481 1203 546 q 1246 339 1246 417 q 1245 316 1246 328 q 1243 297 1244 304 l 740 297 q 758 216 742 253 q 801 152 774 179 q 864 110 828 125 q 942 94 900 94 q 1067 133 1024 94 q 1129 229 1110 172 l 1242 190 z "},"Ŕ":{"ha":860,"x_min":125,"x_max":797,"o":"m 465 1054 l 335 1054 l 475 1219 l 656 1219 l 465 1054 m 410 403 l 263 403 l 263 0 l 125 0 l 125 985 l 496 985 q 622 962 565 985 q 717 899 678 939 q 776 806 756 860 q 797 692 797 753 q 734 509 797 585 q 558 413 671 433 l 793 0 l 635 0 l 410 403 m 471 525 q 606 570 554 525 q 657 692 657 615 q 606 817 657 771 q 471 863 554 863 l 263 863 l 263 525 l 471 525 z "},"ŕ":{"ha":510,"x_min":111,"x_max":482,"o":"m 482 536 q 425 540 453 540 q 292 492 343 540 q 242 335 242 444 l 242 0 l 111 0 l 111 668 l 239 668 l 239 551 q 281 615 257 590 q 332 653 306 639 q 386 674 358 668 q 439 679 414 679 q 465 678 453 679 q 482 675 476 676 l 482 536 m 307 754 l 197 754 l 318 957 l 482 957 l 307 754 z "},"Ŗ":{"ha":860,"x_min":125,"x_max":797,"o":"m 378 -122 q 403 -70 378 -90 q 460 -50 428 -50 q 520 -73 490 -50 q 550 -151 550 -96 q 536 -221 550 -192 q 499 -269 522 -250 q 448 -298 476 -289 q 392 -307 419 -307 l 392 -251 q 453 -231 428 -251 q 482 -185 479 -210 q 471 -190 479 -187 q 453 -193 463 -193 q 399 -176 421 -193 q 378 -122 378 -158 m 410 403 l 263 403 l 263 0 l 125 0 l 125 985 l 496 985 q 622 962 565 985 q 717 899 678 939 q 776 806 756 860 q 797 692 797 753 q 734 509 797 585 q 558 413 671 433 l 793 0 l 635 0 l 410 403 m 471 525 q 606 570 554 525 q 657 692 657 615 q 606 817 657 771 q 471 863 554 863 l 263 863 l 263 525 l 471 525 z "},"ŗ":{"ha":510,"x_min":92,"x_max":482,"o":"m 482 536 q 425 540 453 540 q 292 492 343 540 q 242 335 242 444 l 242 0 l 111 0 l 111 668 l 239 668 l 239 551 q 281 615 257 590 q 332 653 306 639 q 386 674 358 668 q 439 679 414 679 q 465 678 453 679 q 482 675 476 676 l 482 536 m 92 -122 q 117 -70 92 -90 q 174 -50 142 -50 q 234 -73 204 -50 q 264 -151 264 -96 q 250 -221 264 -192 q 213 -269 236 -250 q 162 -298 190 -289 q 106 -307 133 -307 l 106 -251 q 167 -231 142 -251 q 196 -185 193 -210 q 185 -190 193 -187 q 167 -193 176 -193 q 113 -176 135 -193 q 92 -122 92 -158 z "},"Ř":{"ha":860,"x_min":125,"x_max":797,"o":"m 310 1219 l 422 1131 l 540 1219 l 668 1219 l 506 1054 l 339 1054 l 183 1219 l 310 1219 m 410 403 l 263 403 l 263 0 l 125 0 l 125 985 l 496 985 q 622 962 565 985 q 717 899 678 939 q 776 806 756 860 q 797 692 797 753 q 734 509 797 585 q 558 413 671 433 l 793 0 l 635 0 l 410 403 m 471 525 q 606 570 554 525 q 657 692 657 615 q 606 817 657 771 q 471 863 554 863 l 263 863 l 263 525 l 471 525 z "},"ř":{"ha":510,"x_min":74,"x_max":511,"o":"m 482 536 q 425 540 453 540 q 292 492 343 540 q 242 335 242 444 l 242 0 l 111 0 l 111 668 l 239 668 l 239 551 q 281 615 257 590 q 332 653 306 639 q 386 674 358 668 q 439 679 414 679 q 465 678 453 679 q 482 675 476 676 l 482 536 m 194 954 l 292 842 l 389 954 l 511 954 l 369 757 l 215 757 l 74 954 l 194 954 z "},"Ś":{"ha":824,"x_min":53,"x_max":761,"o":"m 474 1054 l 343 1054 l 483 1219 l 664 1219 l 474 1054 m 631 718 q 613 774 626 744 q 574 829 599 804 q 511 870 549 854 q 422 886 474 886 q 346 874 381 886 q 285 839 311 861 q 246 787 260 817 q 232 722 232 757 q 264 631 232 669 q 358 579 296 593 l 506 547 q 695 447 629 519 q 761 271 761 375 q 738 161 761 214 q 669 68 714 108 q 563 3 625 28 q 421 -21 500 -21 q 266 6 332 -21 q 155 74 200 32 q 85 167 110 115 q 53 272 60 219 l 183 314 q 203 234 188 272 q 249 167 219 196 q 322 120 279 138 q 419 103 364 103 q 572 149 521 103 q 622 260 622 194 q 586 355 622 313 q 475 413 550 397 l 335 443 q 162 534 229 467 q 94 713 94 601 q 119 824 94 771 q 188 917 144 876 q 292 981 232 957 q 419 1006 351 1006 q 562 983 503 1006 q 660 924 621 960 q 722 844 700 888 q 753 761 744 801 l 631 718 z "},"ś":{"ha":628,"x_min":49,"x_max":565,"o":"m 357 754 l 247 754 l 368 957 l 532 957 l 357 754 m 167 215 q 213 126 174 163 q 322 90 251 90 q 407 117 378 90 q 436 179 436 143 q 414 233 436 211 q 350 265 392 256 l 236 290 q 113 357 157 307 q 69 478 69 407 q 88 559 69 521 q 139 626 107 597 q 215 672 171 656 q 307 689 258 689 q 422 669 375 689 q 497 622 468 650 q 541 563 526 593 q 561 510 556 532 l 446 467 q 436 499 443 479 q 414 535 429 518 q 372 565 399 553 q 307 578 346 578 q 226 551 257 578 q 196 489 196 524 q 272 408 196 425 l 381 385 q 519 313 472 365 q 565 186 565 261 q 550 114 565 150 q 505 47 535 78 q 429 -2 475 17 q 321 -21 383 -21 q 202 -1 251 -21 q 120 47 153 18 q 70 110 88 76 q 49 174 53 144 l 167 215 z "},"Ŝ":{"ha":824,"x_min":53,"x_max":761,"o":"m 200 1054 l 356 1219 l 522 1219 l 685 1054 l 557 1054 l 439 1143 l 326 1054 l 200 1054 m 631 718 q 613 774 626 744 q 574 829 599 804 q 511 870 549 854 q 422 886 474 886 q 346 874 381 886 q 285 839 311 861 q 246 787 260 817 q 232 722 232 757 q 264 631 232 669 q 358 579 296 593 l 506 547 q 695 447 629 519 q 761 271 761 375 q 738 161 761 214 q 669 68 714 108 q 563 3 625 28 q 421 -21 500 -21 q 266 6 332 -21 q 155 74 200 32 q 85 167 110 115 q 53 272 60 219 l 183 314 q 203 234 188 272 q 249 167 219 196 q 322 120 279 138 q 419 103 364 103 q 572 149 521 103 q 622 260 622 194 q 586 355 622 313 q 475 413 550 397 l 335 443 q 162 534 229 467 q 94 713 94 601 q 119 824 94 771 q 188 917 144 876 q 292 981 232 957 q 419 1006 351 1006 q 562 983 503 1006 q 660 924 621 960 q 722 844 700 888 q 753 761 744 801 l 631 718 z "},"ŝ":{"ha":628,"x_min":49,"x_max":565,"o":"m 106 757 l 250 950 l 399 950 l 543 757 l 421 757 l 324 869 l 226 757 l 106 757 m 167 215 q 213 126 174 163 q 322 90 251 90 q 407 117 378 90 q 436 179 436 143 q 414 233 436 211 q 350 265 392 256 l 236 290 q 113 357 157 307 q 69 478 69 407 q 88 559 69 521 q 139 626 107 597 q 215 672 171 656 q 307 689 258 689 q 422 669 375 689 q 497 622 468 650 q 541 563 526 593 q 561 510 556 532 l 446 467 q 436 499 443 479 q 414 535 429 518 q 372 565 399 553 q 307 578 346 578 q 226 551 257 578 q 196 489 196 524 q 272 408 196 425 l 381 385 q 519 313 472 365 q 565 186 565 261 q 550 114 565 150 q 505 47 535 78 q 429 -2 475 17 q 321 -21 383 -21 q 202 -1 251 -21 q 120 47 153 18 q 70 110 88 76 q 49 174 53 144 l 167 215 z "},"Ş":{"ha":824,"x_min":53,"x_max":761,"o":"m 631 718 q 613 774 626 744 q 574 829 599 804 q 511 870 549 854 q 422 886 474 886 q 346 873 381 886 q 285 838 311 860 q 246 785 260 815 q 232 722 232 756 q 264 631 232 669 q 358 579 296 593 l 506 547 q 695 447 629 519 q 761 271 761 375 q 742 169 761 218 q 686 83 722 121 q 598 18 650 44 q 481 -17 546 -8 l 450 -64 q 547 -94 508 -64 q 585 -178 585 -125 q 546 -263 585 -226 q 422 -300 507 -300 q 330 -282 369 -300 q 269 -239 290 -264 l 321 -176 q 359 -207 333 -190 q 421 -224 385 -224 q 466 -212 446 -224 q 486 -178 486 -201 q 470 -146 486 -158 q 425 -133 454 -133 q 385 -140 403 -133 l 339 -86 l 382 -19 q 244 14 303 -14 q 145 83 186 42 q 81 174 104 124 q 53 275 58 224 l 183 317 q 204 237 188 275 q 251 169 221 199 q 323 121 281 139 q 419 103 365 103 q 572 149 521 103 q 622 260 622 194 q 585 355 622 313 q 475 413 547 397 l 335 443 q 162 534 229 467 q 94 713 94 601 q 119 824 94 771 q 188 917 144 876 q 292 981 232 957 q 419 1006 351 1006 q 562 983 503 1006 q 660 924 621 960 q 722 844 700 888 q 753 761 744 801 l 631 718 z "},"ş":{"ha":628,"x_min":49,"x_max":565,"o":"m 167 218 q 213 128 174 165 q 322 90 251 90 q 407 117 378 90 q 436 179 436 143 q 414 233 436 211 q 350 265 392 256 l 236 290 q 115 358 160 307 q 69 478 69 408 q 88 559 69 521 q 139 626 107 597 q 215 672 171 656 q 307 689 258 689 q 422 669 375 689 q 497 622 468 650 q 541 563 526 593 q 561 510 556 532 l 446 467 q 436 499 443 479 q 414 535 429 518 q 372 565 399 553 q 307 578 346 578 q 226 551 257 578 q 196 489 196 524 q 272 408 196 426 l 381 385 q 519 313 472 365 q 565 186 565 261 q 553 121 565 154 q 515 59 540 88 q 453 10 490 31 q 364 -18 415 -11 l 335 -64 q 431 -94 393 -64 q 469 -178 469 -125 q 431 -263 469 -226 q 307 -300 392 -300 q 215 -282 254 -300 q 154 -239 175 -264 l 206 -176 q 244 -207 218 -190 q 306 -224 269 -224 q 351 -212 331 -224 q 371 -178 371 -201 q 355 -146 371 -158 q 310 -133 339 -133 q 269 -140 288 -133 l 224 -86 l 268 -17 q 174 11 214 -10 q 108 60 135 32 q 67 119 82 89 q 49 176 53 150 l 167 218 z "},"Š":{"ha":824,"x_min":53,"x_max":761,"o":"m 631 718 q 613 774 626 744 q 574 829 599 804 q 511 870 549 854 q 422 886 474 886 q 346 874 381 886 q 285 839 311 861 q 246 787 260 817 q 232 722 232 757 q 264 631 232 669 q 358 579 296 593 l 506 547 q 695 447 629 519 q 761 271 761 375 q 738 161 761 214 q 669 68 714 108 q 563 3 625 28 q 421 -21 500 -21 q 266 6 332 -21 q 155 74 200 32 q 85 167 110 115 q 53 272 60 219 l 183 314 q 203 234 188 272 q 249 167 219 196 q 322 120 279 138 q 419 103 364 103 q 572 149 521 103 q 622 260 622 194 q 586 355 622 313 q 475 413 550 397 l 335 443 q 162 534 229 467 q 94 713 94 601 q 119 824 94 771 q 188 917 144 876 q 292 981 232 957 q 419 1006 351 1006 q 562 983 503 1006 q 660 924 621 960 q 722 844 700 888 q 753 761 744 801 l 631 718 m 311 1219 l 424 1131 l 542 1219 l 669 1219 l 507 1054 l 340 1054 l 185 1219 l 311 1219 z "},"š":{"ha":628,"x_min":49,"x_max":565,"o":"m 167 215 q 213 126 174 163 q 322 90 251 90 q 407 117 378 90 q 436 179 436 143 q 414 233 436 211 q 350 265 392 256 l 236 290 q 113 357 157 307 q 69 478 69 407 q 88 559 69 521 q 139 626 107 597 q 215 672 171 656 q 307 689 258 689 q 422 669 375 689 q 497 622 468 650 q 541 563 526 593 q 561 510 556 532 l 446 467 q 436 499 443 479 q 414 535 429 518 q 372 565 399 553 q 307 578 346 578 q 226 551 257 578 q 196 489 196 524 q 272 408 196 425 l 381 385 q 519 313 472 365 q 565 186 565 261 q 550 114 565 150 q 505 47 535 78 q 429 -2 475 17 q 321 -21 383 -21 q 202 -1 251 -21 q 120 47 153 18 q 70 110 88 76 q 49 174 53 144 l 167 215 m 217 954 l 314 842 l 411 954 l 533 954 l 392 757 l 238 757 l 96 954 l 217 954 z "},"Ţ":{"ha":822,"x_min":14,"x_max":808,"o":"m 308 -86 l 363 0 l 343 0 l 343 858 l 14 858 l 14 985 l 808 985 l 808 858 l 479 858 l 479 0 l 461 0 l 419 -64 q 516 -94 478 -64 q 554 -178 554 -125 q 544 -225 554 -203 q 515 -265 535 -247 q 465 -292 496 -282 q 392 -303 433 -303 q 299 -283 339 -303 q 239 -239 260 -264 l 290 -176 q 328 -207 303 -190 q 390 -224 354 -224 q 435 -212 415 -224 q 456 -178 456 -201 q 440 -146 456 -158 q 394 -133 424 -133 q 354 -140 372 -133 l 308 -86 z "},"ţ":{"ha":493,"x_min":28,"x_max":443,"o":"m 197 -86 l 257 8 q 182 72 208 28 q 156 183 156 117 l 156 550 l 28 550 l 28 668 l 64 668 q 142 697 118 668 q 167 771 167 726 l 167 879 l 286 879 l 286 668 l 431 668 l 431 550 l 286 550 l 286 203 q 307 134 286 157 q 379 111 328 111 q 407 113 392 111 q 431 117 422 114 l 431 6 q 399 -1 422 3 q 344 -7 376 -6 l 308 -64 q 405 -94 367 -64 q 443 -178 443 -125 q 433 -225 443 -203 q 404 -265 424 -247 q 353 -292 385 -282 q 281 -303 322 -303 q 188 -283 228 -303 q 128 -239 149 -264 l 179 -176 q 217 -207 192 -190 q 279 -224 243 -224 q 324 -212 304 -224 q 344 -178 344 -201 q 328 -146 344 -158 q 283 -133 313 -133 q 243 -140 261 -133 l 197 -86 z "},"Ť":{"ha":822,"x_min":14,"x_max":808,"o":"m 479 858 l 479 0 l 343 0 l 343 858 l 14 858 l 14 985 l 808 985 l 808 858 l 479 858 m 296 1219 l 408 1131 l 526 1219 l 654 1219 l 492 1054 l 325 1054 l 169 1219 l 296 1219 z "},"ť":{"ha":493,"x_min":28,"x_max":560,"o":"m 286 668 l 431 668 l 431 550 l 286 550 l 286 203 q 307 134 286 157 q 379 111 328 111 q 407 113 392 111 q 431 117 422 114 l 431 6 q 399 -2 422 3 q 342 -7 375 -7 q 206 42 256 -7 q 156 183 156 92 l 156 550 l 28 550 l 28 668 l 64 668 q 142 697 118 668 q 167 771 167 726 l 167 879 l 286 879 l 286 668 m 471 786 l 375 786 l 414 1035 l 560 1035 l 471 786 z "},"Ŧ":{"ha":822,"x_min":14,"x_max":808,"o":"m 479 858 l 479 517 l 632 517 l 632 404 l 479 404 l 479 0 l 343 0 l 343 404 l 193 404 l 193 517 l 343 517 l 343 858 l 14 858 l 14 985 l 808 985 l 808 858 l 479 858 z "},"ŧ":{"ha":493,"x_min":28,"x_max":431,"o":"m 379 111 q 407 113 392 111 q 431 117 422 114 l 431 6 q 399 -2 422 3 q 342 -7 375 -7 q 206 42 256 -7 q 156 183 156 92 l 156 288 l 28 288 l 28 393 l 156 393 l 156 550 l 28 550 l 28 668 l 64 668 q 142 697 118 668 q 167 771 167 726 l 167 879 l 286 879 l 286 668 l 431 668 l 431 550 l 286 550 l 286 393 l 431 393 l 431 288 l 286 288 l 286 203 q 307 134 286 157 q 379 111 328 111 z "},"Ũ":{"ha":931,"x_min":111,"x_max":819,"o":"m 465 -21 q 326 2 390 -21 q 213 70 261 25 q 138 182 165 115 q 111 336 111 249 l 111 985 l 246 985 l 246 340 q 303 167 246 228 q 465 106 361 106 q 626 167 569 106 q 683 340 683 228 l 683 985 l 819 985 l 819 336 q 792 182 819 249 q 717 70 765 115 q 605 2 669 25 q 465 -21 540 -21 m 688 1201 q 650 1085 688 1124 q 554 1047 613 1047 q 500 1056 524 1047 q 456 1079 476 1064 l 435 1093 q 409 1107 421 1101 q 383 1113 397 1113 q 348 1098 361 1113 q 335 1051 335 1083 l 240 1051 l 240 1074 q 278 1190 240 1151 q 375 1228 317 1228 q 430 1218 404 1228 q 476 1196 456 1208 l 497 1183 q 524 1169 513 1175 q 550 1164 536 1164 q 581 1174 568 1164 q 594 1213 594 1185 l 594 1224 l 688 1224 l 688 1201 z "},"ũ":{"ha":786,"x_min":104,"x_max":682,"o":"m 551 81 q 468 3 524 28 q 354 -21 413 -21 q 249 0 296 -21 q 171 57 203 21 q 122 142 139 93 q 104 247 104 190 l 104 668 l 235 668 l 235 267 q 243 201 235 232 q 269 146 251 169 q 316 108 288 122 q 386 94 344 94 q 505 142 465 94 q 544 265 544 189 l 544 668 l 675 668 l 675 124 q 677 51 675 83 q 682 0 679 18 l 557 0 q 553 35 554 11 q 551 81 551 60 m 607 919 q 569 805 607 842 q 472 768 531 768 q 422 777 444 768 q 381 799 400 786 l 361 811 q 335 825 347 819 q 310 831 324 831 q 280 818 290 831 q 269 771 269 806 l 169 771 l 169 792 q 208 906 169 869 q 306 943 247 943 q 356 934 333 943 q 399 913 379 925 l 418 900 q 443 886 432 892 q 468 881 454 881 q 499 894 489 881 q 508 940 508 907 l 607 940 l 607 919 z "},"Ū":{"ha":931,"x_min":111,"x_max":819,"o":"m 465 -21 q 326 2 390 -21 q 213 70 261 25 q 138 182 165 115 q 111 336 111 249 l 111 985 l 246 985 l 246 340 q 303 167 246 228 q 465 106 361 106 q 626 167 569 106 q 683 340 683 228 l 683 985 l 819 985 l 819 336 q 792 182 819 249 q 717 70 765 115 q 605 2 669 25 q 465 -21 540 -21 m 263 1082 l 263 1197 l 669 1197 l 669 1082 l 263 1082 z "},"ū":{"ha":786,"x_min":104,"x_max":682,"o":"m 551 81 q 468 3 524 28 q 354 -21 413 -21 q 249 0 296 -21 q 171 57 203 21 q 122 142 139 93 q 104 247 104 190 l 104 668 l 235 668 l 235 267 q 243 201 235 232 q 269 146 251 169 q 316 108 288 122 q 386 94 344 94 q 505 142 465 94 q 544 265 544 189 l 544 668 l 675 668 l 675 124 q 677 51 675 83 q 682 0 679 18 l 557 0 q 553 35 554 11 q 551 81 551 60 m 200 801 l 200 914 l 579 914 l 579 801 l 200 801 z "},"Ŭ":{"ha":931,"x_min":111,"x_max":819,"o":"m 465 -21 q 326 2 390 -21 q 213 70 261 25 q 138 182 165 115 q 111 336 111 249 l 111 985 l 246 985 l 246 340 q 303 167 246 228 q 465 106 361 106 q 626 167 569 106 q 683 340 683 228 l 683 985 l 819 985 l 819 336 q 792 182 819 249 q 717 70 765 115 q 605 2 669 25 q 465 -21 540 -21 m 467 1047 q 374 1063 414 1047 q 308 1103 335 1078 q 265 1161 281 1129 q 249 1226 250 1193 l 361 1226 q 368 1201 363 1214 q 386 1176 374 1188 q 419 1156 399 1164 q 467 1149 439 1149 q 514 1156 494 1149 q 546 1176 533 1164 q 564 1201 558 1188 q 571 1226 569 1214 l 683 1226 q 667 1161 681 1193 q 626 1103 653 1129 q 559 1063 599 1078 q 467 1047 519 1047 z "},"ŭ":{"ha":786,"x_min":104,"x_max":682,"o":"m 551 81 q 468 3 524 28 q 354 -21 413 -21 q 249 0 296 -21 q 171 57 203 21 q 122 142 139 93 q 104 247 104 190 l 104 668 l 235 668 l 235 267 q 243 201 235 232 q 269 146 251 169 q 316 108 288 122 q 386 94 344 94 q 505 142 465 94 q 544 265 544 189 l 544 668 l 675 668 l 675 124 q 677 51 675 83 q 682 0 679 18 l 557 0 q 553 35 554 11 q 551 81 551 60 m 392 757 q 306 774 343 757 q 242 818 268 790 q 203 881 217 846 q 189 954 189 917 l 290 954 q 315 893 292 922 q 392 864 339 864 q 467 893 444 864 q 493 954 490 922 l 594 954 q 581 881 594 917 q 543 818 568 846 q 480 774 518 790 q 392 757 442 757 z "},"Ů":{"ha":931,"x_min":111,"x_max":819,"o":"m 465 -21 q 326 2 390 -21 q 213 70 261 25 q 138 182 165 115 q 111 336 111 249 l 111 985 l 246 985 l 246 340 q 303 167 246 228 q 465 106 361 106 q 626 167 569 106 q 683 340 683 228 l 683 985 l 819 985 l 819 336 q 792 182 819 249 q 717 70 765 115 q 605 2 669 25 q 465 -21 540 -21 m 621 1178 q 608 1118 621 1146 q 575 1070 596 1090 q 526 1038 554 1050 q 465 1026 497 1026 q 407 1038 435 1026 q 358 1070 379 1050 q 324 1118 336 1090 q 311 1178 311 1146 q 324 1238 311 1210 q 358 1286 336 1265 q 407 1319 379 1307 q 465 1331 435 1331 q 526 1319 497 1331 q 575 1286 554 1307 q 608 1238 596 1265 q 621 1178 621 1210 m 531 1178 q 511 1224 531 1206 q 464 1243 492 1243 q 418 1224 436 1243 q 400 1178 400 1206 q 418 1132 400 1150 q 464 1114 436 1114 q 511 1132 492 1114 q 531 1178 531 1150 z "},"ů":{"ha":786,"x_min":104,"x_max":682,"o":"m 551 81 q 468 3 524 28 q 354 -21 413 -21 q 249 0 296 -21 q 171 57 203 21 q 122 142 139 93 q 104 247 104 190 l 104 668 l 235 668 l 235 267 q 243 201 235 232 q 269 146 251 169 q 316 108 288 122 q 386 94 344 94 q 505 142 465 94 q 544 265 544 189 l 544 668 l 675 668 l 675 124 q 677 51 675 83 q 682 0 679 18 l 557 0 q 553 35 554 11 q 551 81 551 60 m 544 890 q 532 831 544 858 q 499 783 519 803 q 449 751 478 763 q 389 739 421 739 q 331 751 358 739 q 281 783 303 763 q 247 831 260 803 q 235 890 235 858 q 247 950 235 922 q 281 999 260 978 q 331 1031 303 1019 q 389 1043 358 1043 q 449 1031 421 1043 q 499 999 478 1019 q 532 950 519 978 q 544 890 544 922 m 456 890 q 436 938 456 918 q 388 958 417 958 q 341 938 360 958 q 322 890 322 918 q 341 843 322 863 q 388 824 360 824 q 436 843 417 824 q 456 890 456 863 z "},"Ű":{"ha":931,"x_min":111,"x_max":819,"o":"m 465 -21 q 326 2 390 -21 q 213 70 261 25 q 138 182 165 115 q 111 336 111 249 l 111 985 l 246 985 l 246 340 q 303 167 246 228 q 465 106 361 106 q 626 167 569 106 q 683 340 683 228 l 683 985 l 819 985 l 819 336 q 792 182 819 249 q 717 70 765 115 q 605 2 669 25 q 465 -21 540 -21 m 396 1054 l 299 1054 l 383 1219 l 529 1219 l 396 1054 m 592 1054 l 494 1054 l 593 1219 l 739 1219 l 592 1054 z "},"ű":{"ha":786,"x_min":104,"x_max":682,"o":"m 551 81 q 468 3 524 28 q 354 -21 413 -21 q 249 0 296 -21 q 171 57 203 21 q 122 142 139 93 q 104 247 104 190 l 104 668 l 235 668 l 235 267 q 243 201 235 232 q 269 146 251 169 q 316 108 288 122 q 386 94 344 94 q 505 142 465 94 q 544 265 544 189 l 544 668 l 675 668 l 675 124 q 677 51 675 83 q 682 0 679 18 l 557 0 q 553 35 554 11 q 551 81 551 60 m 322 754 l 231 754 l 301 957 l 447 957 l 322 754 m 504 754 l 413 754 l 497 957 l 643 957 l 504 754 z "},"Ų":{"ha":931,"x_min":111,"x_max":819,"o":"m 369 -160 q 390 -77 369 -111 q 440 -19 411 -43 q 310 8 371 -17 q 206 78 250 33 q 136 188 161 124 q 111 336 111 253 l 111 985 l 246 985 l 246 340 q 303 167 246 228 q 465 106 361 106 q 626 167 569 106 q 683 340 683 228 l 683 985 l 819 985 l 819 336 q 758 117 819 201 q 599 0 697 33 q 558 -22 579 -10 q 520 -51 538 -35 q 492 -89 503 -68 q 481 -135 481 -110 q 503 -185 481 -171 q 554 -200 526 -200 q 581 -199 571 -200 q 599 -194 590 -197 l 599 -289 q 570 -297 585 -294 q 529 -300 556 -300 q 468 -290 497 -300 q 417 -263 439 -281 q 382 -219 394 -246 q 369 -160 369 -193 z "},"ų":{"ha":786,"x_min":104,"x_max":682,"o":"m 453 -160 q 485 -60 453 -99 q 557 3 517 -21 q 553 38 554 15 q 551 81 551 61 q 468 3 524 28 q 354 -21 413 -21 q 249 0 296 -21 q 171 57 203 21 q 122 142 139 93 q 104 247 104 190 l 104 668 l 235 668 l 235 267 q 243 201 235 232 q 269 146 251 169 q 316 108 288 122 q 386 94 344 94 q 505 142 465 94 q 544 265 544 189 l 544 668 l 675 668 l 675 124 q 677 49 675 81 q 682 0 679 18 q 642 -22 663 -10 q 603 -51 621 -35 q 575 -89 586 -68 q 564 -135 564 -110 q 587 -185 564 -171 q 638 -200 610 -200 q 664 -199 654 -200 q 682 -194 674 -197 l 682 -289 q 653 -297 668 -294 q 613 -300 639 -300 q 551 -290 581 -300 q 500 -263 522 -281 q 465 -219 478 -246 q 453 -160 453 -193 z "},"Ŵ":{"ha":1394,"x_min":21,"x_max":1374,"o":"m 1233 985 l 1374 985 l 1093 0 l 953 0 l 696 799 l 442 0 l 306 0 l 21 985 l 161 985 l 378 214 l 625 985 l 768 985 l 1021 206 l 1233 985 m 456 1054 l 611 1219 l 778 1219 l 940 1054 l 813 1054 l 694 1143 l 582 1054 l 456 1054 z "},"ŵ":{"ha":1101,"x_min":21,"x_max":1081,"o":"m 622 668 l 796 165 l 943 668 l 1081 668 l 864 0 l 729 0 l 551 508 l 378 0 l 240 0 l 21 668 l 164 668 l 314 165 l 488 668 l 622 668 m 333 757 l 478 950 l 626 950 l 771 757 l 649 757 l 551 869 l 454 757 l 333 757 z "},"Ŷ":{"ha":858,"x_min":14,"x_max":844,"o":"m 14 985 l 178 985 l 433 546 l 689 985 l 844 985 l 497 421 l 497 0 l 361 0 l 361 421 l 14 985 m 188 1054 l 343 1219 l 510 1219 l 672 1054 l 544 1054 l 426 1143 l 314 1054 l 188 1054 z "},"ŷ":{"ha":726,"x_min":14,"x_max":713,"o":"m 135 -279 l 301 74 l 14 668 l 164 668 l 372 207 l 572 668 l 713 668 l 278 -279 l 135 -279 m 143 757 l 288 950 l 436 950 l 581 757 l 458 757 l 361 869 l 264 757 l 143 757 z "},"Ÿ":{"ha":858,"x_min":14,"x_max":844,"o":"m 14 985 l 178 985 l 433 546 l 689 985 l 844 985 l 497 421 l 497 0 l 361 0 l 361 421 l 14 985 m 188 1138 q 211 1196 188 1172 q 269 1219 235 1219 q 328 1196 304 1219 q 351 1138 351 1172 q 328 1079 351 1103 q 269 1056 304 1056 q 211 1079 235 1056 q 188 1138 188 1103 m 508 1138 q 532 1196 508 1172 q 590 1219 556 1219 q 649 1196 625 1219 q 672 1138 672 1172 q 649 1079 672 1103 q 590 1056 625 1056 q 532 1079 556 1056 q 508 1138 508 1103 z "},"Ź":{"ha":878,"x_min":63,"x_max":822,"o":"m 63 0 l 63 136 l 650 858 l 76 858 l 76 985 l 815 985 l 815 853 l 225 128 l 822 128 l 822 0 l 63 0 m 471 1054 l 340 1054 l 481 1219 l 661 1219 l 471 1054 z "},"ź":{"ha":647,"x_min":56,"x_max":592,"o":"m 346 754 l 236 754 l 357 957 l 521 957 l 346 754 m 56 0 l 56 114 l 422 550 l 61 550 l 61 668 l 585 668 l 585 554 l 218 118 l 592 118 l 592 0 l 56 0 z "},"Ż":{"ha":878,"x_min":63,"x_max":822,"o":"m 63 0 l 63 136 l 650 858 l 76 858 l 76 985 l 815 985 l 815 853 l 225 128 l 822 128 l 822 0 l 63 0 m 356 1136 q 381 1199 356 1172 q 443 1225 407 1225 q 506 1199 479 1225 q 532 1136 532 1172 q 506 1074 532 1100 q 443 1049 479 1049 q 381 1074 407 1049 q 356 1136 356 1100 z "},"ż":{"ha":647,"x_min":56,"x_max":592,"o":"m 238 856 q 263 917 238 892 q 324 942 288 942 q 385 917 360 942 q 410 856 410 892 q 385 794 410 819 q 324 769 360 769 q 263 794 288 769 q 238 856 238 819 m 56 0 l 56 114 l 422 550 l 61 550 l 61 668 l 585 668 l 585 554 l 218 118 l 592 118 l 592 0 l 56 0 z "},"Ž":{"ha":878,"x_min":63,"x_max":822,"o":"m 63 0 l 63 136 l 650 858 l 76 858 l 76 985 l 815 985 l 815 853 l 225 128 l 822 128 l 822 0 l 63 0 m 333 1219 l 446 1131 l 564 1219 l 692 1219 l 529 1054 l 363 1054 l 207 1219 l 333 1219 z "},"ž":{"ha":647,"x_min":56,"x_max":592,"o":"m 229 954 l 326 842 l 424 954 l 546 954 l 404 757 l 250 757 l 108 954 l 229 954 m 56 0 l 56 114 l 422 550 l 61 550 l 61 668 l 585 668 l 585 554 l 218 118 l 592 118 l 592 0 l 56 0 z "},"Ə":{"ha":1103,"x_min":63,"x_max":1040,"o":"m 539 1006 q 733 972 642 1006 q 892 874 824 939 q 1001 714 961 810 q 1040 492 1040 618 q 999 269 1040 365 q 888 109 957 174 q 732 12 819 44 q 551 -21 644 -21 q 372 10 460 -21 q 215 106 283 42 q 104 265 146 169 q 63 488 63 360 q 63 501 63 493 q 64 521 63 510 l 900 521 q 865 678 896 611 q 784 791 833 746 q 671 858 735 836 q 539 881 607 881 q 422 862 478 881 q 322 811 367 843 q 244 736 276 779 q 199 644 213 693 l 76 689 q 140 812 96 754 q 244 913 183 869 q 381 981 306 956 q 539 1006 456 1006 m 857 286 q 877 337 868 310 q 893 396 886 364 l 204 396 q 229 303 210 344 q 284 215 250 253 q 360 153 318 178 q 451 117 403 129 q 551 104 500 104 q 729 149 647 104 q 857 286 811 194 z "},"ƒ":{"ha":668,"x_min":-42,"x_max":661,"o":"m 274 553 l 121 553 l 121 668 l 297 668 l 329 825 q 362 916 339 878 q 416 978 385 954 q 484 1015 447 1003 q 558 1026 521 1026 q 620 1023 599 1026 q 661 1013 642 1019 l 661 897 q 628 904 646 901 q 588 907 610 907 q 549 903 569 907 q 511 887 529 900 q 478 848 493 874 q 454 779 463 822 l 432 668 l 611 668 l 611 553 l 408 553 l 294 -18 q 261 -109 283 -71 q 208 -172 239 -147 q 140 -208 176 -196 q 65 -219 103 -219 q 0 -216 22 -219 q -42 -206 -22 -212 l -42 -90 q -8 -97 -26 -94 q 36 -100 11 -100 q 74 -96 54 -100 q 113 -78 94 -92 q 146 -40 131 -65 q 169 28 161 -15 l 274 553 z "},"Ƶ":{"ha":878,"x_min":63,"x_max":822,"o":"m 63 0 l 63 136 l 322 456 l 121 456 l 121 574 l 418 574 l 650 858 l 76 858 l 76 985 l 815 985 l 815 853 l 588 574 l 754 574 l 754 456 l 492 456 l 225 128 l 822 128 l 822 0 l 63 0 z "},"ƶ":{"ha":647,"x_min":56,"x_max":592,"o":"m 56 0 l 56 114 l 206 293 l 68 293 l 68 399 l 294 399 l 422 550 l 61 550 l 61 668 l 585 668 l 585 554 l 454 399 l 575 399 l 575 293 l 365 293 l 218 118 l 592 118 l 592 0 l 56 0 z "},"Ǻ":{"ha":968,"x_min":14,"x_max":954,"o":"m 313 401 l 651 401 l 481 843 l 313 401 m 546 1049 q 526 1095 546 1076 q 479 1114 507 1114 q 433 1095 451 1114 q 415 1049 415 1076 q 433 1003 415 1021 q 479 985 451 985 q 526 1003 507 985 q 546 1049 546 1021 m 547 1253 l 417 1253 l 557 1418 l 738 1418 l 547 1253 m 636 1049 q 622 984 636 1014 q 582 933 607 954 l 954 0 l 807 0 l 700 275 l 264 275 l 160 0 l 14 0 l 385 932 q 342 983 358 953 q 326 1049 326 1013 q 339 1108 326 1081 q 373 1157 351 1136 q 422 1190 394 1178 q 481 1201 450 1201 q 541 1190 513 1201 q 590 1157 569 1178 q 624 1108 611 1136 q 636 1049 636 1081 z "},"ǻ":{"ha":726,"x_min":69,"x_max":643,"o":"m 69 179 q 85 259 69 224 q 127 319 100 294 q 192 360 154 344 q 272 382 229 375 l 453 408 q 494 426 483 413 q 504 458 504 440 q 470 542 504 507 q 360 578 436 578 q 253 540 290 578 q 208 443 215 501 l 83 472 q 112 560 89 519 q 171 628 135 600 q 255 673 207 657 q 357 689 303 689 q 485 669 432 689 q 571 615 538 649 q 619 538 604 582 q 635 444 635 493 l 635 110 q 638 39 635 65 q 643 0 640 13 l 515 0 q 510 33 513 13 q 508 90 508 54 q 479 53 497 72 q 435 17 461 33 q 373 -10 408 0 q 293 -21 338 -21 q 201 -4 242 -21 q 131 40 160 13 q 85 103 101 67 q 69 179 69 139 m 311 89 q 387 99 351 89 q 448 133 422 110 q 489 194 474 156 q 504 286 504 232 l 504 317 l 300 286 q 231 255 258 279 q 203 186 203 231 q 232 119 203 149 q 311 89 261 89 m 518 883 q 506 824 518 851 q 472 776 493 796 q 423 744 451 756 q 363 732 394 732 q 304 744 332 732 q 255 776 276 756 q 221 824 233 796 q 208 883 208 851 q 221 943 208 915 q 255 992 233 971 q 304 1024 276 1013 q 363 1036 332 1036 q 423 1024 394 1036 q 472 992 451 1013 q 506 943 493 971 q 518 883 518 915 m 429 883 q 410 931 429 911 q 361 951 390 951 q 315 931 333 951 q 296 883 296 911 q 315 836 296 856 q 361 817 333 817 q 410 836 390 817 q 429 883 429 856 m 413 1082 l 303 1082 l 424 1285 l 588 1285 l 413 1082 z "},"Ǽ":{"ha":1425,"x_min":7,"x_max":1342,"o":"m 832 1054 l 701 1054 l 842 1219 l 1022 1219 l 832 1054 m 743 0 l 743 272 l 357 272 l 182 0 l 7 0 l 663 985 l 1342 985 l 1342 858 l 879 858 l 879 556 l 1299 556 l 1299 428 l 879 428 l 879 126 l 1342 126 l 1342 0 l 743 0 m 743 394 l 743 872 l 435 394 l 743 394 z "},"ǽ":{"ha":1214,"x_min":69,"x_max":1158,"o":"m 656 754 l 546 754 l 667 957 l 831 957 l 656 754 m 1154 190 q 1113 108 1140 146 q 1046 41 1085 69 q 958 -4 1007 13 q 854 -21 910 -21 q 697 16 769 -21 q 576 124 624 53 q 539 72 561 97 q 485 25 517 46 q 409 -8 453 4 q 308 -21 365 -21 q 207 -4 251 -21 q 132 40 163 13 q 85 103 101 67 q 69 179 69 139 q 85 259 69 224 q 127 319 100 294 q 192 360 154 344 q 272 382 229 375 l 465 408 q 508 428 499 414 q 518 458 518 443 q 480 543 518 507 q 365 579 442 579 q 253 540 294 579 q 206 449 213 501 l 83 472 q 115 563 88 522 q 181 631 142 603 q 269 674 221 660 q 365 689 317 689 q 511 658 451 689 q 603 578 571 628 q 708 660 647 631 q 838 689 769 689 q 974 663 914 689 q 1075 592 1035 638 q 1137 481 1115 546 q 1158 339 1158 417 q 1158 316 1158 329 q 1156 297 1157 303 l 653 297 q 670 216 654 253 q 713 152 686 179 q 776 110 740 125 q 854 94 813 94 q 978 133 935 94 q 1040 229 1021 172 l 1154 190 m 318 89 q 388 99 353 89 q 453 133 424 110 q 500 193 482 156 q 518 285 518 231 l 518 317 l 300 286 q 229 254 256 279 q 203 183 203 229 q 233 118 203 147 q 318 89 263 89 m 1022 403 q 973 524 1019 475 q 839 574 926 574 q 765 559 797 574 q 709 520 732 544 q 672 465 686 496 q 657 403 658 435 l 1022 403 z "},"Ǿ":{"ha":1114,"x_min":63,"x_max":1051,"o":"m 618 1054 l 488 1054 l 628 1219 l 808 1219 l 618 1054 m 63 493 q 105 712 63 617 q 217 872 147 807 q 375 972 286 938 q 557 1006 464 1006 q 695 986 628 1006 q 822 929 763 967 l 922 1057 l 1017 985 l 915 854 q 1015 699 978 789 q 1051 493 1051 608 q 1009 274 1051 369 q 897 113 967 178 q 739 13 828 47 q 557 -21 650 -21 q 421 -2 488 -21 q 294 53 354 17 l 200 -71 l 103 0 l 201 128 q 101 284 139 193 q 63 493 63 375 m 201 493 q 223 345 201 410 q 283 232 244 281 l 744 828 q 557 881 660 881 q 424 856 488 881 q 310 783 360 832 q 231 662 261 735 q 201 493 201 589 m 913 493 q 891 637 913 574 q 833 749 869 700 l 372 153 q 461 116 414 128 q 557 104 508 104 q 690 128 625 104 q 803 202 754 153 q 883 324 853 251 q 913 493 913 397 z "},"ǿ":{"ha":794,"x_min":56,"x_max":739,"o":"m 453 754 l 343 754 l 464 957 l 628 957 l 453 754 m 397 689 q 490 677 446 689 q 571 644 533 665 l 640 735 l 724 668 l 653 576 q 716 468 693 529 q 739 335 739 407 q 714 193 739 258 q 643 81 689 128 q 535 6 597 33 q 397 -21 472 -21 q 305 -9 349 -21 q 225 22 261 3 l 157 -65 l 74 1 l 142 90 q 78 199 101 138 q 56 335 56 261 q 81 476 56 411 q 151 588 106 540 q 260 662 197 635 q 397 689 322 689 m 189 335 q 199 256 189 289 q 224 194 208 222 l 496 547 q 397 572 450 572 q 318 557 356 572 q 251 511 281 542 q 206 437 222 481 q 189 335 189 393 m 397 96 q 476 111 439 96 q 543 157 514 126 q 589 232 572 188 q 606 335 606 276 q 597 410 606 375 q 572 472 588 444 l 300 119 q 397 96 342 96 z "},"Ș":{"ha":824,"x_min":53,"x_max":761,"o":"m 344 -122 q 369 -70 344 -90 q 426 -50 394 -50 q 487 -73 457 -50 q 517 -151 517 -96 q 503 -221 517 -192 q 466 -269 489 -250 q 415 -298 443 -289 q 358 -307 386 -307 l 358 -251 q 420 -231 394 -251 q 449 -185 446 -210 q 438 -190 446 -187 q 419 -193 429 -193 q 366 -176 388 -193 q 344 -122 344 -158 m 631 718 q 613 774 626 744 q 574 829 599 804 q 511 870 549 854 q 422 886 474 886 q 346 874 381 886 q 285 839 311 861 q 246 787 260 817 q 232 722 232 757 q 264 631 232 669 q 358 579 296 593 l 506 547 q 695 447 629 519 q 761 271 761 375 q 738 161 761 214 q 669 68 714 108 q 563 3 625 28 q 421 -21 500 -21 q 266 6 332 -21 q 155 74 200 32 q 85 167 110 115 q 53 272 60 219 l 183 314 q 203 234 188 272 q 249 167 219 196 q 322 120 279 138 q 419 103 364 103 q 572 149 521 103 q 622 260 622 194 q 586 355 622 313 q 475 413 550 397 l 335 443 q 162 534 229 467 q 94 713 94 601 q 119 824 94 771 q 188 917 144 876 q 292 981 232 957 q 419 1006 351 1006 q 562 983 503 1006 q 660 924 621 960 q 722 844 700 888 q 753 761 744 801 l 631 718 z "},"ș":{"ha":628,"x_min":49,"x_max":565,"o":"m 235 -122 q 260 -70 235 -90 q 317 -50 285 -50 q 377 -73 347 -50 q 407 -151 407 -96 q 393 -221 407 -192 q 356 -269 379 -250 q 305 -298 333 -289 q 249 -307 276 -307 l 249 -251 q 310 -231 285 -251 q 339 -185 336 -210 q 328 -190 336 -187 q 310 -193 319 -193 q 256 -176 278 -193 q 235 -122 235 -158 m 167 215 q 213 126 174 163 q 322 90 251 90 q 407 117 378 90 q 436 179 436 143 q 414 233 436 211 q 350 265 392 256 l 236 290 q 113 357 157 307 q 69 478 69 407 q 88 559 69 521 q 139 626 107 597 q 215 672 171 656 q 307 689 258 689 q 422 669 375 689 q 497 622 468 650 q 541 563 526 593 q 561 510 556 532 l 446 467 q 436 499 443 479 q 414 535 429 518 q 372 565 399 553 q 307 578 346 578 q 226 551 257 578 q 196 489 196 524 q 272 408 196 425 l 381 385 q 519 313 472 365 q 565 186 565 261 q 550 114 565 150 q 505 47 535 78 q 429 -2 475 17 q 321 -21 383 -21 q 202 -1 251 -21 q 120 47 153 18 q 70 110 88 76 q 49 174 53 144 l 167 215 z "},"Ț":{"ha":822,"x_min":14,"x_max":808,"o":"m 479 858 l 479 0 l 343 0 l 343 858 l 14 858 l 14 985 l 808 985 l 808 858 l 479 858 m 324 -122 q 349 -70 324 -90 q 406 -50 374 -50 q 466 -73 436 -50 q 496 -151 496 -96 q 482 -221 496 -192 q 445 -269 468 -250 q 394 -298 422 -289 q 338 -307 365 -307 l 338 -251 q 399 -231 374 -251 q 428 -185 425 -210 q 417 -190 425 -187 q 399 -193 408 -193 q 345 -176 367 -193 q 324 -122 324 -158 z "},"ț":{"ha":493,"x_min":28,"x_max":431,"o":"m 286 668 l 431 668 l 431 550 l 286 550 l 286 203 q 307 134 286 157 q 379 111 328 111 q 407 113 392 111 q 431 117 422 114 l 431 6 q 399 -2 422 3 q 342 -7 375 -7 q 206 42 256 -7 q 156 183 156 92 l 156 550 l 28 550 l 28 668 l 64 668 q 142 697 118 668 q 167 771 167 726 l 167 879 l 286 879 l 286 668 m 203 -122 q 228 -70 203 -90 q 285 -50 253 -50 q 345 -73 315 -50 q 375 -151 375 -96 q 361 -221 375 -192 q 324 -269 347 -250 q 273 -298 301 -289 q 217 -307 244 -307 l 217 -251 q 278 -231 253 -251 q 307 -185 304 -210 q 296 -190 304 -187 q 278 -193 288 -193 q 224 -176 246 -193 q 203 -122 203 -158 z "},"ȷ":{"ha":353,"x_min":-21,"x_max":242,"o":"m 111 668 l 242 668 l 242 -78 q 193 -227 242 -169 q 57 -285 144 -285 q 3 -281 19 -285 q -21 -275 -14 -278 l -21 -167 q -3 -169 -15 -168 q 21 -169 10 -169 q 92 -144 72 -169 q 111 -72 111 -118 l 111 668 z "},"ə":{"ha":758,"x_min":56,"x_max":703,"o":"m 194 261 q 247 142 197 189 q 382 94 296 94 q 456 108 424 94 q 512 145 489 122 q 548 199 535 168 q 564 261 561 229 l 194 261 m 63 479 q 105 560 76 522 q 173 627 133 599 q 263 672 213 656 q 371 689 313 689 q 510 663 449 689 q 615 590 572 638 q 680 477 657 543 q 703 332 703 411 q 678 188 703 253 q 609 77 653 124 q 507 5 565 31 q 383 -21 449 -21 q 247 4 308 -21 q 144 74 186 29 q 78 183 101 119 q 56 325 56 247 q 56 340 56 331 q 58 367 56 350 l 568 367 q 553 449 567 411 q 513 514 539 486 q 451 558 488 542 q 371 574 415 574 q 242 533 292 574 q 172 440 192 493 l 63 479 z "},"ˆ":{"ha":535,"x_min":49,"x_max":486,"o":"m 49 757 l 193 950 l 342 950 l 486 757 l 364 757 l 267 869 l 169 757 l 49 757 z "},"ˇ":{"ha":535,"x_min":49,"x_max":486,"o":"m 169 954 l 267 842 l 364 954 l 486 954 l 344 757 l 190 757 l 49 954 l 169 954 z "},"ˉ":{"ha":476,"x_min":49,"x_max":428,"o":"m 49 801 l 49 914 l 428 914 l 428 801 l 49 801 z "},"˘":{"ha":503,"x_min":49,"x_max":454,"o":"m 251 757 q 165 774 203 757 q 102 818 128 790 q 63 881 76 846 q 49 954 49 917 l 150 954 q 175 893 151 922 q 251 864 199 864 q 327 893 304 864 q 353 954 350 922 l 454 954 q 441 881 454 917 q 403 818 428 846 q 340 774 378 790 q 251 757 301 757 z "},"˙":{"ha":242,"x_min":35,"x_max":207,"o":"m 35 856 q 60 917 35 892 q 121 942 85 942 q 182 917 157 942 q 207 856 207 892 q 182 794 207 819 q 121 769 157 769 q 60 794 85 769 q 35 856 35 819 z "},"˚":{"ha":407,"x_min":49,"x_max":358,"o":"m 358 890 q 346 831 358 858 q 313 783 333 803 q 263 751 292 763 q 203 739 235 739 q 144 751 172 739 q 95 783 117 763 q 61 831 74 803 q 49 890 49 858 q 61 950 49 922 q 95 999 74 978 q 144 1031 117 1019 q 203 1043 172 1043 q 263 1031 235 1043 q 313 999 292 1019 q 346 950 333 978 q 358 890 358 922 m 269 890 q 250 938 269 918 q 201 958 231 958 q 155 938 174 958 q 136 890 136 918 q 155 843 136 863 q 201 824 174 824 q 250 843 231 824 q 269 890 269 863 z "},"˛":{"ha":324,"x_min":46,"x_max":275,"o":"m 46 -160 q 59 -92 46 -122 q 93 -41 72 -62 q 139 -4 114 -19 q 188 22 164 11 l 275 0 q 235 -22 256 -10 q 197 -51 214 -35 q 168 -89 179 -68 q 157 -135 157 -110 q 180 -185 157 -171 q 231 -200 203 -200 q 257 -199 247 -200 q 275 -194 267 -197 l 275 -289 q 247 -297 261 -294 q 206 -300 232 -300 q 144 -290 174 -300 q 93 -263 115 -281 q 58 -219 71 -246 q 46 -160 46 -193 z "},"˜":{"ha":524,"x_min":43,"x_max":481,"o":"m 481 919 q 442 805 481 842 q 346 768 404 768 q 296 777 318 768 q 254 799 274 786 l 235 811 q 209 825 221 819 q 183 831 197 831 q 153 818 164 831 q 143 771 143 806 l 43 771 l 43 792 q 82 906 43 869 q 179 943 121 943 q 230 934 207 943 q 272 913 253 925 l 292 900 q 317 886 306 892 q 342 881 328 881 q 372 894 363 881 q 382 940 382 907 l 481 940 l 481 919 z "},"˝":{"ha":510,"x_min":49,"x_max":461,"o":"m 140 754 l 49 754 l 119 957 l 265 957 l 140 754 m 322 754 l 231 754 l 315 957 l 461 957 l 322 754 z "},"Δ":{"ha":919,"x_min":0,"x_max":919,"o":"m 386 985 l 532 985 l 919 0 l 0 0 l 386 985 m 193 125 l 725 125 l 457 829 l 193 125 z "},"Ω":{"ha":1106,"x_min":63,"x_max":1043,"o":"m 553 883 q 426 861 489 883 q 313 795 363 839 q 232 688 263 751 q 201 539 201 624 q 228 403 201 464 q 296 297 254 342 q 390 223 338 251 q 493 183 442 194 l 493 0 l 69 0 l 69 122 l 350 122 q 245 178 297 142 q 153 269 193 215 q 88 390 113 322 q 63 538 63 457 q 103 735 63 647 q 212 882 144 822 q 368 974 279 942 q 553 1006 457 1006 q 738 974 649 1006 q 894 882 826 942 q 1002 735 961 822 q 1043 538 1043 647 q 1018 390 1043 457 q 952 269 993 322 q 860 178 911 215 q 754 122 808 142 l 1036 122 l 1036 0 l 613 0 l 613 183 q 716 223 664 194 q 810 297 768 251 q 878 403 851 342 q 904 539 904 464 q 874 688 904 624 q 793 795 843 751 q 680 861 743 839 q 553 883 617 883 z "},"μ":{"ha":793,"x_min":111,"x_max":689,"o":"m 558 81 q 475 3 531 28 q 361 -21 419 -21 q 295 -13 324 -21 q 242 7 267 -6 l 242 -264 l 111 -264 l 111 668 l 242 668 l 242 267 q 250 201 242 232 q 276 146 258 169 q 323 108 294 122 q 393 94 351 94 q 512 142 472 94 q 551 265 551 189 l 551 668 l 682 668 l 682 124 q 684 49 682 83 q 689 0 686 14 l 564 0 q 560 35 561 11 q 558 81 558 60 z "},"π":{"ha":854,"x_min":63,"x_max":785,"o":"m 785 7 q 752 -4 772 1 q 700 -10 732 -10 q 626 4 657 -10 q 576 41 596 18 q 546 94 556 64 q 536 156 536 124 l 536 554 l 307 554 l 307 0 l 176 0 l 176 554 l 63 554 l 63 668 l 782 668 l 782 554 l 667 554 l 667 169 q 688 117 667 132 q 742 101 710 101 q 763 103 753 101 q 785 107 774 104 l 785 7 z "},"Ẁ":{"ha":1394,"x_min":21,"x_max":1374,"o":"m 1233 985 l 1374 985 l 1093 0 l 953 0 l 696 799 l 442 0 l 306 0 l 21 985 l 161 985 l 378 214 l 625 985 l 768 985 l 1021 206 l 1233 985 m 444 1219 l 624 1219 l 765 1054 l 636 1054 l 444 1219 z "},"ẁ":{"ha":1101,"x_min":21,"x_max":1081,"o":"m 622 668 l 796 165 l 943 668 l 1081 668 l 864 0 l 729 0 l 551 508 l 378 0 l 240 0 l 21 668 l 164 668 l 314 165 l 488 668 l 622 668 m 325 957 l 489 957 l 608 754 l 500 754 l 325 957 z "},"Ẃ":{"ha":1394,"x_min":21,"x_max":1374,"o":"m 1233 985 l 1374 985 l 1093 0 l 953 0 l 696 799 l 442 0 l 306 0 l 21 985 l 161 985 l 378 214 l 625 985 l 768 985 l 1021 206 l 1233 985 m 763 1054 l 632 1054 l 772 1219 l 953 1219 l 763 1054 z "},"ẃ":{"ha":1101,"x_min":21,"x_max":1081,"o":"m 622 668 l 796 165 l 943 668 l 1081 668 l 864 0 l 729 0 l 551 508 l 378 0 l 240 0 l 21 668 l 164 668 l 314 165 l 488 668 l 622 668 m 607 754 l 497 754 l 618 957 l 782 957 l 607 754 z "},"Ẅ":{"ha":1394,"x_min":21,"x_max":1374,"o":"m 414 1138 q 438 1196 414 1172 q 496 1219 461 1219 q 554 1196 531 1219 q 578 1138 578 1172 q 554 1079 578 1103 q 496 1056 531 1056 q 438 1079 461 1056 q 414 1138 414 1103 m 818 1138 q 842 1196 818 1172 q 900 1219 865 1219 q 958 1196 935 1219 q 982 1138 982 1172 q 958 1079 982 1103 q 900 1056 935 1056 q 842 1079 865 1056 q 818 1138 818 1103 m 1233 985 l 1374 985 l 1093 0 l 953 0 l 696 799 l 442 0 l 306 0 l 21 985 l 161 985 l 378 214 l 625 985 l 768 985 l 1021 206 l 1233 985 z "},"ẅ":{"ha":1101,"x_min":21,"x_max":1081,"o":"m 313 863 q 335 919 313 896 q 392 943 358 943 q 450 919 426 943 q 474 863 474 896 q 450 805 474 828 q 392 782 426 782 q 335 805 358 782 q 313 863 313 828 m 628 863 q 651 919 628 896 q 708 943 674 943 q 765 919 742 943 q 789 863 789 896 q 765 805 789 828 q 708 782 742 782 q 651 805 674 782 q 628 863 628 828 m 622 668 l 796 165 l 943 668 l 1081 668 l 864 0 l 729 0 l 551 508 l 378 0 l 240 0 l 21 668 l 164 668 l 314 165 l 488 668 l 622 668 z "},"Ẋ":{"ha":857,"x_min":14,"x_max":843,"o":"m 508 493 l 839 0 l 676 0 l 428 385 l 174 0 l 14 0 l 350 493 l 17 985 l 181 985 l 429 599 l 682 985 l 843 985 l 508 493 m 342 1136 q 367 1199 342 1172 q 429 1225 393 1225 q 492 1199 465 1225 q 518 1136 518 1172 q 492 1074 518 1100 q 429 1049 465 1049 q 367 1074 393 1049 q 342 1136 342 1100 z "},"ẋ":{"ha":682,"x_min":14,"x_max":668,"o":"m 263 340 l 22 668 l 181 668 l 344 433 l 506 668 l 660 668 l 422 340 q 451 300 432 326 q 495 240 471 274 q 545 170 519 207 q 595 100 571 133 q 639 40 619 67 q 668 0 658 14 l 511 0 l 339 246 l 169 0 l 14 0 l 263 340 m 256 856 q 281 917 256 892 q 342 942 306 942 q 403 917 378 942 q 428 856 428 892 q 403 794 428 819 q 342 769 378 769 q 281 794 306 769 q 256 856 256 819 z "},"Ỳ":{"ha":858,"x_min":14,"x_max":844,"o":"m 14 985 l 178 985 l 433 546 l 689 985 l 844 985 l 497 421 l 497 0 l 361 0 l 361 421 l 14 985 m 190 1219 l 369 1219 l 511 1054 l 382 1054 l 190 1219 z "},"ỳ":{"ha":726,"x_min":14,"x_max":713,"o":"m 135 -279 l 301 74 l 14 668 l 164 668 l 372 207 l 572 668 l 713 668 l 278 -279 l 135 -279 m 161 957 l 325 957 l 444 754 l 336 754 l 161 957 z "}," ":{"ha":853,"x_min":0,"x_max":0,"o":""}," ":{"ha":388,"x_min":0,"x_max":0,"o":""},"​":{"ha":0,"x_min":0,"x_max":0,"o":""},"–":{"ha":892,"x_min":90,"x_max":801,"o":"m 90 342 l 90 456 l 801 456 l 801 342 l 90 342 z "},"—":{"ha":1532,"x_min":104,"x_max":1428,"o":"m 104 342 l 104 456 l 1428 456 l 1428 342 l 104 342 z "},"‘":{"ha":303,"x_min":56,"x_max":247,"o":"m 247 715 q 222 656 247 681 q 157 632 196 632 q 86 661 117 632 q 56 750 56 690 q 74 856 56 811 q 119 930 92 900 q 178 975 146 960 q 240 993 211 990 l 240 928 q 166 876 194 917 q 136 793 138 836 q 146 798 139 796 q 164 800 153 800 q 223 778 199 800 q 247 715 247 756 z "},"’":{"ha":311,"x_min":56,"x_max":256,"o":"m 56 911 q 83 972 56 946 q 150 997 110 997 q 224 967 192 997 q 256 875 256 936 q 237 764 256 810 q 190 688 218 718 q 128 642 161 657 q 64 622 94 626 l 64 689 q 140 741 111 700 q 171 829 169 782 q 161 824 168 826 q 143 822 154 822 q 81 846 107 822 q 56 911 56 869 z "},"‚":{"ha":311,"x_min":56,"x_max":256,"o":"m 56 85 q 83 145 56 119 q 150 171 110 171 q 224 140 192 171 q 256 49 256 110 q 237 -62 256 -17 q 190 -139 218 -108 q 128 -185 161 -169 q 64 -204 94 -200 l 64 -137 q 140 -85 111 -126 q 171 3 169 -44 q 161 -2 168 0 q 143 -4 154 -4 q 81 19 107 -4 q 56 85 56 43 z "},"“":{"ha":540,"x_min":56,"x_max":485,"o":"m 485 722 q 459 663 485 688 q 394 639 433 639 q 324 668 354 639 q 293 757 293 697 q 311 863 293 818 q 356 937 329 907 q 416 982 383 967 q 478 1000 449 997 l 478 935 q 403 883 432 924 q 374 800 375 843 q 383 805 376 803 q 401 807 390 807 q 460 785 436 807 q 485 722 485 763 m 247 722 q 222 663 247 688 q 157 639 196 639 q 86 668 117 639 q 56 757 56 697 q 74 863 56 818 q 119 937 92 907 q 178 982 146 967 q 240 1000 211 997 l 240 935 q 166 883 194 924 q 136 800 138 843 q 146 805 139 803 q 164 807 153 807 q 223 785 199 807 q 247 722 247 763 z "},"”":{"ha":540,"x_min":56,"x_max":485,"o":"m 56 910 q 81 969 56 944 q 146 993 107 993 q 217 964 186 993 q 247 875 247 935 q 229 769 247 814 q 184 696 211 725 q 124 651 157 667 q 63 632 92 636 l 63 697 q 104 716 85 703 q 137 747 124 729 q 158 788 150 765 q 167 832 167 810 q 157 827 164 829 q 139 825 150 825 q 80 847 104 825 q 56 910 56 869 m 293 910 q 319 969 293 944 q 383 993 344 993 q 454 964 424 993 q 485 875 485 935 q 467 769 485 814 q 422 696 449 725 q 362 651 394 667 q 300 632 329 636 l 300 697 q 342 716 322 703 q 374 747 361 729 q 396 788 388 765 q 404 832 404 810 q 394 827 401 829 q 376 825 388 825 q 317 847 342 825 q 293 910 293 869 z "},"„":{"ha":540,"x_min":56,"x_max":485,"o":"m 56 81 q 81 140 56 115 q 146 164 107 164 q 217 135 186 164 q 247 46 247 106 q 229 -60 247 -15 q 184 -133 211 -104 q 124 -178 157 -162 q 63 -197 92 -193 l 63 -132 q 104 -113 85 -126 q 137 -82 124 -100 q 158 -42 150 -64 q 167 3 167 -19 q 157 -2 164 0 q 139 -4 150 -4 q 80 18 104 -4 q 56 81 56 40 m 293 81 q 319 140 293 115 q 383 164 344 164 q 454 135 424 164 q 485 46 485 106 q 467 -60 485 -15 q 422 -133 449 -104 q 362 -178 394 -162 q 300 -197 329 -193 l 300 -132 q 342 -113 322 -126 q 374 -82 361 -100 q 396 -42 388 -64 q 404 3 404 -19 q 394 -2 401 0 q 376 -4 388 -4 q 317 18 342 -4 q 293 81 293 40 z "},"†":{"ha":536,"x_min":35,"x_max":501,"o":"m 211 225 l 211 665 l 35 665 l 35 778 l 211 778 l 211 985 l 325 985 l 325 778 l 501 778 l 501 665 l 325 665 l 325 225 l 211 225 z "},"‡":{"ha":592,"x_min":63,"x_max":529,"o":"m 239 319 l 239 665 l 63 665 l 63 778 l 239 778 l 239 985 l 353 985 l 353 778 l 529 778 l 529 665 l 353 665 l 353 319 l 529 319 l 529 207 l 353 207 l 353 0 l 239 0 l 239 207 l 63 207 l 63 319 l 239 319 z "},"•":{"ha":769,"x_min":97,"x_max":672,"o":"m 97 401 q 120 514 97 461 q 182 606 143 567 q 273 667 221 644 q 385 690 325 690 q 497 667 444 690 q 588 606 549 644 q 649 514 626 567 q 672 401 672 461 q 649 290 672 343 q 588 199 626 238 q 497 137 549 160 q 385 114 444 114 q 273 137 325 114 q 182 199 221 160 q 120 290 143 238 q 97 401 97 343 z "},"…":{"ha":1294,"x_min":125,"x_max":1169,"o":"m 1169 82 q 1144 19 1169 44 q 1081 -7 1118 -7 q 1017 19 1043 -7 q 990 82 990 44 q 1017 146 990 119 q 1081 172 1043 172 q 1144 146 1118 172 q 1169 82 1169 119 m 736 82 q 710 19 736 44 q 647 -7 685 -7 q 583 19 610 -7 q 557 82 557 44 q 583 146 557 119 q 647 172 610 172 q 710 146 685 172 q 736 82 736 119 m 304 82 q 278 19 304 44 q 215 -7 253 -7 q 151 19 178 -7 q 125 82 125 44 q 151 146 125 119 q 215 172 178 172 q 278 146 253 172 q 304 82 304 119 z "},"‰":{"ha":1465,"x_min":76,"x_max":1403,"o":"m 192 692 q 223 613 192 643 q 299 582 254 582 q 375 613 344 582 q 406 692 406 643 q 375 769 406 739 q 299 800 344 800 q 223 769 254 800 q 192 692 192 739 m 76 692 q 94 777 76 738 q 143 847 113 817 q 214 893 174 876 q 299 910 254 910 q 384 893 343 910 q 456 847 425 876 q 504 777 486 817 q 522 692 522 738 q 504 606 522 646 q 456 535 486 565 q 384 489 425 506 q 299 472 343 472 q 214 489 254 472 q 143 535 174 506 q 94 606 113 565 q 76 692 76 646 m 742 208 q 773 129 742 160 q 849 99 804 99 q 925 129 894 99 q 956 208 956 160 q 925 286 956 256 q 849 317 894 317 q 773 286 804 317 q 742 208 742 256 m 188 0 l 835 900 l 960 900 l 315 0 l 188 0 m 1072 208 q 1103 129 1072 160 q 1179 99 1135 99 q 1256 129 1225 99 q 1286 208 1286 160 q 1256 286 1286 256 q 1179 317 1225 317 q 1103 286 1135 317 q 1072 208 1072 256 m 626 208 q 644 294 626 254 q 693 363 663 333 q 764 410 724 393 q 849 426 804 426 q 943 404 900 426 q 1014 343 986 382 q 1084 404 1042 382 q 1179 426 1126 426 q 1265 410 1224 426 q 1336 363 1306 393 q 1385 294 1367 333 q 1403 208 1403 254 q 1385 122 1403 163 q 1336 52 1367 82 q 1265 6 1306 22 q 1179 -11 1224 -11 q 1084 11 1126 -11 q 1014 71 1042 33 q 943 11 986 33 q 849 -11 900 -11 q 764 6 804 -11 q 693 52 724 22 q 644 122 663 82 q 626 208 626 163 z "},"‹":{"ha":383,"x_min":42,"x_max":356,"o":"m 226 138 l 42 403 l 226 668 l 356 668 l 174 403 l 356 138 l 226 138 z "},"›":{"ha":383,"x_min":28,"x_max":342,"o":"m 28 138 l 210 403 l 28 668 l 157 668 l 342 403 l 157 138 l 28 138 z "},"⁂":{"ha":1160,"x_min":49,"x_max":1111,"o":"m 629 817 l 783 869 l 811 779 l 657 729 l 760 597 l 683 540 l 579 676 l 482 542 l 406 599 l 504 729 l 349 779 l 378 869 l 531 817 l 531 985 l 629 985 l 629 817 m 329 265 l 483 318 l 511 228 l 357 178 l 460 46 l 383 -11 l 279 125 l 182 -10 l 106 47 l 204 178 l 49 228 l 78 318 l 231 265 l 231 433 l 329 433 l 329 265 m 929 265 l 1083 318 l 1111 228 l 957 178 l 1060 46 l 983 -11 l 879 125 l 782 -10 l 706 47 l 804 178 l 649 228 l 678 318 l 831 265 l 831 433 l 929 433 l 929 265 z "},"⁄":{"ha":772,"x_min":0,"x_max":772,"o":"m 0 0 l 647 900 l 772 900 l 128 0 l 0 0 z "},"⁑":{"ha":588,"x_min":63,"x_max":525,"o":"m 343 817 l 497 869 l 525 779 l 371 729 l 474 597 l 397 540 l 293 676 l 196 542 l 119 599 l 218 729 l 63 779 l 92 869 l 244 817 l 244 985 l 343 985 l 343 817 m 343 265 l 497 318 l 525 228 l 371 178 l 474 46 l 397 -11 l 293 125 l 196 -10 l 119 47 l 218 178 l 63 228 l 92 318 l 244 265 l 244 433 l 343 433 l 343 265 z "},"⁰":{"ha":592,"x_min":83,"x_max":508,"o":"m 192 731 q 195 672 192 703 q 210 617 199 642 q 241 576 221 592 q 296 560 261 560 q 351 576 331 560 q 382 617 371 592 q 397 672 393 642 q 400 731 400 703 q 397 789 400 758 q 382 844 393 819 q 351 886 371 869 q 296 903 331 903 q 241 887 261 903 q 210 846 221 871 q 195 790 199 821 q 192 731 192 760 m 83 731 q 94 828 83 781 q 132 914 104 876 q 194 970 156 946 q 296 994 232 994 q 398 970 360 994 q 460 914 436 946 q 498 828 488 876 q 508 731 508 781 q 498 633 508 681 q 460 549 488 586 q 398 492 436 517 q 296 468 360 468 q 194 492 232 468 q 132 549 156 517 q 94 633 104 586 q 83 731 83 681 z "},"⁴":{"ha":619,"x_min":83,"x_max":536,"o":"m 83 679 l 329 985 l 447 985 l 447 668 l 536 668 l 536 578 l 447 578 l 447 478 l 340 478 l 340 578 l 83 578 l 83 679 m 340 861 l 186 668 l 340 668 l 340 861 z "},"⁵":{"ha":561,"x_min":83,"x_max":478,"o":"m 175 638 q 212 580 185 601 q 276 558 239 558 q 343 581 317 558 q 369 643 369 603 q 343 708 369 686 q 276 729 317 729 q 226 719 249 729 q 188 692 204 708 l 99 725 l 167 985 l 450 985 l 450 893 l 236 893 l 204 774 q 251 803 224 794 q 306 813 278 813 q 431 768 383 813 q 478 647 478 724 q 465 577 478 610 q 426 520 451 544 q 363 482 400 496 q 276 468 325 468 q 206 479 239 468 q 149 508 174 490 q 107 548 124 525 q 83 596 90 571 l 175 638 z "},"⁶":{"ha":581,"x_min":83,"x_max":497,"o":"m 447 890 q 361 908 407 908 q 248 872 294 908 q 190 763 201 835 q 243 806 208 789 q 317 822 278 822 q 447 776 397 822 q 497 647 497 731 q 481 574 497 607 q 438 518 465 542 q 374 481 411 494 q 293 468 336 468 q 217 482 254 468 q 149 524 179 496 q 101 597 119 553 q 83 700 83 640 q 103 822 83 768 q 160 915 124 876 q 245 975 196 954 q 353 996 294 996 q 419 989 388 996 q 472 969 451 982 l 447 890 m 199 646 q 228 581 199 603 q 294 558 258 558 q 360 581 331 558 q 389 646 389 603 q 360 711 389 689 q 294 733 331 733 q 228 711 258 733 q 199 646 199 689 z "},"⁷":{"ha":579,"x_min":83,"x_max":496,"o":"m 496 889 q 446 847 478 876 q 381 769 414 818 q 319 648 347 719 q 282 478 292 576 l 168 478 q 208 659 178 582 q 272 789 239 736 q 357 893 311 850 l 83 893 l 83 985 l 496 985 l 496 889 z "},"⁸":{"ha":569,"x_min":83,"x_max":486,"o":"m 285 779 q 342 797 321 779 q 364 846 364 815 q 343 891 364 874 q 285 908 322 908 q 226 891 247 908 q 206 846 206 874 q 227 797 206 815 q 285 779 249 779 m 285 557 q 354 576 331 557 q 378 626 378 594 q 353 676 378 657 q 285 696 329 696 q 216 676 240 696 q 192 626 192 657 q 215 576 192 594 q 285 557 239 557 m 285 468 q 135 511 188 468 q 83 618 83 554 q 108 688 83 656 q 178 738 133 721 q 120 783 140 753 q 100 849 100 814 q 152 954 100 914 q 285 994 204 994 q 417 954 365 994 q 469 849 469 914 q 449 783 469 814 q 392 738 429 753 q 461 688 436 721 q 486 618 486 656 q 434 511 486 554 q 285 468 382 468 z "},"⁹":{"ha":578,"x_min":83,"x_max":494,"o":"m 133 576 q 219 558 174 558 q 334 592 286 558 q 390 701 382 626 q 338 658 372 675 q 264 642 303 642 q 134 688 185 642 q 83 817 83 735 q 99 889 83 856 q 142 946 115 922 q 207 983 169 969 q 288 996 244 996 q 363 982 326 996 q 429 940 400 968 q 476 867 458 911 q 494 764 494 824 q 474 637 494 692 q 419 544 454 582 q 335 488 383 507 q 228 468 286 468 q 161 475 193 468 q 108 494 129 482 l 133 576 m 379 817 q 350 883 379 860 q 283 906 321 906 q 217 883 246 906 q 189 817 189 860 q 217 751 189 774 q 283 728 246 728 q 350 751 321 728 q 379 817 379 774 z "},"₀":{"ha":592,"x_min":83,"x_max":508,"o":"m 192 154 q 195 96 192 126 q 210 40 199 65 q 241 -1 221 15 q 296 -17 261 -17 q 351 -1 331 -17 q 382 40 371 15 q 397 96 393 65 q 400 154 400 126 q 397 213 400 182 q 382 268 393 243 q 351 310 371 293 q 296 326 331 326 q 241 310 261 326 q 210 269 221 294 q 195 214 199 244 q 192 154 192 183 m 83 154 q 94 252 83 204 q 132 338 104 300 q 194 394 156 369 q 296 418 232 418 q 398 394 360 418 q 460 338 436 369 q 498 252 488 300 q 508 154 508 204 q 498 57 508 104 q 460 -28 488 10 q 398 -84 436 -60 q 296 -108 360 -108 q 194 -84 232 -108 q 132 -28 156 -60 q 94 57 104 10 q 83 154 83 104 z "},"₁":{"ha":421,"x_min":69,"x_max":296,"o":"m 189 -99 l 189 242 l 69 242 l 69 314 q 156 342 121 315 q 197 408 190 369 l 296 408 l 296 -99 l 189 -99 z "},"₂":{"ha":540,"x_min":85,"x_max":457,"o":"m 93 213 q 90 235 90 224 q 89 256 89 247 q 101 318 89 289 q 138 369 114 347 q 195 405 161 392 q 272 418 229 418 q 349 405 315 418 q 406 370 382 392 q 442 319 429 349 q 454 258 454 290 q 428 172 454 210 q 357 106 401 133 l 257 43 q 229 19 242 32 q 214 -8 217 7 l 457 -8 l 457 -99 l 85 -99 l 85 -81 q 113 33 85 -18 q 203 121 140 83 l 286 172 q 346 260 346 208 q 326 308 346 288 q 271 329 307 329 q 213 307 235 329 q 192 249 192 285 q 192 233 192 244 q 196 213 193 222 l 93 213 z "},"₃":{"ha":572,"x_min":83,"x_max":489,"o":"m 207 210 l 339 319 l 101 319 l 101 410 l 478 410 l 478 322 l 339 211 q 395 198 368 208 q 443 169 422 188 q 476 122 464 150 q 489 60 489 94 q 474 -6 489 25 q 433 -59 460 -36 q 370 -95 407 -82 q 288 -108 333 -108 q 207 -96 242 -108 q 147 -64 172 -83 q 105 -19 121 -44 q 83 35 89 7 l 176 72 q 213 8 183 32 q 286 -17 243 -17 q 355 6 329 -17 q 381 60 381 28 q 351 120 381 103 q 286 138 321 138 q 265 136 275 138 q 247 132 254 135 l 207 210 z "},"₄":{"ha":619,"x_min":83,"x_max":536,"o":"m 83 103 l 329 408 l 447 408 l 447 92 l 536 92 l 536 1 l 447 1 l 447 -99 l 340 -99 l 340 1 l 83 1 l 83 103 m 340 285 l 186 92 l 340 92 l 340 285 z "},"₅":{"ha":561,"x_min":83,"x_max":478,"o":"m 175 61 q 212 3 185 25 q 276 -18 239 -18 q 343 4 317 -18 q 369 67 369 26 q 343 131 369 110 q 276 153 317 153 q 226 142 249 153 q 188 115 204 132 l 99 149 l 167 408 l 450 408 l 450 317 l 236 317 l 204 197 q 251 227 224 218 q 306 236 278 236 q 431 192 383 236 q 478 71 478 147 q 465 1 478 33 q 426 -56 451 -32 q 363 -94 400 -81 q 276 -108 325 -108 q 206 -97 239 -108 q 149 -69 174 -86 q 107 -28 124 -51 q 83 19 90 -6 l 175 61 z "},"₆":{"ha":581,"x_min":83,"x_max":497,"o":"m 447 314 q 361 332 407 332 q 248 295 294 332 q 190 186 201 258 q 243 229 208 213 q 317 246 278 246 q 447 200 397 246 q 497 71 497 154 q 481 -2 497 31 q 438 -58 465 -35 q 374 -95 411 -82 q 293 -108 336 -108 q 217 -94 254 -108 q 149 -52 179 -81 q 101 20 119 -24 q 83 124 83 64 q 103 246 83 192 q 160 339 124 300 q 245 399 196 378 q 353 419 294 419 q 419 413 388 419 q 472 393 451 406 l 447 314 m 199 69 q 228 4 199 26 q 294 -18 258 -18 q 360 4 331 -18 q 389 69 389 26 q 360 135 389 113 q 294 157 331 157 q 228 135 258 157 q 199 69 199 113 z "},"₇":{"ha":579,"x_min":83,"x_max":496,"o":"m 496 313 q 446 271 478 300 q 381 192 414 242 q 319 72 347 143 q 282 -99 292 0 l 168 -99 q 208 83 178 6 q 272 213 239 160 q 357 317 311 274 l 83 317 l 83 408 l 496 408 l 496 313 z "},"₈":{"ha":569,"x_min":83,"x_max":486,"o":"m 285 203 q 342 221 321 203 q 364 269 364 239 q 343 315 364 297 q 285 332 322 332 q 226 315 247 332 q 206 269 206 297 q 227 221 206 239 q 285 203 249 203 m 285 -19 q 354 -1 331 -19 q 378 50 378 18 q 353 100 378 81 q 285 119 329 119 q 216 100 240 119 q 192 50 192 81 q 215 -1 192 18 q 285 -19 239 -19 m 285 -108 q 135 -65 188 -108 q 83 42 83 -22 q 108 112 83 79 q 178 161 133 144 q 120 207 140 176 q 100 272 100 238 q 152 378 100 338 q 285 418 204 418 q 417 378 365 418 q 469 272 469 338 q 449 207 469 238 q 392 161 429 176 q 461 112 436 144 q 486 42 486 79 q 434 -65 486 -22 q 285 -108 382 -108 z "},"₉":{"ha":578,"x_min":83,"x_max":494,"o":"m 133 0 q 219 -18 174 -18 q 334 16 286 -18 q 390 125 382 50 q 338 82 372 99 q 264 65 303 65 q 134 112 185 65 q 83 240 83 158 q 99 313 83 279 q 142 369 115 346 q 207 406 169 393 q 288 419 244 419 q 363 406 326 419 q 429 363 400 392 q 476 291 458 335 q 494 188 494 247 q 474 60 494 115 q 419 -32 454 6 q 335 -89 383 -69 q 228 -108 286 -108 q 161 -101 193 -108 q 108 -82 129 -94 l 133 0 m 379 240 q 350 306 379 283 q 283 329 321 329 q 217 306 246 329 q 189 240 189 283 q 217 174 189 197 q 283 151 246 151 q 350 174 321 151 q 379 240 379 197 z "},"€":{"ha":957,"x_min":90,"x_max":922,"o":"m 200 392 q 198 420 199 403 q 197 451 197 438 q 198 481 197 465 q 200 507 199 496 l 90 507 l 90 615 l 221 615 q 291 749 246 692 q 394 844 336 806 q 518 901 451 882 q 651 921 585 921 q 782 905 722 921 q 889 856 842 889 l 833 749 q 750 788 796 776 q 651 800 704 800 q 480 754 558 800 q 363 615 401 708 l 769 615 l 715 507 l 336 507 q 332 451 332 482 q 336 392 332 413 l 665 392 l 611 281 l 365 281 q 480 144 404 189 q 647 100 556 100 q 763 119 710 100 q 854 175 817 138 l 922 78 q 801 6 871 33 q 647 -21 731 -21 q 516 -1 581 -21 q 394 56 451 18 q 293 149 338 93 q 224 281 249 206 l 90 281 l 90 392 l 200 392 z "},"ℓ":{"ha":565,"x_min":49,"x_max":517,"o":"m 49 360 q 84 371 57 363 q 143 394 111 379 l 143 703 q 194 864 143 806 q 329 922 246 922 q 467 868 418 922 q 517 714 517 814 q 501 606 517 660 q 453 500 485 551 q 377 403 422 449 q 274 321 332 357 l 274 222 q 300 140 274 165 q 367 114 326 115 q 438 124 406 114 q 492 154 469 135 l 492 36 q 454 10 485 26 q 361 -7 424 -7 q 196 56 249 -7 q 143 215 143 119 l 143 261 q 97 248 119 254 q 49 238 74 242 l 49 360 m 386 714 q 374 781 386 758 q 332 803 363 803 q 291 781 308 803 q 274 704 274 760 l 274 476 q 353 576 319 518 q 386 714 386 635 z "},"™":{"ha":1193,"x_min":42,"x_max":1110,"o":"m 303 890 l 303 478 l 197 478 l 197 890 l 42 890 l 42 985 l 458 985 l 458 890 l 303 890 m 1010 478 l 1010 801 l 869 478 l 788 478 l 651 797 l 651 478 l 546 478 l 546 985 l 683 985 l 832 632 l 981 985 l 1110 985 l 1110 478 l 1010 478 z "},"Ω":{"ha":1106,"x_min":63,"x_max":1043,"o":"m 553 883 q 426 861 489 883 q 313 795 363 839 q 232 688 263 751 q 201 539 201 624 q 228 403 201 464 q 296 297 254 342 q 390 223 338 251 q 493 183 442 194 l 493 0 l 69 0 l 69 122 l 350 122 q 245 178 297 142 q 153 269 193 215 q 88 390 113 322 q 63 538 63 457 q 103 735 63 647 q 212 882 144 822 q 368 974 279 942 q 553 1006 457 1006 q 738 974 649 1006 q 894 882 826 942 q 1002 735 961 822 q 1043 538 1043 647 q 1018 390 1043 457 q 952 269 993 322 q 860 178 911 215 q 754 122 808 142 l 1036 122 l 1036 0 l 613 0 l 613 183 q 716 223 664 194 q 810 297 768 251 q 878 403 851 342 q 904 539 904 464 q 874 688 904 624 q 793 795 843 751 q 680 861 743 839 q 553 883 617 883 z "},"Ⅰ":{"ha":703,"x_min":76,"x_max":626,"o":"m 626 778 l 418 778 l 418 122 l 626 122 l 626 0 l 76 0 l 76 122 l 285 122 l 285 778 l 76 778 l 76 900 l 626 900 l 626 778 z "},"Ⅱ":{"ha":1069,"x_min":76,"x_max":993,"o":"m 993 0 l 76 0 l 76 122 l 271 122 l 271 778 l 76 778 l 76 900 l 993 900 l 993 778 l 799 778 l 799 122 l 993 122 l 993 0 m 665 778 l 404 778 l 404 122 l 665 122 l 665 778 z "},"Ⅲ":{"ha":1450,"x_min":76,"x_max":1374,"o":"m 1374 0 l 76 0 l 76 122 l 271 122 l 271 778 l 76 778 l 76 900 l 1374 900 l 1374 778 l 1179 778 l 1179 122 l 1374 122 l 1374 0 m 1046 778 l 792 778 l 792 122 l 1046 122 l 1046 778 m 404 122 l 658 122 l 658 778 l 404 778 l 404 122 z "},"Ⅳ":{"ha":1397,"x_min":76,"x_max":1321,"o":"m 1321 0 l 76 0 l 76 122 l 257 122 l 257 778 l 76 778 l 76 900 l 1319 900 l 1319 778 l 1160 778 l 933 122 l 1321 122 l 1321 0 m 390 122 l 724 122 l 501 778 l 390 778 l 390 122 m 1022 778 l 643 778 l 832 196 l 1022 778 z "},"Ⅴ":{"ha":1115,"x_min":76,"x_max":1039,"o":"m 1039 778 l 886 778 l 660 122 l 1033 122 l 1033 0 l 83 0 l 83 122 l 450 122 l 228 778 l 76 778 l 76 900 l 1039 900 l 1039 778 m 749 778 l 369 778 l 558 196 l 749 778 z "},"Ⅵ":{"ha":1397,"x_min":76,"x_max":1321,"o":"m 1321 0 l 76 0 l 76 122 l 457 122 l 235 778 l 76 778 l 76 900 l 1319 900 l 1319 778 l 1140 778 l 1140 122 l 1321 122 l 1321 0 m 667 122 l 1007 122 l 1007 778 l 893 778 l 667 122 m 756 778 l 376 778 l 565 196 l 756 778 z "},"Ⅶ":{"ha":1796,"x_min":76,"x_max":1719,"o":"m 1719 0 l 76 0 l 76 122 l 456 122 l 235 778 l 76 778 l 76 900 l 1719 900 l 1719 778 l 1525 778 l 1525 122 l 1719 122 l 1719 0 m 1392 778 l 1139 778 l 1139 122 l 1392 122 l 1392 778 m 665 122 l 1006 122 l 1006 778 l 892 778 l 665 122 m 754 778 l 376 778 l 564 196 l 754 778 z "},"Ⅷ":{"ha":2142,"x_min":76,"x_max":2065,"o":"m 2065 0 l 76 0 l 76 122 l 451 122 l 235 778 l 76 778 l 76 900 l 2065 900 l 2065 778 l 1878 778 l 1878 122 l 2065 122 l 2065 0 m 1131 122 l 1371 122 l 1371 778 l 1131 778 l 1131 122 m 1504 122 l 1744 122 l 1744 778 l 1504 778 l 1504 122 m 658 122 l 997 122 l 997 778 l 881 778 l 658 122 m 742 778 l 376 778 l 558 196 l 742 778 z "},"Ⅸ":{"ha":1356,"x_min":76,"x_max":1279,"o":"m 1279 0 l 76 0 l 76 122 l 257 122 l 257 778 l 76 778 l 76 900 l 1278 900 l 1278 778 l 1132 778 l 896 440 l 1119 122 l 1279 122 l 1279 0 m 510 778 l 390 778 l 390 122 l 518 122 l 747 440 l 510 778 m 821 544 l 981 778 l 663 778 l 821 544 m 668 122 l 967 122 l 819 338 l 668 122 z "},"Ⅹ":{"ha":1065,"x_min":76,"x_max":989,"o":"m 988 778 l 842 778 l 606 440 l 829 122 l 989 122 l 989 0 l 76 0 l 76 122 l 228 122 l 457 440 l 219 778 l 76 778 l 76 900 l 988 900 l 988 778 m 531 544 l 690 778 l 372 778 l 531 544 m 378 122 l 676 122 l 529 338 l 378 122 z "},"Ⅼ":{"ha":908,"x_min":76,"x_max":832,"o":"m 832 0 l 76 0 l 76 122 l 257 122 l 257 778 l 76 778 l 76 900 l 585 900 l 585 778 l 390 778 l 390 122 l 699 122 l 699 390 l 832 390 l 832 0 z "},"Ⅽ":{"ha":1003,"x_min":76,"x_max":926,"o":"m 926 0 l 793 0 l 793 93 q 686 10 750 40 q 526 -19 622 -19 q 360 12 442 -19 q 216 103 279 43 q 115 251 153 163 q 76 451 76 339 q 115 653 76 565 q 217 800 154 740 q 361 891 281 860 q 526 922 442 922 q 683 894 619 922 q 790 815 747 867 l 790 903 l 924 903 l 924 589 l 790 589 q 713 742 779 685 q 526 800 646 800 q 406 779 463 800 q 306 715 349 758 q 237 606 263 672 q 211 451 211 540 q 237 297 211 363 q 306 188 263 231 q 406 124 349 144 q 526 103 463 103 q 644 123 594 103 q 725 174 693 143 q 774 244 757 206 q 793 321 790 283 l 926 321 l 926 0 z "},"Ⅾ":{"ha":1021,"x_min":76,"x_max":944,"o":"m 522 900 q 681 872 604 900 q 815 786 757 843 q 909 645 874 729 q 944 449 944 561 q 910 254 944 338 q 815 114 875 171 q 678 28 756 57 q 514 0 600 0 l 76 0 l 76 122 l 264 122 l 264 778 l 76 778 l 76 900 l 522 900 m 517 122 q 624 142 572 122 q 717 201 676 161 q 783 303 758 242 q 808 449 808 364 q 785 592 808 531 q 722 695 761 654 q 628 757 682 736 q 514 778 574 778 l 397 778 l 397 122 l 517 122 z "},"Ⅿ":{"ha":1485,"x_min":76,"x_max":1408,"o":"m 738 185 l 1032 900 l 1408 900 l 1408 778 l 1225 778 l 1225 122 l 1408 122 l 1408 0 l 957 0 l 957 122 l 1094 122 l 1094 717 l 790 0 l 685 0 l 383 717 l 383 122 l 528 122 l 528 0 l 76 0 l 76 122 l 253 122 l 253 778 l 76 778 l 76 900 l 446 900 l 738 185 z "},"←":{"ha":1425,"x_min":0,"x_max":1328,"o":"m 0 399 l 307 657 l 307 457 l 1328 457 l 1328 342 l 307 342 l 307 142 l 0 399 z "},"↑":{"ha":624,"x_min":56,"x_max":610,"o":"m 610 771 l 390 771 l 390 -206 l 275 -206 l 275 771 l 56 771 l 333 1111 l 610 771 z "},"→":{"ha":1425,"x_min":47,"x_max":1364,"o":"m 1014 106 l 1014 340 l 47 340 l 47 456 l 1014 456 l 1014 693 l 1364 399 l 1014 106 z "},"↓":{"ha":624,"x_min":-1,"x_max":586,"o":"m 292 -225 l -1 125 l 233 125 l 233 1092 l 349 1092 l 349 125 l 586 125 l 292 -225 z "},"↖":{"ha":1214,"x_min":76,"x_max":1075,"o":"m 482 985 l 321 822 l 1075 69 l 993 -11 l 239 740 l 76 576 l 76 985 l 482 985 z "},"↗":{"ha":1074,"x_min":-64,"x_max":935,"o":"m 935 985 l 935 576 l 771 740 l 18 -11 l -64 69 l 690 822 l 529 985 l 935 985 z "},"↘":{"ha":1214,"x_min":76,"x_max":1075,"o":"m 669 0 l 831 163 l 76 915 l 158 996 l 911 243 l 1075 408 l 1075 0 l 669 0 z "},"↙":{"ha":1061,"x_min":63,"x_max":1061,"o":"m 63 0 l 63 408 l 225 243 l 979 996 l 1061 915 l 307 163 l 468 0 l 63 0 z "},"↩":{"ha":1157,"x_min":-3,"x_max":1121,"o":"m 553 922 l 819 922 q 937 900 882 922 q 1033 839 992 878 q 1097 747 1074 800 q 1121 632 1121 693 q 1096 513 1121 567 q 1028 422 1071 460 q 929 363 985 383 q 814 342 874 342 l 304 342 l 304 142 l -3 399 l 304 657 l 304 457 l 807 457 q 882 469 846 457 q 946 503 918 481 q 990 558 974 525 q 1007 632 1007 590 q 991 706 1007 674 q 947 761 975 739 q 882 795 919 783 q 803 807 844 807 l 553 807 l 553 922 z "},"↰":{"ha":1076,"x_min":69,"x_max":951,"o":"m 69 747 l 376 1006 l 376 806 l 951 806 l 951 0 l 836 0 l 836 690 l 376 690 l 376 490 l 69 747 z "},"↱":{"ha":1000,"x_min":49,"x_max":1000,"o":"m 49 0 l 49 806 l 693 806 l 693 1006 l 1000 747 l 693 490 l 693 690 l 164 690 l 164 0 l 49 0 z "},"↲":{"ha":1056,"x_min":-14,"x_max":938,"o":"m 938 985 l 938 179 l 293 179 l 293 -21 l -14 238 l 293 494 l 293 294 l 822 294 l 822 985 l 938 985 z "},"↳":{"ha":1167,"x_min":118,"x_max":1069,"o":"m 1069 238 l 763 -21 l 763 179 l 118 179 l 118 985 l 233 985 l 233 294 l 763 294 l 763 494 l 1069 238 z "},"↴":{"ha":1131,"x_min":76,"x_max":1082,"o":"m 76 985 l 882 985 l 882 285 l 1082 285 l 824 -22 l 567 285 l 767 285 l 767 869 l 76 869 l 76 985 z "},"⇆":{"ha":1536,"x_min":76,"x_max":1460,"o":"m 76 750 l 383 1008 l 383 808 l 1432 808 l 1432 693 l 383 693 l 383 493 l 76 750 m 1153 -21 l 1153 179 l 104 179 l 104 294 l 1153 294 l 1153 494 l 1460 236 l 1153 -21 z "},"∂":{"ha":849,"x_min":64,"x_max":781,"o":"m 343 886 q 256 878 310 886 q 149 843 203 869 l 104 946 q 229 992 163 979 q 354 1006 296 1006 q 491 985 417 1006 q 630 906 565 964 q 738 747 694 849 q 781 483 781 646 q 756 274 781 367 q 683 115 732 181 q 563 15 635 50 q 399 -21 492 -21 q 274 -1 335 -21 q 167 60 214 19 q 92 163 121 101 q 64 307 64 225 q 91 441 64 382 q 165 542 118 500 q 274 606 213 583 q 406 628 336 628 q 550 604 489 628 q 643 549 611 581 q 611 702 636 638 q 547 807 586 767 q 457 867 508 847 q 343 886 406 886 m 425 513 q 326 495 368 513 q 255 449 283 478 q 212 381 226 419 q 197 299 197 342 q 215 213 197 250 q 261 151 232 176 q 328 113 290 126 q 406 100 365 100 q 516 128 471 100 q 590 201 561 157 q 631 301 618 246 q 644 411 644 357 q 549 487 608 461 q 425 513 490 513 z "},"∆":{"ha":919,"x_min":0,"x_max":919,"o":"m 386 985 l 532 985 l 919 0 l 0 0 l 386 985 m 193 125 l 725 125 l 457 829 l 193 125 z "},"∏":{"ha":954,"x_min":125,"x_max":829,"o":"m 697 0 l 697 864 l 261 864 l 261 0 l 125 0 l 125 985 l 829 985 l 829 0 l 697 0 z "},"∑":{"ha":788,"x_min":63,"x_max":753,"o":"m 63 119 l 442 496 l 63 865 l 63 985 l 753 985 l 753 860 l 246 860 l 619 496 l 233 125 l 753 125 l 753 0 l 63 0 l 63 119 z "},"−":{"ha":740,"x_min":76,"x_max":664,"o":"m 76 344 l 76 454 l 664 454 l 664 344 l 76 344 z "},"∕":{"ha":561,"x_min":0,"x_max":561,"o":"m 126 0 l 0 0 l 435 900 l 561 900 l 126 0 z "},"∙":{"ha":388,"x_min":97,"x_max":290,"o":"m 97 394 q 125 463 97 435 q 193 492 153 492 q 262 463 233 492 q 290 394 290 435 q 262 326 290 354 q 193 299 233 299 q 125 326 153 299 q 97 394 97 354 z "},"√":{"ha":924,"x_min":49,"x_max":972,"o":"m 807 1083 l 438 0 l 311 0 l 49 735 l 199 735 l 375 215 l 701 1206 l 972 1206 l 972 1083 l 807 1083 z "},"∞":{"ha":1113,"x_min":63,"x_max":1050,"o":"m 554 317 q 432 208 490 246 q 304 169 374 169 q 207 187 251 169 q 131 235 163 204 q 81 310 99 267 q 63 403 63 353 q 81 496 63 453 q 131 570 99 539 q 207 619 163 601 q 304 638 251 638 q 437 600 374 638 q 558 489 500 563 q 680 600 621 563 q 808 638 739 638 q 906 619 861 638 q 982 570 950 601 q 1032 496 1014 539 q 1050 403 1050 453 q 1032 310 1050 353 q 982 235 1014 267 q 906 187 950 204 q 808 169 861 169 q 554 317 671 169 m 307 526 q 213 490 247 526 q 178 401 178 454 q 213 313 178 349 q 307 278 247 278 q 401 312 358 278 q 486 399 443 346 q 401 490 442 453 q 307 526 360 526 m 806 278 q 900 313 865 278 q 935 401 935 349 q 900 490 935 454 q 806 526 865 526 q 713 491 753 526 q 626 403 672 456 q 712 314 671 350 q 806 278 753 278 z "},"∫":{"ha":431,"x_min":7,"x_max":424,"o":"m 151 765 q 210 926 151 868 q 372 985 268 985 l 424 985 l 424 865 l 382 865 q 309 838 336 865 q 282 756 282 811 l 282 -57 q 226 -219 282 -160 q 67 -278 169 -278 l 7 -278 l 7 -158 l 50 -158 q 123 -130 94 -158 q 151 -46 151 -101 l 151 765 z "},"≈":{"ha":790,"x_min":49,"x_max":742,"o":"m 742 533 q 651 448 703 478 q 539 418 600 418 q 400 460 472 418 l 335 496 q 249 519 290 519 q 122 457 176 519 l 49 522 q 139 610 89 581 q 247 640 189 640 q 317 629 283 640 q 390 597 351 618 l 454 563 q 551 535 503 535 q 671 596 619 535 l 742 533 m 742 264 q 651 178 703 208 q 539 149 600 149 q 400 190 472 149 l 335 226 q 249 250 290 250 q 122 188 176 250 l 49 253 q 139 341 89 311 q 247 371 189 371 q 317 360 283 371 q 390 328 351 349 l 454 293 q 551 265 503 265 q 671 326 619 265 l 742 264 z "},"≠":{"ha":824,"x_min":90,"x_max":733,"o":"m 342 210 l 239 71 l 106 71 l 208 210 l 90 210 l 90 319 l 289 319 l 407 481 l 90 481 l 90 588 l 486 588 l 588 725 l 721 725 l 619 588 l 733 588 l 733 481 l 540 481 l 422 319 l 733 319 l 733 210 l 342 210 z "}}}
